NotoSerifBengali-Condensed.ufo
<glyph name="exclam" format="2">
  <advance width="294.1"/>
  <unicode hex="0021"/>
  <outline>
    <contour>
      <point x="125.9" y="205.0" type="line"/>
      <point x="171.7" y="205.0" type="line"/>
      <point x="200.9" y="714.0" type="line"/>
      <point x="96.7" y="714.0" type="line"/>
    </contour>
    <contour>
      <point x="149.0" y="-7.0" type="curve" smooth="yes"/>
      <point x="177.5" y="-7.0"/>
      <point x="202.7" y="8.3"/>
      <point x="202.7" y="56.2" type="curve" smooth="yes"/>
      <point x="202.7" y="103.8"/>
      <point x="177.5" y="119.1"/>
      <point x="149.0" y="119.1" type="curve" smooth="yes"/>
      <point x="118.8" y="119.1"/>
      <point x="95.3" y="103.8"/>
      <point x="95.3" y="56.2" type="curve" smooth="yes"/>
      <point x="95.3" y="8.3"/>
      <point x="118.8" y="-7.0"/>
    </contour>
  </outline>
</glyph>
<glyph name="quotedbl" format="2">
  <advance width="359.3"/>
  <unicode hex="0022"/>
  <outline>
    <contour>
      <point x="240.7" y="483.3" type="line"/>
      <point x="281.6" y="483.3" type="line"/>
      <point x="308.9" y="714.0" type="line"/>
      <point x="213.1" y="714.0" type="line"/>
    </contour>
    <contour>
      <point x="77.4" y="483.3" type="line"/>
      <point x="118.6" y="483.3" type="line"/>
      <point x="145.9" y="714.0" type="line"/>
      <point x="50.4" y="714.0" type="line"/>
    </contour>
  </outline>
</glyph>
<glyph name="numbersign" format="2">
  <advance width="477.8"/>
  <unicode hex="0023"/>
  <outline>
    <contour>
      <point x="54.8" y="0.0" type="line"/>
      <point x="110.4" y="0.0" type="line"/>
      <point x="149.1" y="207.1" type="line"/>
      <point x="264.8" y="207.1" type="line"/>
      <point x="225.8" y="0.0" type="line"/>
      <point x="281.4" y="0.0" type="line"/>
      <point x="320.4" y="207.1" type="line"/>
      <point x="432.4" y="207.1" type="line"/>
      <point x="432.4" y="259.3" type="line"/>
      <point x="330.7" y="259.3" type="line"/>
      <point x="368.4" y="460.0" type="line"/>
      <point x="464.7" y="460.0" type="line"/>
      <point x="464.7" y="513.9" type="line"/>
      <point x="378.7" y="513.9" type="line"/>
      <point x="416.7" y="714.0" type="line"/>
      <point x="360.4" y="714.0" type="line"/>
      <point x="323.1" y="513.9" type="line"/>
      <point x="207.4" y="513.9" type="line"/>
      <point x="245.1" y="714.0" type="line"/>
      <point x="188.8" y="714.0" type="line"/>
      <point x="151.8" y="513.9" type="line"/>
      <point x="44.4" y="513.9" type="line"/>
      <point x="44.4" y="460.0" type="line"/>
      <point x="141.1" y="460.0" type="line"/>
      <point x="103.5" y="259.3" type="line"/>
      <point x="12.100000000000001" y="259.3" type="line"/>
      <point x="12.100000000000001" y="207.1" type="line"/>
      <point x="93.5" y="207.1" type="line"/>
    </contour>
    <contour>
      <point x="159.7" y="259.3" type="line"/>
      <point x="197.4" y="460.0" type="line"/>
      <point x="313.1" y="460.0" type="line"/>
      <point x="275.4" y="259.3" type="line"/>
    </contour>
  </outline>
</glyph>
<glyph name="percent" format="2">
  <advance width="766.2"/>
  <unicode hex="0025"/>
  <outline>
    <contour>
      <point x="201.1" y="0.0" type="line"/>
      <point x="258.2" y="0.0" type="line"/>
      <point x="561.5" y="714.0" type="line"/>
      <point x="505.1" y="714.0" type="line"/>
    </contour>
    <contour>
      <point x="178.6" y="280.0" type="curve" smooth="yes"/>
      <point x="274.3" y="280.0"/>
      <point x="321.0" y="369.0"/>
      <point x="321.0" y="503.0" type="curve"/>
      <point x="321.0" y="637.0"/>
      <point x="274.0" y="724.0"/>
      <point x="179.6" y="724.0" type="curve" smooth="yes"/>
      <point x="78.9" y="724.0"/>
      <point x="36.9" y="637.0"/>
      <point x="36.9" y="503.0" type="curve" smooth="yes"/>
      <point x="36.9" y="369.0"/>
      <point x="78.6" y="280.0"/>
    </contour>
    <contour>
      <point x="178.6" y="316.9" type="curve" smooth="yes"/>
      <point x="127.9" y="316.9"/>
      <point x="110.1" y="384.2"/>
      <point x="110.1" y="503.0" type="curve"/>
      <point x="110.1" y="619.5"/>
      <point x="127.6" y="686.1"/>
      <point x="179.3" y="686.1" type="curve" smooth="yes"/>
      <point x="230.3" y="686.1"/>
      <point x="246.8" y="620.1"/>
      <point x="246.8" y="503.0" type="curve" smooth="yes"/>
      <point x="246.8" y="384.5"/>
      <point x="230.3" y="316.9"/>
    </contour>
    <contour>
      <point x="586.6" y="-10.0" type="curve" smooth="yes"/>
      <point x="682.3" y="-10.0"/>
      <point x="729.0" y="79.0"/>
      <point x="729.0" y="213.0" type="curve" smooth="yes"/>
      <point x="729.0" y="347.0"/>
      <point x="682.0" y="434.0"/>
      <point x="587.6" y="434.0" type="curve" smooth="yes"/>
      <point x="487.3" y="434.0"/>
      <point x="444.9" y="347.0"/>
      <point x="444.9" y="213.0" type="curve" smooth="yes"/>
      <point x="444.9" y="79.0"/>
      <point x="487.3" y="-10.0"/>
    </contour>
    <contour>
      <point x="586.6" y="26.9" type="curve" smooth="yes"/>
      <point x="535.9" y="26.9"/>
      <point x="518.1" y="94.2"/>
      <point x="518.1" y="213.0" type="curve" smooth="yes"/>
      <point x="518.1" y="329.5"/>
      <point x="535.6" y="396.1"/>
      <point x="586.9" y="396.1" type="curve" smooth="yes"/>
      <point x="638.3" y="396.1"/>
      <point x="654.5" y="330.1"/>
      <point x="654.5" y="213.0" type="curve" smooth="yes"/>
      <point x="654.5" y="94.5"/>
      <point x="638.3" y="26.9"/>
    </contour>
  </outline>
</glyph>
<glyph name="quotesingle" format="2">
  <advance width="196.3"/>
  <unicode hex="0027"/>
  <outline>
    <contour>
      <point x="77.4" y="483.3" type="line"/>
      <point x="118.6" y="483.3" type="line"/>
      <point x="145.9" y="714.0" type="line"/>
      <point x="50.4" y="714.0" type="line"/>
    </contour>
  </outline>
</glyph>
<glyph name="parenleft" format="2">
  <advance width="310.4"/>
  <unicode hex="0028"/>
  <outline>
    <contour>
      <point x="267.2" y="-126.7" type="curve"/>
      <point x="267.2" y="-83.0" type="line"/>
      <point x="151.6" y="-0.30000000000000004"/>
      <point x="137.0" y="158.0"/>
      <point x="137.0" y="317.0" type="curve" smooth="yes"/>
      <point x="137.0" y="476.0"/>
      <point x="151.6" y="632.9"/>
      <point x="267.2" y="715.7" type="curve"/>
      <point x="267.2" y="758.0" type="line"/>
      <point x="105.7" y="688.0"/>
      <point x="41.7" y="560.0"/>
      <point x="41.7" y="317.0" type="curve" smooth="yes"/>
      <point x="41.7" y="73.0"/>
      <point x="105.7" y="-55.3"/>
    </contour>
  </outline>
</glyph>
<glyph name="parenright" format="2">
  <advance width="319.1"/>
  <unicode hex="0029"/>
  <outline>
    <contour>
      <point x="52.60000000000001" y="-126.7" type="line"/>
      <point x="214.10000000000002" y="-55.3"/>
      <point x="278.1" y="73.0"/>
      <point x="278.1" y="317.0" type="curve" smooth="yes"/>
      <point x="278.1" y="560.0"/>
      <point x="214.10000000000002" y="688.0"/>
      <point x="52.60000000000001" y="758.0" type="curve"/>
      <point x="52.60000000000001" y="715.7" type="line"/>
      <point x="168.2" y="632.9"/>
      <point x="183.5" y="476.0"/>
      <point x="183.5" y="317.0" type="curve" smooth="yes"/>
      <point x="183.5" y="158.0"/>
      <point x="168.2" y="-0.30000000000000004"/>
      <point x="52.60000000000001" y="-83.0" type="curve"/>
    </contour>
  </outline>
</glyph>
<glyph name="asterisk" format="2">
  <advance width="410.8"/>
  <unicode hex="002A"/>
  <outline>
    <contour>
      <point x="167.7" y="375.2" type="line"/>
      <point x="242.3" y="375.2" type="line"/>
      <point x="218.1" y="540.1" type="line"/>
      <point x="344.5" y="445.0" type="line"/>
      <point x="374.7" y="516.9" type="line"/>
      <point x="238.5" y="567.6" type="line"/>
      <point x="374.7" y="618.6" type="line"/>
      <point x="344.5" y="690.2" type="line"/>
      <point x="218.1" y="595.8" type="line"/>
      <point x="242.0" y="760.0" type="line"/>
      <point x="167.7" y="760.0" type="line"/>
      <point x="189.9" y="595.1" type="line"/>
      <point x="64.5" y="692.5" type="line"/>
      <point x="34.0" y="619.6" type="line"/>
      <point x="170.2" y="567.6" type="line"/>
      <point x="34.0" y="515.9" type="line"/>
      <point x="64.5" y="443.0" type="line"/>
      <point x="189.6" y="540.1" type="line"/>
    </contour>
  </outline>
</glyph>
<glyph name="plus" format="2">
  <advance width="465.2"/>
  <unicode hex="002B"/>
  <outline>
    <contour>
      <point x="202.4" y="143.0" type="line"/>
      <point x="260.8" y="143.0" type="line"/>
      <point x="260.8" y="329.3" type="line"/>
      <point x="415.6" y="329.3" type="line"/>
      <point x="415.6" y="386.0" type="line"/>
      <point x="260.8" y="386.0" type="line"/>
      <point x="260.8" y="572.0" type="line"/>
      <point x="202.4" y="572.0" type="line"/>
      <point x="202.4" y="386.0" type="line"/>
      <point x="49.3" y="386.0" type="line"/>
      <point x="49.3" y="329.3" type="line"/>
      <point x="202.4" y="329.3" type="line"/>
    </contour>
  </outline>
</glyph>
<glyph name="comma" format="2">
  <advance width="239.4"/>
  <unicode hex="002C"/>
  <outline>
    <contour>
      <point x="48.800000000000004" y="-154.0" type="line"/>
      <point x="146.3" y="-121.4"/>
      <point x="183.3" y="-49.9"/>
      <point x="183.3" y="29.6" type="curve" smooth="yes"/>
      <point x="183.3" y="87.0"/>
      <point x="156.0" y="119.1"/>
      <point x="119.1" y="119.1" type="curve" smooth="yes"/>
      <point x="89.4" y="119.1"/>
      <point x="66.9" y="98.8"/>
      <point x="66.9" y="64.9" type="curve" smooth="yes"/>
      <point x="66.9" y="10.0"/>
      <point x="123.9" y="12.8"/>
      <point x="123.9" y="-25.1" type="curve" smooth="yes"/>
      <point x="123.9" y="-61.0"/>
      <point x="99.80000000000001" y="-95.8"/>
      <point x="48.800000000000004" y="-115.4" type="curve"/>
    </contour>
  </outline>
</glyph>
<glyph name="hyphen" format="2">
  <advance width="265.2"/>
  <unicode hex="002D"/>
  <outline>
    <contour>
      <point x="21.2" y="236.3" type="line"/>
      <point x="243.7" y="236.3" type="line"/>
      <point x="243.7" y="308.7" type="line"/>
      <point x="21.2" y="308.7" type="line"/>
    </contour>
  </outline>
</glyph>
<glyph name="period" format="2">
  <advance width="234.60000000000002"/>
  <unicode hex="002E"/>
  <outline>
    <contour>
      <point x="125.9" y="-7.0" type="curve" smooth="yes"/>
      <point x="154.4" y="-7.0"/>
      <point x="179.3" y="8.3"/>
      <point x="179.3" y="56.2" type="curve" smooth="yes"/>
      <point x="179.3" y="103.8"/>
      <point x="154.4" y="119.1"/>
      <point x="125.9" y="119.1" type="curve" smooth="yes"/>
      <point x="95.7" y="119.1"/>
      <point x="71.5" y="103.8"/>
      <point x="71.5" y="56.2" type="curve" smooth="yes"/>
      <point x="71.5" y="8.3"/>
      <point x="95.7" y="-7.0"/>
    </contour>
  </outline>
</glyph>
<glyph name="slash" format="2">
  <advance width="246.0"/>
  <unicode hex="002F"/>
  <outline>
    <contour>
      <point x="0.0" y="-121.0" type="line"/>
      <point x="51.8" y="-120.3" type="line"/>
      <point x="246.0" y="760.0" type="line"/>
      <point x="195.9" y="760.0" type="line"/>
    </contour>
  </outline>
</glyph>
<glyph name="zero" format="2">
  <advance width="477.1"/>
  <unicode hex="0030"/>
  <outline>
    <contour>
      <point x="238.7" y="-10.0" type="curve" smooth="yes"/>
      <point x="377.5" y="-10.0"/>
      <point x="439.8" y="128.6"/>
      <point x="439.8" y="358.0" type="curve" smooth="yes"/>
      <point x="439.8" y="589.8"/>
      <point x="379.6" y="724.0"/>
      <point x="239.7" y="724.0" type="curve" smooth="yes"/>
      <point x="91.2" y="724.0"/>
      <point x="36.6" y="585.6"/>
      <point x="36.6" y="359.0" type="curve" smooth="yes"/>
      <point x="36.6" y="125.8"/>
      <point x="93.3" y="-10.0"/>
    </contour>
    <contour>
      <point x="238.7" y="41.2" type="curve" smooth="yes"/>
      <point x="157.8" y="41.2"/>
      <point x="131.5" y="157.9"/>
      <point x="131.5" y="358.0" type="curve" smooth="yes"/>
      <point x="131.5" y="558.1"/>
      <point x="157.8" y="672.8"/>
      <point x="239.7" y="672.8" type="curve" smooth="yes"/>
      <point x="319.6" y="672.8"/>
      <point x="346.3" y="558.1"/>
      <point x="346.3" y="358.0" type="curve" smooth="yes"/>
      <point x="346.3" y="157.9"/>
      <point x="319.6" y="41.2"/>
    </contour>
  </outline>
</glyph>
<glyph name="two" format="2">
  <advance width="477.1"/>
  <unicode hex="0032"/>
  <outline>
    <contour>
      <point x="44.2" y="0.0" type="line"/>
      <point x="423.8" y="0.0" type="line"/>
      <point x="427.4" y="170.9" type="line"/>
      <point x="387.5" y="170.9" type="line"/>
      <point x="383.5" y="152.2" type="line" smooth="yes"/>
      <point x="374.5" y="107.6"/>
      <point x="360.2" y="77.9"/>
      <point x="311.4" y="77.9" type="curve" smooth="yes"/>
      <point x="114.0" y="77.9" type="line"/>
      <point x="259.9" y="261.4" type="line" smooth="yes"/>
      <point x="349.5" y="369.7"/>
      <point x="407.3" y="452.8"/>
      <point x="407.3" y="554.9" type="curve" smooth="yes"/>
      <point x="407.3" y="655.9"/>
      <point x="339.4" y="724.0"/>
      <point x="226.7" y="724.0" type="curve" smooth="yes"/>
      <point x="111.7" y="724.0"/>
      <point x="53.1" y="666.3"/>
      <point x="53.1" y="593.5" type="curve" smooth="yes"/>
      <point x="53.1" y="543.2"/>
      <point x="90.4" y="528.5"/>
      <point x="131.4" y="528.5" type="curve"/>
      <point x="131.4" y="605.4"/>
      <point x="149.0" y="674.7"/>
      <point x="226.7" y="674.7" type="curve" smooth="yes"/>
      <point x="285.5" y="674.7"/>
      <point x="313.3" y="623.7"/>
      <point x="313.3" y="545.6" type="curve" smooth="yes"/>
      <point x="313.3" y="455.0"/>
      <point x="283.6" y="382.7"/>
      <point x="190.9" y="261.8" type="curve" smooth="yes"/>
      <point x="44.2" y="68.8" type="line"/>
    </contour>
  </outline>
</glyph>
<glyph name="seven" format="2">
  <advance width="477.1"/>
  <unicode hex="0037"/>
  <outline>
    <contour>
      <point x="151.5" y="0.0" type="line"/>
      <point x="217.4" y="0.0" type="line"/>
      <point x="435.4" y="686.4" type="line"/>
      <point x="435.4" y="714.0" type="line"/>
      <point x="51.4" y="714.0" type="line"/>
      <point x="46.4" y="535.1" type="line"/>
      <point x="88.4" y="535.1" type="line"/>
      <point x="92.4" y="583.0" type="line" smooth="yes"/>
      <point x="95.4" y="619.5"/>
      <point x="109.5" y="636.1"/>
      <point x="140.6" y="636.1" type="curve" smooth="yes"/>
      <point x="365.8" y="636.1" type="line"/>
    </contour>
  </outline>
</glyph>
<glyph name="colon" format="2">
  <advance width="233.9"/>
  <unicode hex="003A"/>
  <outline>
    <contour>
      <point x="125.2" y="408.7" type="curve" smooth="yes"/>
      <point x="153.7" y="408.7"/>
      <point x="178.6" y="423.3"/>
      <point x="178.6" y="470.9" type="curve" smooth="yes"/>
      <point x="178.6" y="518.8"/>
      <point x="153.7" y="533.1"/>
      <point x="125.2" y="533.1" type="curve" smooth="yes"/>
      <point x="95.0" y="533.1"/>
      <point x="71.5" y="518.8"/>
      <point x="71.5" y="470.9" type="curve" smooth="yes"/>
      <point x="71.5" y="423.3"/>
      <point x="95.0" y="408.7"/>
    </contour>
    <contour>
      <point x="125.2" y="-7.0" type="curve" smooth="yes"/>
      <point x="153.7" y="-7.0"/>
      <point x="178.6" y="8.3"/>
      <point x="178.6" y="56.2" type="curve" smooth="yes"/>
      <point x="178.6" y="103.8"/>
      <point x="153.7" y="119.1"/>
      <point x="125.2" y="119.1" type="curve" smooth="yes"/>
      <point x="95.0" y="119.1"/>
      <point x="71.5" y="103.8"/>
      <point x="71.5" y="56.2" type="curve" smooth="yes"/>
      <point x="71.5" y="8.3"/>
      <point x="95.0" y="-7.0"/>
    </contour>
  </outline>
</glyph>
<glyph name="semicolon" format="2">
  <advance width="246.9"/>
  <unicode hex="003B"/>
  <outline>
    <contour>
      <point x="48.800000000000004" y="-154.0" type="line"/>
      <point x="147.0" y="-121.4"/>
      <point x="184.0" y="-49.9"/>
      <point x="184.0" y="29.6" type="curve" smooth="yes"/>
      <point x="184.0" y="87.0"/>
      <point x="156.7" y="119.1"/>
      <point x="118.80000000000001" y="119.1" type="curve" smooth="yes"/>
      <point x="90.1" y="119.1"/>
      <point x="67.6" y="98.8"/>
      <point x="67.6" y="64.9" type="curve" smooth="yes"/>
      <point x="67.6" y="10.0"/>
      <point x="125.30000000000001" y="12.8"/>
      <point x="125.30000000000001" y="-25.1" type="curve"/>
      <point x="125.30000000000001" y="-61.7"/>
      <point x="100.9" y="-95.8"/>
      <point x="48.800000000000004" y="-115.4" type="curve"/>
    </contour>
    <contour>
      <point x="126.4" y="408.7" type="curve" smooth="yes"/>
      <point x="155.6" y="408.7"/>
      <point x="180.1" y="423.3"/>
      <point x="180.1" y="470.9" type="curve" smooth="yes"/>
      <point x="180.1" y="518.8"/>
      <point x="155.6" y="533.1"/>
      <point x="126.4" y="533.1" type="curve" smooth="yes"/>
      <point x="96.2" y="533.1"/>
      <point x="73.0" y="518.8"/>
      <point x="73.0" y="470.9" type="curve" smooth="yes"/>
      <point x="73.0" y="423.3"/>
      <point x="96.2" y="408.7"/>
    </contour>
  </outline>
</glyph>
<glyph name="less" format="2">
  <advance width="465.2"/>
  <unicode hex="003C"/>
  <outline>
    <contour>
      <point x="415.6" y="111.0" type="line"/>
      <point x="415.6" y="176.1" type="line"/>
      <point x="128.9" y="357.0" type="line"/>
      <point x="415.6" y="540.6" type="line"/>
      <point x="415.6" y="605.0" type="line"/>
      <point x="49.6" y="375.0" type="line"/>
      <point x="49.6" y="340.0" type="line"/>
    </contour>
  </outline>
</glyph>
<glyph name="equal" format="2">
  <advance width="465.2"/>
  <unicode hex="003D"/>
  <outline>
    <contour>
      <point x="49.6" y="424.5" type="line"/>
      <point x="415.6" y="424.5" type="line"/>
      <point x="415.6" y="481.9" type="line"/>
      <point x="49.6" y="481.9" type="line"/>
    </contour>
    <contour>
      <point x="49.6" y="231.8" type="line"/>
      <point x="415.6" y="231.8" type="line"/>
      <point x="415.6" y="289.5" type="line"/>
      <point x="49.6" y="289.5" type="line"/>
    </contour>
  </outline>
</glyph>
<glyph name="question" format="2">
  <advance width="431.5"/>
  <unicode hex="003F"/>
  <outline>
    <contour>
      <point x="170.0" y="206.6" type="line"/>
      <point x="218.4" y="206.6" type="line"/>
      <point x="225.4" y="320.3" type="line"/>
      <point x="332.6" y="370.6"/>
      <point x="387.2" y="435.1"/>
      <point x="387.2" y="545.8" type="curve" smooth="yes"/>
      <point x="387.2" y="659.1"/>
      <point x="312.4" y="724.0"/>
      <point x="200.4" y="724.0" type="curve" smooth="yes"/>
      <point x="90.3" y="724.0"/>
      <point x="33.7" y="674.6"/>
      <point x="33.7" y="612.0" type="curve" smooth="yes"/>
      <point x="33.7" y="569.0"/>
      <point x="65.2" y="551.2"/>
      <point x="111.1" y="551.2" type="curve"/>
      <point x="111.1" y="623.7"/>
      <point x="134.5" y="675.7"/>
      <point x="202.1" y="675.7" type="curve" smooth="yes"/>
      <point x="264.4" y="675.7"/>
      <point x="293.6" y="622.7"/>
      <point x="293.6" y="551.6" type="curve" smooth="yes"/>
      <point x="293.6" y="466.7"/>
      <point x="262.2" y="395.8"/>
      <point x="163.7" y="348.1" type="curve"/>
    </contour>
    <contour>
      <point x="193.4" y="-7.0" type="curve" smooth="yes"/>
      <point x="223.9" y="-7.0"/>
      <point x="249.4" y="8.6"/>
      <point x="249.4" y="56.8" type="curve" smooth="yes"/>
      <point x="249.4" y="105.3"/>
      <point x="223.9" y="120.6"/>
      <point x="193.4" y="120.6" type="curve" smooth="yes"/>
      <point x="163.3" y="120.6"/>
      <point x="139.5" y="105.3"/>
      <point x="139.5" y="56.8" type="curve" smooth="yes"/>
      <point x="139.5" y="8.6"/>
      <point x="163.3" y="-7.0"/>
    </contour>
  </outline>
</glyph>
<glyph name="bracketleft" format="2">
  <advance width="314.6"/>
  <unicode hex="005B"/>
  <outline>
    <contour>
      <point x="74.2" y="-128.0" type="line"/>
      <point x="270.9" y="-128.0" type="line"/>
      <point x="270.9" y="-87.3" type="line"/>
      <point x="233.0" y="-87.3" type="line" smooth="yes"/>
      <point x="195.0" y="-87.3"/>
      <point x="164.1" y="-78.3"/>
      <point x="164.1" y="-15.0" type="curve" smooth="yes"/>
      <point x="164.1" y="646.7" type="line" smooth="yes"/>
      <point x="164.1" y="710.3"/>
      <point x="195.0" y="719.3"/>
      <point x="233.0" y="719.3" type="curve" smooth="yes"/>
      <point x="270.9" y="719.3" type="line"/>
      <point x="270.9" y="760.0" type="line"/>
      <point x="74.2" y="760.0" type="line"/>
    </contour>
  </outline>
</glyph>
<glyph name="bracketright" format="2">
  <advance width="324.8"/>
  <unicode hex="005D"/>
  <outline>
    <contour>
      <point x="54.6" y="-128.0" type="line"/>
      <point x="250.3" y="-128.0" type="line"/>
      <point x="250.3" y="760.0" type="line"/>
      <point x="54.6" y="760.0" type="line"/>
      <point x="54.6" y="719.3" type="line"/>
      <point x="91.5" y="719.3" type="line" smooth="yes"/>
      <point x="130.5" y="719.3"/>
      <point x="160.7" y="710.3"/>
      <point x="160.7" y="646.7" type="curve" smooth="yes"/>
      <point x="160.7" y="-15.0" type="line" smooth="yes"/>
      <point x="160.7" y="-78.3"/>
      <point x="130.5" y="-87.3"/>
      <point x="91.5" y="-87.3" type="curve" smooth="yes"/>
      <point x="54.6" y="-87.3" type="line"/>
    </contour>
  </outline>
</glyph>
<glyph name="asciicircum" format="2">
  <advance width="464.5"/>
  <unicode hex="005E"/>
  <outline>
    <contour>
      <point x="36.3" y="267.0" type="line"/>
      <point x="94.0" y="267.0" type="line"/>
      <point x="231.1" y="625.2" type="line"/>
      <point x="369.5" y="267.0" type="line"/>
      <point x="427.6" y="267.0" type="line"/>
      <point x="246.7" y="714.0" type="line"/>
      <point x="216.5" y="714.0" type="line"/>
    </contour>
  </outline>
</glyph>
<glyph name="underscore" format="2">
  <advance width="391.1"/>
  <unicode hex="005F"/>
  <outline>
    <contour>
      <point x="-4.3" y="-141.1" type="line"/>
      <point x="395.4" y="-141.1" type="line"/>
      <point x="395.4" y="-83.0" type="line"/>
      <point x="-4.3" y="-83.0" type="line"/>
    </contour>
  </outline>
</glyph>
<glyph name="braceleft" format="2">
  <advance width="364.4"/>
  <unicode hex="007B"/>
  <outline>
    <contour>
      <point x="257.3" y="-128.0" type="curve" smooth="yes"/>
      <point x="316.5" y="-128.0" type="line"/>
      <point x="316.5" y="-86.3" type="line"/>
      <point x="290.0" y="-86.3" type="line" smooth="yes"/>
      <point x="240.1" y="-86.3"/>
      <point x="221.3" y="-49.3"/>
      <point x="221.3" y="19.0" type="curve" smooth="yes"/>
      <point x="221.3" y="192.0" type="line" smooth="yes"/>
      <point x="221.3" y="259.0"/>
      <point x="191.2" y="305.0"/>
      <point x="127.7" y="317.0" type="curve"/>
      <point x="127.7" y="318.0" type="line"/>
      <point x="190.6" y="329.3"/>
      <point x="221.3" y="375.0"/>
      <point x="221.3" y="441.0" type="curve" smooth="yes"/>
      <point x="221.3" y="612.3" type="line" smooth="yes"/>
      <point x="221.3" y="682.3"/>
      <point x="240.1" y="718.3"/>
      <point x="290.3" y="718.3" type="curve" smooth="yes"/>
      <point x="316.5" y="718.3" type="line"/>
      <point x="316.5" y="760.0" type="line"/>
      <point x="257.3" y="760.0" type="line" smooth="yes"/>
      <point x="175.1" y="760.0"/>
      <point x="131.0" y="708.0"/>
      <point x="131.0" y="617.3" type="curve" smooth="yes"/>
      <point x="131.0" y="443.0" type="line" smooth="yes"/>
      <point x="131.0" y="361.7"/>
      <point x="87.4" y="338.7"/>
      <point x="30.5" y="336.7" type="curve"/>
      <point x="30.5" y="297.0" type="line"/>
      <point x="87.4" y="294.0"/>
      <point x="131.0" y="272.0"/>
      <point x="131.0" y="189.0" type="curve" smooth="yes"/>
      <point x="131.0" y="15.7" type="line" smooth="yes"/>
      <point x="131.0" y="-72.7"/>
      <point x="175.1" y="-128.0"/>
    </contour>
  </outline>
</glyph>
<glyph name="braceright" format="2">
  <advance width="374.6"/>
  <unicode hex="007D"/>
  <outline>
    <contour>
      <point x="58.1" y="-128.0" type="line"/>
      <point x="118.30000000000001" y="-128.0" type="line" smooth="yes"/>
      <point x="200.5" y="-128.0"/>
      <point x="243.60000000000002" y="-72.7"/>
      <point x="243.60000000000002" y="15.7" type="curve" smooth="yes"/>
      <point x="243.60000000000002" y="189.0" type="line" smooth="yes"/>
      <point x="243.60000000000002" y="272.0"/>
      <point x="288.9" y="294.0"/>
      <point x="344.4" y="297.0" type="curve"/>
      <point x="344.4" y="336.7" type="line"/>
      <point x="288.9" y="338.7"/>
      <point x="243.60000000000002" y="361.7"/>
      <point x="243.60000000000002" y="443.0" type="curve" smooth="yes"/>
      <point x="243.60000000000002" y="617.3" type="line" smooth="yes"/>
      <point x="243.60000000000002" y="708.0"/>
      <point x="200.5" y="760.0"/>
      <point x="118.30000000000001" y="760.0" type="curve" smooth="yes"/>
      <point x="58.1" y="760.0" type="line"/>
      <point x="58.1" y="718.3" type="line"/>
      <point x="85.30000000000001" y="718.3" type="line" smooth="yes"/>
      <point x="136.2" y="718.3"/>
      <point x="153.60000000000002" y="682.3"/>
      <point x="153.60000000000002" y="612.3" type="curve" smooth="yes"/>
      <point x="153.60000000000002" y="441.0" type="line" smooth="yes"/>
      <point x="153.60000000000002" y="375.0"/>
      <point x="185.0" y="329.3"/>
      <point x="248.60000000000002" y="318.0" type="curve"/>
      <point x="248.60000000000002" y="317.0" type="line"/>
      <point x="182.7" y="305.0"/>
      <point x="153.60000000000002" y="259.0"/>
      <point x="153.60000000000002" y="192.0" type="curve" smooth="yes"/>
      <point x="153.60000000000002" y="19.0" type="line" smooth="yes"/>
      <point x="153.60000000000002" y="-49.3"/>
      <point x="136.2" y="-86.3"/>
      <point x="85.6" y="-86.3" type="curve" smooth="yes"/>
      <point x="58.1" y="-86.3" type="line"/>
    </contour>
  </outline>
</glyph>
<glyph name="asciitilde" format="2">
  <advance width="465.2"/>
  <unicode hex="007E"/>
  <outline>
    <contour>
      <point x="37.5" y="270.0" type="curve"/>
      <point x="91.4" y="270.0" type="line"/>
      <point x="98.7" y="350.4"/>
      <point x="112.9" y="388.4"/>
      <point x="146.3" y="388.4" type="curve" smooth="yes"/>
      <point x="170.9" y="388.4"/>
      <point x="188.9" y="367.6"/>
      <point x="218.5" y="334.4" type="curve" smooth="yes"/>
      <point x="262.5" y="284.0"/>
      <point x="289.1" y="270.0"/>
      <point x="323.9" y="270.0" type="curve" smooth="yes"/>
      <point x="401.5" y="270.0"/>
      <point x="422.9" y="365.9"/>
      <point x="429.5" y="443.7" type="curve"/>
      <point x="374.6" y="443.7" type="line"/>
      <point x="367.4" y="365.1"/>
      <point x="354.8" y="325.3"/>
      <point x="322.1" y="325.3" type="curve" smooth="yes"/>
      <point x="298.3" y="325.3"/>
      <point x="280.7" y="346.5"/>
      <point x="251.7" y="377.7" type="curve" smooth="yes"/>
      <point x="212.0" y="418.3"/>
      <point x="184.9" y="443.7"/>
      <point x="144.2" y="443.7" type="curve" smooth="yes"/>
      <point x="63.8" y="443.7"/>
      <point x="44.1" y="351.6"/>
    </contour>
  </outline>
</glyph>
<glyph name="multiply" format="2">
  <advance width="464.9"/>
  <unicode hex="00D7"/>
  <outline>
    <contour>
      <point x="93.9" y="150.4" type="line"/>
      <point x="234.2" y="315.2" type="line"/>
      <point x="374.5" y="150.4" type="line"/>
      <point x="416.6" y="186.9" type="line"/>
      <point x="271.4" y="358.0" type="line"/>
      <point x="416.6" y="528.4" type="line"/>
      <point x="374.5" y="564.9" type="line"/>
      <point x="234.2" y="401.2" type="line"/>
      <point x="94.6" y="565.3" type="line"/>
      <point x="51.8" y="529.1" type="line"/>
      <point x="197.7" y="358.3" type="line"/>
      <point x="51.8" y="186.5" type="line"/>
    </contour>
  </outline>
</glyph>
<glyph name="divide" format="2">
  <advance width="465.2"/>
  <unicode hex="00F7"/>
  <outline>
    <contour>
      <point x="49.6" y="329.3" type="line"/>
      <point x="415.6" y="329.3" type="line"/>
      <point x="415.6" y="386.0" type="line"/>
      <point x="49.6" y="386.0" type="line"/>
    </contour>
    <contour>
      <point x="233.1" y="114.6" type="curve" smooth="yes"/>
      <point x="258.3" y="114.6"/>
      <point x="278.2" y="128.6"/>
      <point x="278.2" y="168.6" type="curve" smooth="yes"/>
      <point x="278.2" y="209.6"/>
      <point x="258.3" y="222.6"/>
      <point x="233.1" y="222.6" type="curve" smooth="yes"/>
      <point x="206.9" y="222.6"/>
      <point x="187.3" y="209.6"/>
      <point x="187.3" y="168.6" type="curve" smooth="yes"/>
      <point x="187.3" y="128.6"/>
      <point x="206.9" y="114.6"/>
    </contour>
    <contour>
      <point x="233.1" y="492.7" type="curve" smooth="yes"/>
      <point x="258.3" y="492.7"/>
      <point x="278.2" y="506.4"/>
      <point x="278.2" y="546.4" type="curve" smooth="yes"/>
      <point x="278.2" y="587.4"/>
      <point x="258.3" y="600.4"/>
      <point x="233.1" y="600.4" type="curve" smooth="yes"/>
      <point x="206.9" y="600.4"/>
      <point x="187.3" y="587.4"/>
      <point x="187.3" y="546.4" type="curve" smooth="yes"/>
      <point x="187.3" y="506.4"/>
      <point x="206.9" y="492.7"/>
    </contour>
  </outline>
</glyph>
<glyph name="anudatta-deva" format="2">
  <unicode hex="0952"/>
  <anchor x="-299.0" y="377.0" name="_vedic"/>
  <outline>
    <contour>
      <point x="-478.1" y="-144.0" type="line"/>
      <point x="-118.9" y="-144.0" type="line"/>
      <point x="-118.9" y="-92.0" type="line"/>
      <point x="-478.1" y="-92.0" type="line"/>
    </contour>
  </outline>
</glyph>
<glyph name="danda-deva" format="2">
  <advance width="373.0"/>
  <unicode hex="0964"/>
  <outline>
    <contour>
      <point x="301.0" y="-23.0" type="line"/>
      <point x="304.0" y="-22.0" type="line"/>
      <point x="304.0" y="585.0" type="line"/>
      <point x="253.0" y="622.0" type="line"/>
      <point x="250.0" y="622.0" type="line"/>
      <point x="250.0" y="5.0" type="line"/>
    </contour>
  </outline>
</glyph>
<glyph name="dbldanda-deva" format="2">
  <advance width="511.7"/>
  <unicode hex="0965"/>
  <outline>
    <contour>
      <point x="439.7" y="-23.0" type="line"/>
      <point x="442.7" y="-22.0" type="line"/>
      <point x="442.7" y="585.0" type="line"/>
      <point x="391.7" y="622.0" type="line"/>
      <point x="388.7" y="622.0" type="line"/>
      <point x="388.7" y="5.0" type="line"/>
    </contour>
    <contour>
      <point x="301.0" y="-23.0" type="line"/>
      <point x="304.0" y="-22.0" type="line"/>
      <point x="304.0" y="585.0" type="line"/>
      <point x="253.0" y="622.0" type="line"/>
      <point x="250.0" y="622.0" type="line"/>
      <point x="250.0" y="5.0" type="line"/>
    </contour>
  </outline>
</glyph>
<glyph name="anji-beng" format="2">
  <advance width="447.4"/>
  <unicode hex="0980"/>
  <anchor x="241.9" y="570.0" name="top"/>
  <outline>
    <contour>
      <point x="368.5" y="0.0" type="curve" smooth="yes"/>
      <point x="407.0" y="0.0"/>
      <point x="426.3" y="26.7"/>
      <point x="426.3" y="62.7" type="curve" smooth="yes"/>
      <point x="426.3" y="98.6"/>
      <point x="402.7" y="124.9"/>
      <point x="369.6" y="124.9" type="curve" smooth="yes"/>
      <point x="338.8" y="124.9"/>
      <point x="326.5" y="104.9"/>
      <point x="323.9" y="76.9" type="curve"/>
      <point x="345.6" y="76.9" type="line"/>
      <point x="345.6" y="484.2" type="line" smooth="yes"/>
      <point x="345.6" y="558.5"/>
      <point x="304.8" y="622.0"/>
      <point x="221.5" y="622.0" type="curve" smooth="yes"/>
      <point x="123.9" y="622.0"/>
      <point x="48.2" y="537.0"/>
      <point x="48.2" y="425.6" type="curve" smooth="yes"/>
      <point x="48.2" y="309.3"/>
      <point x="119.0" y="253.5"/>
      <point x="184.7" y="253.5" type="curve" smooth="yes"/>
      <point x="234.8" y="253.5"/>
      <point x="262.4" y="284.1"/>
      <point x="262.4" y="330.0" type="curve" smooth="yes"/>
      <point x="262.4" y="378.8"/>
      <point x="233.9" y="403.8"/>
      <point x="198.4" y="403.8" type="curve" smooth="yes"/>
      <point x="163.3" y="403.8"/>
      <point x="137.9" y="378.5"/>
      <point x="137.9" y="337.3" type="curve" smooth="yes"/>
      <point x="137.9" y="326.3"/>
      <point x="140.6" y="311.3"/>
      <point x="143.9" y="304.7" type="curve"/>
      <point x="179.1" y="324.3" type="line"/>
      <point x="170.5" y="320.3"/>
      <point x="161.9" y="319.3"/>
      <point x="153.3" y="319.3" type="curve" smooth="yes"/>
      <point x="124.3" y="319.3"/>
      <point x="105.8" y="352.9"/>
      <point x="105.8" y="401.4" type="curve" smooth="yes"/>
      <point x="105.8" y="484.1"/>
      <point x="185.3" y="560.4"/>
      <point x="242.6" y="560.4" type="curve" smooth="yes"/>
      <point x="278.8" y="560.4"/>
      <point x="293.7" y="537.3"/>
      <point x="293.7" y="496.8" type="curve" smooth="yes"/>
      <point x="293.7" y="98.5" type="line" smooth="yes"/>
      <point x="293.7" y="40.6"/>
      <point x="322.6" y="0.0"/>
    </contour>
  </outline>
</glyph>
<glyph name="candrabindu-beng" format="2">
  <unicode hex="0981"/>
  <anchor x="0.0" y="622.0" name="_top"/>
  <outline>
    <contour>
      <point x="-17.0" y="725.0" type="curve" smooth="yes"/>
      <point x="61.7" y="725.0"/>
      <point x="95.1" y="789.0"/>
      <point x="107.8" y="881.1" type="curve"/>
      <point x="75.9" y="891.9" type="line"/>
      <point x="64.1" y="844.0"/>
      <point x="43.5" y="796.0"/>
      <point x="-19.3" y="796.0" type="curve" smooth="yes"/>
      <point x="-77.2" y="796.0"/>
      <point x="-101.1" y="844.0"/>
      <point x="-117.4" y="891.9" type="curve"/>
      <point x="-149.0" y="881.1" type="line"/>
      <point x="-133.4" y="789.0"/>
      <point x="-96.1" y="725.0"/>
    </contour>
    <contour>
      <point x="-19.3" y="841.0" type="curve" smooth="yes"/>
      <point x="6.0" y="841.0"/>
      <point x="23.1" y="859.1"/>
      <point x="23.1" y="889.0" type="curve" smooth="yes"/>
      <point x="23.1" y="918.7"/>
      <point x="6.0" y="938.0"/>
      <point x="-19.3" y="938.0" type="curve" smooth="yes"/>
      <point x="-45.9" y="938.0"/>
      <point x="-64.0" y="918.7"/>
      <point x="-64.0" y="889.0" type="curve" smooth="yes"/>
      <point x="-64.0" y="859.1"/>
      <point x="-45.6" y="841.0"/>
    </contour>
  </outline>
</glyph>
<glyph name="anusvara-beng" format="2">
  <advance width="308.7"/>
  <unicode hex="0982"/>
  <anchor x="-175.1" y="0.0" name="vedic"/>
  <outline>
    <contour>
      <point x="148.9" y="365.0" type="curve" smooth="yes"/>
      <point x="214.3" y="365.0"/>
      <point x="261.2" y="419.7"/>
      <point x="261.2" y="497.0" type="curve" smooth="yes"/>
      <point x="261.2" y="567.0"/>
      <point x="223.0" y="623.0"/>
      <point x="156.5" y="623.0" type="curve" smooth="yes"/>
      <point x="92.8" y="623.0"/>
      <point x="46.900000000000006" y="568.0"/>
      <point x="46.900000000000006" y="492.0" type="curve" smooth="yes"/>
      <point x="46.900000000000006" y="421.9"/>
      <point x="85.6" y="365.0"/>
    </contour>
    <contour>
      <point x="131.5" y="414.0" type="curve" smooth="yes"/>
      <point x="113.3" y="414.0"/>
      <point x="98.5" y="430.0"/>
      <point x="98.5" y="458.3" type="curve" smooth="yes"/>
      <point x="98.5" y="510.3"/>
      <point x="138.4" y="569.0"/>
      <point x="181.0" y="569.0" type="curve" smooth="yes"/>
      <point x="200.4" y="569.0"/>
      <point x="210.9" y="550.3"/>
      <point x="210.9" y="531.0" type="curve" smooth="yes"/>
      <point x="210.9" y="480.7"/>
      <point x="171.4" y="414.0"/>
    </contour>
    <contour>
      <point x="265.0" y="-38.0" type="curve"/>
      <point x="293.4" y="-23.0" type="line"/>
      <point x="246.8" y="103.3"/>
      <point x="176.2" y="237.9"/>
      <point x="97.4" y="317.9" type="curve"/>
      <point x="46.0" y="233.0" type="line"/>
      <point x="125.7" y="169.0"/>
      <point x="186.5" y="102.4"/>
    </contour>
  </outline>
</glyph>
<glyph name="visarga-beng" format="2">
  <advance width="308.1"/>
  <unicode hex="0983"/>
  <anchor x="-175.1" y="0.0" name="vedic"/>
  <outline>
    <contour>
      <point x="148.9" y="365.0" type="curve" smooth="yes"/>
      <point x="214.3" y="365.0"/>
      <point x="261.2" y="419.7"/>
      <point x="261.2" y="497.0" type="curve" smooth="yes"/>
      <point x="261.2" y="567.0"/>
      <point x="223.0" y="623.0"/>
      <point x="156.5" y="623.0" type="curve" smooth="yes"/>
      <point x="92.8" y="623.0"/>
      <point x="46.900000000000006" y="568.0"/>
      <point x="46.900000000000006" y="492.0" type="curve" smooth="yes"/>
      <point x="46.900000000000006" y="421.9"/>
      <point x="85.6" y="365.0"/>
    </contour>
    <contour>
      <point x="131.5" y="414.0" type="curve" smooth="yes"/>
      <point x="113.3" y="414.0"/>
      <point x="98.5" y="430.0"/>
      <point x="98.5" y="458.3" type="curve" smooth="yes"/>
      <point x="98.5" y="510.3"/>
      <point x="138.4" y="569.0"/>
      <point x="181.0" y="569.0" type="curve" smooth="yes"/>
      <point x="200.4" y="569.0"/>
      <point x="210.9" y="550.3"/>
      <point x="210.9" y="531.0" type="curve" smooth="yes"/>
      <point x="210.9" y="480.7"/>
      <point x="171.4" y="414.0"/>
    </contour>
    <contour>
      <point x="148.9" y="9.3" type="curve" smooth="yes"/>
      <point x="214.3" y="9.3"/>
      <point x="261.2" y="64.0"/>
      <point x="261.2" y="141.0" type="curve" smooth="yes"/>
      <point x="261.2" y="211.3"/>
      <point x="223.0" y="267.0"/>
      <point x="156.5" y="267.0" type="curve" smooth="yes"/>
      <point x="92.8" y="267.0"/>
      <point x="46.900000000000006" y="212.3"/>
      <point x="46.900000000000006" y="136.0" type="curve" smooth="yes"/>
      <point x="46.900000000000006" y="66.2"/>
      <point x="85.6" y="9.3"/>
    </contour>
    <contour>
      <point x="131.5" y="58.0" type="curve" smooth="yes"/>
      <point x="113.3" y="58.0"/>
      <point x="98.5" y="74.0"/>
      <point x="98.5" y="102.3" type="curve" smooth="yes"/>
      <point x="98.5" y="154.6"/>
      <point x="138.4" y="213.0"/>
      <point x="181.0" y="213.0" type="curve" smooth="yes"/>
      <point x="200.4" y="213.0"/>
      <point x="210.9" y="194.3"/>
      <point x="210.9" y="175.3" type="curve" smooth="yes"/>
      <point x="210.9" y="125.0"/>
      <point x="171.4" y="58.0"/>
    </contour>
  </outline>
</glyph>
<glyph name="a-beng" format="2">
  <advance width="628.5"/>
  <unicode hex="0985"/>
  <anchor x="559.0" y="0.0" name="bottom"/>
  <anchor x="559.0" y="70.0" name="bottom.rakaar"/>
  <anchor x="559.0" y="12.0" name="bottom.rvocalic"/>
  <anchor x="543.2" y="6.0" name="bottom.virama"/>
  <anchor x="559.0" y="570.0" name="top"/>
  <anchor x="559.0" y="570.0" name="topright"/>
  <anchor x="313.9" y="0.0" name="vedic"/>
  <outline>
    <contour>
      <point x="551.9" y="-13.0" type="line"/>
      <point x="557.6" y="-12.0" type="line"/>
      <point x="557.6" y="570.0" type="line"/>
      <point x="654.7" y="570.0" type="line"/>
      <point x="624.9" y="622.0" type="line"/>
      <point x="-26.2" y="622.0" type="line"/>
      <point x="2.6" y="570.0" type="line"/>
      <point x="505.7" y="570.0" type="line"/>
      <point x="505.7" y="75.9" type="line"/>
      <point x="516.9" y="77.9" type="line"/>
      <point x="490.3" y="155.7"/>
      <point x="447.6" y="210.5"/>
      <point x="398.2" y="248.7" type="curve"/>
      <point x="374.4" y="189.5" type="line"/>
      <point x="432.4" y="152.1"/>
      <point x="477.3" y="96.9"/>
      <point x="511.9" y="19.1" type="curve"/>
    </contour>
    <contour>
      <point x="270.6" y="96.5" type="curve" smooth="yes"/>
      <point x="380.9" y="96.5"/>
      <point x="432.0" y="194.7"/>
      <point x="432.0" y="303.0" type="curve" smooth="yes"/>
      <point x="432.0" y="413.8"/>
      <point x="374.2" y="510.0"/>
      <point x="265.2" y="510.0" type="curve" smooth="yes"/>
      <point x="203.3" y="510.0"/>
      <point x="156.3" y="475.3"/>
      <point x="156.3" y="407.0" type="curve" smooth="yes"/>
      <point x="156.3" y="347.0"/>
      <point x="193.3" y="312.0"/>
      <point x="241.4" y="312.0" type="curve" smooth="yes"/>
      <point x="293.5" y="312.0"/>
      <point x="319.5" y="355.7"/>
      <point x="319.5" y="413.0" type="curve" smooth="yes"/>
      <point x="319.5" y="482.0"/>
      <point x="282.2" y="544.0"/>
      <point x="249.8" y="577.0" type="curve"/>
      <point x="145.7" y="575.0" type="line"/>
      <point x="235.1" y="544.0"/>
      <point x="264.8" y="496.0"/>
      <point x="273.0" y="415.0" type="curve"/>
      <point x="287.4" y="424.0"/>
      <point x="298.1" y="427.0"/>
      <point x="314.0" y="427.0" type="curve" smooth="yes"/>
      <point x="345.7" y="427.0"/>
      <point x="382.4" y="395.5"/>
      <point x="383.9" y="315.0" type="curve" smooth="yes"/>
      <point x="385.4" y="231.0"/>
      <point x="340.6" y="188.5"/>
      <point x="268.6" y="188.5" type="curve" smooth="yes"/>
      <point x="165.0" y="188.5"/>
      <point x="93.0" y="265.8"/>
      <point x="50.6" y="497.6" type="curve"/>
      <point x="11.4" y="488.1" type="line"/>
      <point x="57.300000000000004" y="199.7"/>
      <point x="151.7" y="96.5"/>
    </contour>
  </outline>
</glyph>
<glyph name="aa-beng" format="2">
  <advance width="802.7"/>
  <unicode hex="0986"/>
  <anchor x="559.0" y="0.0" name="bottom"/>
  <anchor x="559.0" y="70.0" name="bottom.rakaar"/>
  <anchor x="559.0" y="12.0" name="bottom.rvocalic"/>
  <anchor x="543.2" y="6.0" name="bottom.virama"/>
  <anchor x="733.9" y="570.0" name="top"/>
  <anchor x="733.9" y="542.0" name="topright"/>
  <anchor x="401.2" y="0.0" name="vedic"/>
  <outline>
    <contour>
      <point x="551.9" y="-13.0" type="line"/>
      <point x="557.6" y="-12.0" type="line"/>
      <point x="557.6" y="570.0" type="line"/>
      <point x="619.6" y="570.0" type="line"/>
      <point x="589.8" y="622.0" type="line"/>
      <point x="-26.2" y="622.0" type="line"/>
      <point x="2.6" y="570.0" type="line"/>
      <point x="505.7" y="570.0" type="line"/>
      <point x="505.7" y="75.9" type="line"/>
      <point x="516.9" y="77.9" type="line"/>
      <point x="490.3" y="155.7"/>
      <point x="447.6" y="210.5"/>
      <point x="398.2" y="248.7" type="curve"/>
      <point x="374.4" y="189.5" type="line"/>
      <point x="432.4" y="152.1"/>
      <point x="477.3" y="96.9"/>
      <point x="511.9" y="19.1" type="curve"/>
    </contour>
    <contour>
      <point x="270.6" y="96.5" type="curve" smooth="yes"/>
      <point x="380.9" y="96.5"/>
      <point x="432.0" y="194.7"/>
      <point x="432.0" y="303.0" type="curve" smooth="yes"/>
      <point x="432.0" y="413.8"/>
      <point x="374.2" y="510.0"/>
      <point x="265.2" y="510.0" type="curve" smooth="yes"/>
      <point x="203.3" y="510.0"/>
      <point x="156.3" y="475.3"/>
      <point x="156.3" y="407.0" type="curve" smooth="yes"/>
      <point x="156.3" y="347.0"/>
      <point x="193.3" y="312.0"/>
      <point x="241.4" y="312.0" type="curve" smooth="yes"/>
      <point x="293.5" y="312.0"/>
      <point x="319.5" y="355.7"/>
      <point x="319.5" y="413.0" type="curve" smooth="yes"/>
      <point x="319.5" y="482.0"/>
      <point x="282.2" y="544.0"/>
      <point x="249.8" y="577.0" type="curve"/>
      <point x="145.7" y="575.0" type="line"/>
      <point x="235.1" y="544.0"/>
      <point x="264.8" y="496.0"/>
      <point x="273.0" y="415.0" type="curve"/>
      <point x="287.4" y="424.0"/>
      <point x="298.1" y="427.0"/>
      <point x="314.0" y="427.0" type="curve" smooth="yes"/>
      <point x="345.7" y="427.0"/>
      <point x="383.9" y="395.5"/>
      <point x="383.9" y="315.0" type="curve" smooth="yes"/>
      <point x="383.9" y="230.7"/>
      <point x="340.3" y="188.5"/>
      <point x="268.6" y="188.5" type="curve" smooth="yes"/>
      <point x="165.0" y="188.5"/>
      <point x="93.0" y="265.8"/>
      <point x="50.6" y="497.6" type="curve"/>
      <point x="11.4" y="488.1" type="line"/>
      <point x="57.300000000000004" y="199.7"/>
      <point x="151.7" y="96.5"/>
    </contour>
    <contour>
      <point x="728.1" y="-25.0" type="line"/>
      <point x="731.8" y="-24.0" type="line"/>
      <point x="731.8" y="570.0" type="line"/>
      <point x="828.9" y="570.0" type="line"/>
      <point x="798.8" y="622.0" type="line"/>
      <point x="729.7" y="622.0" type="line"/>
      <point x="725.0" y="665.0" type="line"/>
      <point x="683.9" y="698.0" type="line"/>
      <point x="679.9" y="697.0" type="line"/>
      <point x="679.9" y="632.0" type="line" smooth="yes"/>
      <point x="679.9" y="611.2"/>
      <point x="683.2" y="563.2"/>
      <point x="687.9" y="521.8" type="curve"/>
      <point x="692.5" y="523.4" type="line"/>
      <point x="682.1" y="593.3"/>
      <point x="643.6" y="622.0"/>
      <point x="613.8" y="622.0" type="curve" smooth="yes"/>
      <point x="576.8" y="622.0" type="line"/>
      <point x="606.3" y="570.0" type="line"/>
      <point x="618.6" y="570.0" type="line" smooth="yes"/>
      <point x="647.8" y="570.0"/>
      <point x="672.4" y="526.0"/>
      <point x="679.9" y="472.0" type="curve"/>
      <point x="679.9" y="3.0" type="line"/>
    </contour>
  </outline>
</glyph>
<glyph name="i-beng" format="2">
  <advance width="389.7"/>
  <unicode hex="0987"/>
  <anchor x="223.7" y="89.3" name="bottom"/>
  <anchor x="321.3" y="-60.4" name="bottom.rakaar"/>
  <anchor x="274.5" y="90.0" name="bottom.rvocalic"/>
  <anchor x="209.0" y="90.0" name="bottom.virama"/>
  <anchor x="235.5" y="617.0" name="top"/>
  <anchor x="188.2" y="622.7" name="topright"/>
  <anchor x="194.5" y="0.0" name="vedic"/>
  <outline>
    <contour>
      <point x="288.7" y="612.0" type="curve"/>
      <point x="329.6" y="612.0" type="line"/>
      <point x="325.7" y="738.3"/>
      <point x="287.3" y="800.8"/>
      <point x="208.3" y="800.8" type="curve" smooth="yes"/>
      <point x="171.3" y="800.8"/>
      <point x="143.8" y="791.2"/>
      <point x="101.8" y="791.2" type="curve" smooth="yes"/>
      <point x="50.8" y="791.2"/>
      <point x="21.9" y="806.3"/>
      <point x="21.9" y="875.2" type="curve" smooth="yes"/>
      <point x="21.9" y="888.0"/>
      <point x="22.9" y="902.8"/>
      <point x="24.6" y="912.3" type="curve"/>
      <point x="-13.200000000000001" y="916.3" type="line"/>
      <point x="-15.9" y="896.9"/>
      <point x="-16.9" y="875.8"/>
      <point x="-16.9" y="859.9" type="curve" smooth="yes"/>
      <point x="-16.9" y="762.4"/>
      <point x="20.9" y="710.8"/>
      <point x="101.8" y="710.8" type="curve" smooth="yes"/>
      <point x="154.5" y="710.8"/>
      <point x="182.8" y="721.4"/>
      <point x="219.1" y="721.4" type="curve" smooth="yes"/>
      <point x="261.7" y="721.4"/>
      <point x="287.1" y="687.7"/>
    </contour>
    <component base="ha-beng"/>
  </outline>
</glyph>
<glyph name="ii-beng" format="2">
  <advance width="528.5"/>
  <unicode hex="0988"/>
  <anchor x="458.6" y="-12.0" name="bottom"/>
  <anchor x="459.6" y="70.0" name="bottom.rakaar"/>
  <anchor x="442.0" y="17.0" name="bottom.rvocalic"/>
  <anchor x="443.9" y="0.0" name="bottom.virama"/>
  <anchor x="317.3" y="617.0" name="top"/>
  <anchor x="277.1" y="622.0" name="topright"/>
  <anchor x="264.1" y="0.0" name="vedic"/>
  <outline>
    <contour>
      <point x="425.3" y="-9.8" type="curve"/>
      <point x="463.6" y="4.0" type="line"/>
      <point x="444.5" y="64.0"/>
      <point x="434.9" y="123.1"/>
      <point x="434.9" y="183.1" type="curve" smooth="yes"/>
      <point x="434.9" y="264.4"/>
      <point x="453.0" y="344.0"/>
      <point x="492.0" y="418.0" type="curve"/>
      <point x="408.8" y="486.2" type="line"/>
      <point x="339.1" y="421.9"/>
      <point x="305.5" y="361.5"/>
      <point x="270.7" y="289.6" type="curve"/>
      <point x="296.1" y="304.7" type="line"/>
      <point x="298.8" y="317.1"/>
      <point x="299.8" y="335.4"/>
      <point x="299.8" y="345.7" type="curve" smooth="yes"/>
      <point x="299.8" y="432.0"/>
      <point x="259.0" y="508.0"/>
      <point x="149.8" y="508.0" type="curve" smooth="yes"/>
      <point x="81.0" y="508.0"/>
      <point x="45.6" y="475.0"/>
      <point x="45.6" y="421.0" type="curve" smooth="yes"/>
      <point x="45.6" y="374.0"/>
      <point x="72.8" y="342.0"/>
      <point x="116.8" y="342.0" type="curve" smooth="yes"/>
      <point x="162.9" y="342.0"/>
      <point x="189.5" y="376.6"/>
      <point x="189.5" y="433.6" type="curve" smooth="yes"/>
      <point x="189.5" y="476.6"/>
      <point x="160.8" y="544.0"/>
      <point x="131.9" y="577.0" type="curve"/>
      <point x="40.1" y="577.0" type="line"/>
      <point x="80.7" y="559.0"/>
      <point x="122.2" y="521.0"/>
      <point x="138.7" y="468.0" type="curve"/>
      <point x="103.2" y="409.0" type="line"/>
      <point x="129.6" y="428.0"/>
      <point x="152.2" y="438.0"/>
      <point x="181.3" y="438.0" type="curve" smooth="yes"/>
      <point x="234.8" y="438.0"/>
      <point x="255.2" y="397.8"/>
      <point x="255.2" y="344.9" type="curve" smooth="yes"/>
      <point x="255.2" y="311.9"/>
      <point x="247.1" y="270.0"/>
      <point x="231.0" y="239.7" type="curve" smooth="yes"/>
      <point x="211.1" y="202.6"/>
      <point x="187.6" y="187.8"/>
      <point x="158.8" y="187.8" type="curve" smooth="yes"/>
      <point x="130.8" y="187.8"/>
      <point x="103.9" y="209.4"/>
      <point x="81.8" y="260.3" type="curve"/>
      <point x="48.6" y="245.0" type="line"/>
      <point x="85.6" y="141.0"/>
      <point x="129.8" y="107.0"/>
      <point x="177.2" y="107.0" type="curve" smooth="yes"/>
      <point x="230.4" y="107.0"/>
      <point x="263.9" y="143.6"/>
      <point x="303.6" y="213.6" type="curve" smooth="yes"/>
      <point x="343.5" y="281.7"/>
      <point x="368.0" y="328.7"/>
      <point x="429.0" y="404.9" type="curve"/>
      <point x="416.4" y="417.0" type="line"/>
      <point x="392.3" y="355.0"/>
      <point x="380.4" y="288.1"/>
      <point x="380.4" y="220.5" type="curve" smooth="yes"/>
      <point x="380.4" y="141.0"/>
      <point x="397.3" y="64.4"/>
    </contour>
    <contour>
      <point x="2.6" y="570.0" type="line"/>
      <point x="554.7" y="570.0" type="line"/>
      <point x="525.6" y="622.0" type="line"/>
      <point x="-26.2" y="622.0" type="line"/>
    </contour>
    <contour>
      <point x="408.7" y="612.0" type="curve"/>
      <point x="449.2" y="612.0" type="line"/>
      <point x="438.7" y="739.0"/>
      <point x="402.2" y="805.0"/>
      <point x="308.4" y="805.0" type="curve" smooth="yes"/>
      <point x="264.6" y="805.0"/>
      <point x="229.6" y="796.0"/>
      <point x="179.0" y="796.0" type="curve" smooth="yes"/>
      <point x="110.6" y="796.0"/>
      <point x="79.7" y="809.0"/>
      <point x="79.7" y="888.0" type="curve" smooth="yes"/>
      <point x="79.7" y="893.6"/>
      <point x="79.7" y="902.6"/>
      <point x="81.4" y="913.0" type="curve"/>
      <point x="45.3" y="917.0" type="line"/>
      <point x="42.3" y="899.0"/>
      <point x="40.6" y="883.7"/>
      <point x="40.6" y="867.0" type="curve" smooth="yes"/>
      <point x="40.6" y="765.7"/>
      <point x="88.4" y="710.0"/>
      <point x="182.5" y="710.0" type="curve" smooth="yes"/>
      <point x="240.9" y="710.0"/>
      <point x="290.7" y="720.0"/>
      <point x="329.8" y="720.0" type="curve" smooth="yes"/>
      <point x="380.6" y="720.0"/>
      <point x="401.2" y="687.0"/>
    </contour>
  </outline>
</glyph>
<glyph name="u-beng" format="2">
  <advance width="492.7"/>
  <unicode hex="0989"/>
  <anchor x="375.4" y="34.0" name="bottom"/>
  <anchor x="417.1" y="-6.7" name="bottom.rakaar"/>
  <anchor x="358.4" y="58.7" name="bottom.rvocalic"/>
  <anchor x="311.0" y="14.7" name="bottom.virama"/>
  <anchor x="292.7" y="617.0" name="top"/>
  <anchor x="244.5" y="622.7" name="topright"/>
  <anchor x="246.0" y="0.0" name="vedic"/>
  <anchor x="264.0" y="-62.0" name="nukta"/>
  <outline>
    <contour>
      <point x="389.8" y="612.0" type="curve"/>
      <point x="430.3" y="612.0" type="line"/>
      <point x="421.9" y="737.6"/>
      <point x="381.2" y="802.2"/>
      <point x="292.3" y="802.2" type="curve" smooth="yes"/>
      <point x="249.9" y="802.2"/>
      <point x="217.0" y="793.2"/>
      <point x="169.9" y="793.2" type="curve" smooth="yes"/>
      <point x="103.6" y="793.2"/>
      <point x="74.8" y="812.5"/>
      <point x="74.8" y="875.4" type="curve" smooth="yes"/>
      <point x="74.8" y="884.5"/>
      <point x="75.5" y="898.4"/>
      <point x="77.2" y="912.3" type="curve"/>
      <point x="38.3" y="916.3" type="line"/>
      <point x="35.3" y="896.2"/>
      <point x="34.3" y="880.9"/>
      <point x="34.3" y="860.0" type="curve" smooth="yes"/>
      <point x="34.3" y="765.0"/>
      <point x="81.4" y="711.4"/>
      <point x="174.8" y="711.4" type="curve" smooth="yes"/>
      <point x="230.4" y="711.4"/>
      <point x="271.1" y="721.4"/>
      <point x="308.8" y="721.4" type="curve" smooth="yes"/>
      <point x="359.6" y="721.4"/>
      <point x="381.6" y="687.0"/>
    </contour>
    <component base="dda-beng"/>
  </outline>
</glyph>
<glyph name="uu-beng" format="2">
  <advance width="553.4"/>
  <unicode hex="098A"/>
  <anchor x="432.6" y="34.0" name="bottom"/>
  <anchor x="474.3" y="-6.0" name="bottom.rakaar"/>
  <anchor x="415.6" y="58.0" name="bottom.rvocalic"/>
  <anchor x="366.8" y="14.0" name="bottom.virama"/>
  <anchor x="332.0" y="617.0" name="top"/>
  <anchor x="310.3" y="622.0" name="topright"/>
  <anchor x="276.7" y="0.0" name="vedic"/>
  <outline>
    <contour>
      <point x="347.9" y="50.0" type="curve" smooth="yes"/>
      <point x="467.2" y="50.0"/>
      <point x="526.2" y="141.7"/>
      <point x="526.2" y="262.0" type="curve" smooth="yes"/>
      <point x="526.2" y="358.3"/>
      <point x="492.2" y="424.6"/>
      <point x="443.3" y="471.4" type="curve"/>
      <point x="414.8" y="406.6"/>
      <point x="366.2" y="353.3"/>
      <point x="324.7" y="353.3" type="curve" smooth="yes"/>
      <point x="309.3" y="353.3"/>
      <point x="299.7" y="363.3"/>
      <point x="299.7" y="381.3" type="curve" smooth="yes"/>
      <point x="299.7" y="570.0" type="line"/>
      <point x="579.6" y="570.0" type="line"/>
      <point x="549.1" y="622.0" type="line"/>
      <point x="-26.2" y="622.0" type="line"/>
      <point x="3.6" y="570.0" type="line"/>
      <point x="247.8" y="570.0" type="line"/>
      <point x="247.8" y="380.8" type="line" smooth="yes"/>
      <point x="247.8" y="348.9"/>
      <point x="255.7" y="324.3"/>
      <point x="275.6" y="305.0" type="curve" smooth="yes"/>
      <point x="292.9" y="288.0"/>
      <point x="315.0" y="278.5"/>
      <point x="340.4" y="278.5" type="curve" smooth="yes"/>
      <point x="392.7" y="278.5"/>
      <point x="448.5" y="324.8"/>
      <point x="484.1" y="391.8" type="curve"/>
      <point x="445.0" y="372.5" type="line"/>
      <point x="465.7" y="354.5"/>
      <point x="478.7" y="327.8"/>
      <point x="478.7" y="281.2" type="curve" smooth="yes"/>
      <point x="478.7" y="195.8"/>
      <point x="432.3" y="137.4"/>
      <point x="354.3" y="136.5" type="curve" smooth="yes"/>
      <point x="231.0" y="135.0"/>
      <point x="190.2" y="292.0"/>
      <point x="142.8" y="502.0" type="curve"/>
      <point x="105.0" y="490.0" type="line"/>
      <point x="138.4" y="307.0"/>
      <point x="169.7" y="194.7"/>
      <point x="231.0" y="129.0" type="curve"/>
      <point x="257.2" y="127.0" type="line"/>
      <point x="170.6" y="158.0"/>
      <point x="108.2" y="279.0"/>
      <point x="54.5" y="502.0" type="curve"/>
      <point x="16.700000000000003" y="490.0" type="line"/>
      <point x="75.2" y="187.0"/>
      <point x="184.4" y="50.0"/>
    </contour>
    <contour>
      <point x="450.0" y="612.0" type="curve"/>
      <point x="489.8" y="612.0" type="line"/>
      <point x="479.3" y="739.0"/>
      <point x="435.5" y="809.0"/>
      <point x="340.6" y="809.0" type="curve" smooth="yes"/>
      <point x="283.3" y="809.0"/>
      <point x="243.9" y="791.4"/>
      <point x="171.5" y="791.4" type="curve" smooth="yes"/>
      <point x="105.5" y="791.4"/>
      <point x="78.8" y="812.5"/>
      <point x="78.8" y="875.4" type="curve" smooth="yes"/>
      <point x="78.8" y="884.5"/>
      <point x="79.5" y="898.4"/>
      <point x="81.2" y="912.3" type="curve"/>
      <point x="42.0" y="916.3" type="line"/>
      <point x="39.3" y="896.2"/>
      <point x="38.3" y="880.9"/>
      <point x="38.3" y="860.0" type="curve" smooth="yes"/>
      <point x="38.3" y="763.2"/>
      <point x="83.3" y="709.6"/>
      <point x="176.4" y="709.6" type="curve" smooth="yes"/>
      <point x="255.4" y="709.6"/>
      <point x="295.2" y="728.2"/>
      <point x="355.8" y="728.2" type="curve" smooth="yes"/>
      <point x="415.2" y="728.2"/>
      <point x="441.1" y="687.0"/>
    </contour>
  </outline>
</glyph>
<glyph name="rVocalic-beng" format="2">
  <advance width="609.0"/>
  <unicode hex="098B"/>
  <anchor x="411.2" y="0.0" name="bottom"/>
  <anchor x="411.2" y="70.0" name="bottom.rakaar"/>
  <anchor x="343.6" y="133.7" name="bottom.rvocalic"/>
  <anchor x="394.7" y="6.0" name="bottom.virama"/>
  <anchor x="411.2" y="570.0" name="top"/>
  <anchor x="413.5" y="570.0" name="topright"/>
  <anchor x="304.5" y="0.0" name="vedic"/>
  <outline>
    <contour>
      <point x="405.5" y="-13.0" type="line"/>
      <point x="411.2" y="-12.0" type="line"/>
      <point x="411.2" y="644.0" type="line"/>
      <point x="363.3" y="678.0" type="line"/>
      <point x="359.3" y="677.0" type="line"/>
      <point x="359.3" y="472.4" type="line"/>
      <point x="365.3" y="495.9" type="line"/>
      <point x="257.9" y="450.7"/>
      <point x="164.0" y="398.4"/>
      <point x="69.6" y="334.8" type="curve"/>
      <point x="119.7" y="226.0" type="line"/>
      <point x="232.2" y="201.2"/>
      <point x="311.7" y="137.0"/>
      <point x="365.5" y="19.1" type="curve"/>
    </contour>
    <contour>
      <point x="359.3" y="75.9" type="line"/>
      <point x="370.5" y="77.9" type="line"/>
      <point x="324.0" y="210.0"/>
      <point x="226.6" y="272.6"/>
      <point x="138.3" y="300.8" type="curve"/>
      <point x="146.1" y="282.8" type="line"/>
      <point x="208.4" y="332.0"/>
      <point x="296.4" y="376.6"/>
      <point x="368.5" y="405.6" type="curve"/>
      <point x="359.3" y="424.8" type="line"/>
    </contour>
    <contour>
      <point x="118.7" y="431.4" type="curve" smooth="yes"/>
      <point x="183.3" y="431.4"/>
      <point x="246.0" y="467.5"/>
      <point x="287.6" y="547.5" type="curve"/>
      <point x="258.5" y="546.0" type="line"/>
      <point x="283.4" y="520.0"/>
      <point x="299.1" y="493.0"/>
      <point x="322.9" y="444.0" type="curve"/>
      <point x="355.8" y="453.0" type="line"/>
      <point x="326.7" y="535.3"/>
      <point x="295.3" y="585.6"/>
      <point x="252.9" y="623.6" type="curve"/>
      <point x="210.2" y="538.1"/>
      <point x="159.4" y="504.0"/>
      <point x="124.3" y="504.0" type="curve" smooth="yes"/>
      <point x="114.4" y="504.0"/>
      <point x="100.7" y="507.0"/>
      <point x="95.1" y="510.4" type="curve"/>
      <point x="124.4" y="479.0" type="line"/>
      <point x="139.6" y="495.0"/>
      <point x="144.9" y="509.7"/>
      <point x="144.9" y="535.0" type="curve" smooth="yes"/>
      <point x="144.9" y="570.0"/>
      <point x="123.7" y="595.0"/>
      <point x="85.8" y="595.0" type="curve" smooth="yes"/>
      <point x="46.4" y="595.0"/>
      <point x="22.4" y="568.7"/>
      <point x="22.4" y="523.4" type="curve" smooth="yes"/>
      <point x="22.4" y="461.2"/>
      <point x="72.0" y="431.4"/>
    </contour>
    <contour>
      <point x="533.0" y="86.1" type="line"/>
      <point x="538.1" y="87.1" type="line"/>
      <point x="538.1" y="570.0" type="line"/>
      <point x="635.2" y="570.0" type="line"/>
      <point x="605.1" y="622.0" type="line"/>
      <point x="536.0" y="622.0" type="line"/>
      <point x="531.3" y="665.0" type="line"/>
      <point x="490.2" y="698.0" type="line"/>
      <point x="486.2" y="697.0" type="line"/>
      <point x="486.2" y="175.0" type="line"/>
      <point x="497.4" y="177.0" type="line"/>
      <point x="472.7" y="249.5"/>
      <point x="432.3" y="304.1"/>
      <point x="386.1" y="342.9" type="curve"/>
      <point x="381.9" y="267.2" type="line"/>
      <point x="427.8" y="232.6"/>
      <point x="463.1" y="182.0"/>
      <point x="492.4" y="118.2" type="curve"/>
    </contour>
  </outline>
</glyph>
<glyph name="lVocalic-beng" format="2">
  <advance width="426.7"/>
  <unicode hex="098C"/>
  <anchor x="311.2" y="570.0" name="top"/>
  <anchor x="213.0" y="0.0" name="vedic"/>
  <outline>
    <contour>
      <point x="245.5" y="18.0" type="line"/>
      <point x="325.9" y="40.0"/>
      <point x="407.1" y="146.6"/>
      <point x="407.1" y="284.0" type="curve" smooth="yes"/>
      <point x="407.1" y="423.0"/>
      <point x="348.6" y="472.0"/>
      <point x="226.6" y="507.0" type="curve" smooth="yes"/>
      <point x="155.4" y="527.3"/>
      <point x="105.0" y="543.9"/>
      <point x="105.0" y="617.2" type="curve" smooth="yes"/>
      <point x="105.0" y="645.3"/>
      <point x="113.1" y="672.0"/>
      <point x="123.1" y="698.0" type="curve"/>
      <point x="84.8" y="712.0" type="line"/>
      <point x="68.2" y="674.7"/>
      <point x="57.400000000000006" y="632.4"/>
      <point x="57.400000000000006" y="591.3" type="curve" smooth="yes"/>
      <point x="57.400000000000006" y="482.6"/>
      <point x="115.1" y="446.6"/>
      <point x="219.4" y="420.0" type="curve" smooth="yes"/>
      <point x="309.3" y="396.3"/>
      <point x="360.6" y="373.5"/>
      <point x="360.6" y="264.7" type="curve" smooth="yes"/>
      <point x="360.6" y="194.7"/>
      <point x="328.0" y="119.1"/>
      <point x="282.8" y="104.4" type="curve"/>
      <point x="309.9" y="86.0" type="line"/>
      <point x="310.9" y="199.0"/>
      <point x="269.6" y="315.0"/>
      <point x="166.7" y="315.0" type="curve" smooth="yes"/>
      <point x="86.8" y="315.0"/>
      <point x="42.5" y="251.0"/>
      <point x="42.5" y="172.0" type="curve" smooth="yes"/>
      <point x="42.5" y="83.4"/>
      <point x="84.5" y="36.0"/>
      <point x="136.7" y="36.0" type="curve" smooth="yes"/>
      <point x="179.1" y="36.0"/>
      <point x="198.3" y="70.0"/>
      <point x="198.3" y="105.0" type="curve" smooth="yes"/>
      <point x="198.3" y="143.0"/>
      <point x="173.5" y="168.0"/>
      <point x="140.6" y="168.0" type="curve" smooth="yes"/>
      <point x="112.5" y="168.0"/>
      <point x="87.0" y="145.0"/>
      <point x="86.7" y="117.0" type="curve"/>
      <point x="123.2" y="118.3" type="line"/>
      <point x="105.8" y="127.0"/>
      <point x="91.3" y="147.0"/>
      <point x="91.3" y="182.0" type="curve" smooth="yes"/>
      <point x="91.3" y="219.3"/>
      <point x="114.7" y="251.0"/>
      <point x="154.2" y="251.0" type="curve" smooth="yes"/>
      <point x="219.5" y="251.0"/>
      <point x="242.2" y="160.3"/>
      <point x="242.2" y="73.0" type="curve" smooth="yes"/>
      <point x="242.2" y="55.0"/>
      <point x="241.9" y="38.0"/>
      <point x="239.9" y="22.0" type="curve"/>
    </contour>
  </outline>
</glyph>
<glyph name="e-beng" format="2">
  <advance width="538.7"/>
  <unicode hex="098F"/>
  <anchor x="475.0" y="0.0" name="bottom"/>
  <anchor x="475.0" y="3.0" name="bottom.rvocalic"/>
  <anchor x="459.2" y="6.0" name="bottom.virama"/>
  <anchor x="393.9" y="570.0" name="top"/>
  <anchor x="396.9" y="570.0" name="topright"/>
  <anchor x="269.2" y="0.0" name="vedic"/>
  <outline>
    <contour>
      <point x="466.5" y="-13.0" type="line"/>
      <point x="472.2" y="-12.0" type="line"/>
      <point x="472.2" y="510.9" type="line" smooth="yes"/>
      <point x="472.2" y="586.2"/>
      <point x="436.9" y="632.0"/>
      <point x="374.8" y="632.0" type="curve" smooth="yes"/>
      <point x="268.2" y="632.0"/>
      <point x="174.9" y="497.0"/>
      <point x="174.9" y="388.0" type="curve" smooth="yes"/>
      <point x="174.9" y="312.0"/>
      <point x="216.1" y="272.0"/>
      <point x="266.9" y="270.0" type="curve" smooth="yes"/>
      <point x="324.3" y="268.0"/>
      <point x="350.0" y="305.1"/>
      <point x="350.0" y="351.0" type="curve" smooth="yes"/>
      <point x="350.0" y="391.0"/>
      <point x="328.1" y="428.0"/>
      <point x="284.5" y="428.0" type="curve" smooth="yes"/>
      <point x="268.3" y="428.0"/>
      <point x="247.9" y="420.0"/>
      <point x="238.0" y="398.0" type="curve"/>
      <point x="259.4" y="397.0" type="line"/>
      <point x="258.8" y="470.6"/>
      <point x="322.9" y="576.6"/>
      <point x="376.4" y="576.6" type="curve" smooth="yes"/>
      <point x="412.8" y="576.6"/>
      <point x="420.3" y="543.6"/>
      <point x="420.3" y="503.0" type="curve" smooth="yes"/>
      <point x="420.3" y="185.0" type="line" smooth="yes"/>
      <point x="420.3" y="154.2"/>
      <point x="422.0" y="118.8"/>
      <point x="425.7" y="83.8" type="curve"/>
      <point x="397.9" y="144.4"/>
      <point x="359.0" y="162.8"/>
      <point x="313.1" y="162.8" type="curve" smooth="yes"/>
      <point x="267.6" y="162.8"/>
      <point x="244.0" y="156.3"/>
      <point x="187.0" y="156.3" type="curve" smooth="yes"/>
      <point x="128.8" y="156.3"/>
      <point x="84.4" y="186.1"/>
      <point x="84.4" y="270.6" type="curve" smooth="yes"/>
      <point x="84.4" y="311.0"/>
      <point x="89.1" y="339.8"/>
      <point x="94.4" y="362.1" type="curve"/>
      <point x="52.5" y="369.3" type="line"/>
      <point x="45.5" y="337.9"/>
      <point x="39.5" y="297.4"/>
      <point x="39.5" y="256.7" type="curve" smooth="yes"/>
      <point x="39.5" y="111.1"/>
      <point x="116.2" y="70.9"/>
      <point x="194.4" y="70.9" type="curve" smooth="yes"/>
      <point x="252.0" y="70.9"/>
      <point x="281.5" y="81.4"/>
      <point x="333.9" y="81.4" type="curve" smooth="yes"/>
      <point x="380.5" y="81.4"/>
      <point x="403.0" y="67.0"/>
      <point x="429.3" y="17.0" type="curve"/>
    </contour>
  </outline>
</glyph>
<glyph name="ai-beng" format="2">
  <advance width="625.0"/>
  <unicode hex="0990"/>
  <anchor x="413.9" y="600.0" name="top"/>
  <anchor x="382.1" y="602.0" name="topright"/>
  <anchor x="312.5" y="0.0" name="vedic"/>
  <anchor x="475.0" y="0.0" name="bottom"/>
  <anchor x="475.0" y="3.0" name="bottom.rvocalic"/>
  <anchor x="459.2" y="6.0" name="bottom.virama"/>
  <outline>
    <contour>
      <point x="464.9" y="334.0" type="line"/>
      <point x="514.6" y="384.0"/>
      <point x="564.0" y="456.6"/>
      <point x="564.0" y="569.5" type="curve" smooth="yes"/>
      <point x="564.0" y="728.4"/>
      <point x="457.8" y="755.3"/>
      <point x="347.6" y="772.6" type="curve" smooth="yes"/>
      <point x="259.5" y="786.6"/>
      <point x="189.4" y="798.6"/>
      <point x="189.4" y="885.5" type="curve" smooth="yes"/>
      <point x="189.4" y="914.6"/>
      <point x="196.1" y="944.0"/>
      <point x="205.4" y="968.0" type="curve"/>
      <point x="168.5" y="982.0" type="line"/>
      <point x="153.3" y="946.8"/>
      <point x="143.2" y="905.2"/>
      <point x="143.2" y="866.2" type="curve" smooth="yes"/>
      <point x="143.2" y="738.3"/>
      <point x="234.9" y="715.4"/>
      <point x="337.9" y="700.4" type="curve" smooth="yes"/>
      <point x="436.6" y="686.4"/>
      <point x="522.4" y="673.4"/>
      <point x="522.4" y="557.0" type="curve" smooth="yes"/>
      <point x="522.4" y="483.2"/>
      <point x="491.2" y="435.6"/>
      <point x="446.1" y="394.0" type="curve"/>
    </contour>
    <component base="e-beng"/>
  </outline>
</glyph>
<glyph name="o-beng" format="2">
  <advance width="577.3"/>
  <unicode hex="0993"/>
  <anchor x="430.2" y="39.0" name="bottom"/>
  <anchor x="471.9" y="-1.0" name="bottom.rakaar"/>
  <anchor x="413.9" y="63.0" name="bottom.rvocalic"/>
  <anchor x="365.8" y="19.0" name="bottom.virama"/>
  <anchor x="369.2" y="570.0" name="top"/>
  <anchor x="371.5" y="570.0" name="topright"/>
  <anchor x="288.5" y="0.0" name="vedic"/>
  <outline>
    <contour>
      <point x="354.8" y="55.0" type="curve" smooth="yes"/>
      <point x="474.4" y="55.0"/>
      <point x="531.6" y="134.9"/>
      <point x="531.6" y="235.2" type="curve" smooth="yes"/>
      <point x="531.6" y="339.6"/>
      <point x="458.8" y="416.0"/>
      <point x="394.1" y="416.0" type="curve" smooth="yes"/>
      <point x="356.5" y="416.0"/>
      <point x="332.0" y="390.0"/>
      <point x="332.0" y="348.0" type="curve" smooth="yes"/>
      <point x="332.0" y="306.0"/>
      <point x="355.2" y="278.0"/>
      <point x="395.5" y="278.0" type="curve" smooth="yes"/>
      <point x="460.2" y="278.0"/>
      <point x="513.4" y="392.7"/>
      <point x="513.4" y="486.0" type="curve" smooth="yes"/>
      <point x="513.4" y="574.0"/>
      <point x="463.4" y="631.0"/>
      <point x="374.5" y="631.0" type="curve" smooth="yes"/>
      <point x="263.1" y="631.0"/>
      <point x="160.0" y="529.0"/>
      <point x="160.0" y="420.0" type="curve" smooth="yes"/>
      <point x="160.0" y="354.7"/>
      <point x="195.4" y="322.7"/>
      <point x="236.5" y="322.7" type="curve" smooth="yes"/>
      <point x="275.5" y="322.7"/>
      <point x="303.0" y="347.4"/>
      <point x="303.0" y="397.4" type="curve" smooth="yes"/>
      <point x="303.0" y="433.9"/>
      <point x="281.8" y="461.5"/>
      <point x="251.5" y="461.5" type="curve" smooth="yes"/>
      <point x="235.8" y="461.5"/>
      <point x="216.7" y="456.5"/>
      <point x="206.6" y="442.0" type="curve"/>
      <point x="246.3" y="430.0" type="line"/>
      <point x="252.7" y="512.0"/>
      <point x="315.5" y="579.8"/>
      <point x="392.0" y="579.8" type="curve" smooth="yes"/>
      <point x="436.2" y="579.8"/>
      <point x="457.1" y="549.0"/>
      <point x="457.1" y="503.0" type="curve" smooth="yes"/>
      <point x="457.1" y="454.1"/>
      <point x="433.9" y="420.4"/>
      <point x="396.5" y="390.0" type="curve"/>
      <point x="410.8" y="342.4" type="line"/>
      <point x="440.6" y="342.4"/>
      <point x="482.8" y="314.0"/>
      <point x="482.8" y="252.1" type="curve" smooth="yes"/>
      <point x="482.8" y="188.7"/>
      <point x="441.9" y="141.8"/>
      <point x="358.1" y="141.8" type="curve" smooth="yes"/>
      <point x="230.5" y="141.8"/>
      <point x="130.1" y="242.0"/>
      <point x="62.3" y="547.9" type="curve"/>
      <point x="22.0" y="538.0" type="line"/>
      <point x="85.6" y="192.0"/>
      <point x="212.0" y="55.0"/>
    </contour>
  </outline>
</glyph>
<glyph name="au-beng" format="2">
  <advance width="642.0"/>
  <unicode hex="0994"/>
  <anchor x="510.0" y="39.0" name="bottom"/>
  <anchor x="558.0" y="-1.0" name="bottom.rakaar"/>
  <anchor x="486.0" y="63.0" name="bottom.rvocalic"/>
  <anchor x="426.0" y="19.0" name="bottom.virama"/>
  <anchor x="530.0" y="600.0" name="top"/>
  <anchor x="474.0" y="602.0" name="topright"/>
  <anchor x="321.0" y="0.0" name="vedic"/>
  <outline>
    <contour>
      <point x="481.9" y="334.0" type="line"/>
      <point x="531.6" y="384.0"/>
      <point x="581.0" y="456.6"/>
      <point x="581.0" y="569.8" type="curve" smooth="yes"/>
      <point x="581.0" y="729.7"/>
      <point x="473.3" y="755.6"/>
      <point x="364.6" y="772.6" type="curve" smooth="yes"/>
      <point x="276.5" y="786.6"/>
      <point x="206.4" y="798.6"/>
      <point x="206.4" y="885.5" type="curve" smooth="yes"/>
      <point x="206.4" y="914.6"/>
      <point x="213.1" y="944.0"/>
      <point x="222.4" y="968.0" type="curve"/>
      <point x="185.5" y="982.0" type="line"/>
      <point x="170.3" y="946.8"/>
      <point x="160.2" y="905.2"/>
      <point x="160.2" y="866.2" type="curve" smooth="yes"/>
      <point x="160.2" y="738.3"/>
      <point x="251.9" y="715.4"/>
      <point x="354.6" y="700.4" type="curve" smooth="yes"/>
      <point x="453.6" y="686.1"/>
      <point x="539.4" y="673.4"/>
      <point x="539.4" y="557.0" type="curve" smooth="yes"/>
      <point x="539.4" y="480.2"/>
      <point x="507.9" y="433.2"/>
      <point x="462.8" y="391.6" type="curve"/>
    </contour>
    <component base="o-beng"/>
  </outline>
</glyph>
<glyph name="ka-beng" format="2">
  <advance width="585.4"/>
  <unicode hex="0995"/>
  <anchor x="355.3" y="30.0" name="bottom"/>
  <anchor x="355.4" y="70.0" name="bottom.rakaar"/>
  <anchor x="359.6" y="9.2" name="bottom.rvocalic"/>
  <anchor x="347.3" y="6.0" name="bottom.virama"/>
  <anchor x="162.0" y="75.0" name="nukta"/>
  <anchor x="352.6" y="570.0" name="top"/>
  <anchor x="354.9" y="570.0" name="topright"/>
  <anchor x="292.2" y="0.0" name="vedic"/>
  <outline>
    <contour>
      <point x="353.9" y="-13.0" type="line"/>
      <point x="359.6" y="-12.0" type="line"/>
      <point x="359.6" y="455.5" type="line"/>
      <point x="346.0" y="431.4" type="line"/>
      <point x="350.3" y="432.7"/>
      <point x="355.2" y="433.7"/>
      <point x="358.8" y="433.7" type="curve" smooth="yes"/>
      <point x="456.4" y="433.7"/>
      <point x="513.8" y="360.5"/>
      <point x="513.8" y="289.2" type="curve" smooth="yes"/>
      <point x="513.8" y="273.5"/>
      <point x="510.5" y="264.5"/>
      <point x="503.6" y="253.2" type="curve"/>
      <point x="522.9" y="250.0" type="line"/>
      <point x="515.4" y="290.0"/>
      <point x="495.2" y="307.6"/>
      <point x="464.6" y="307.6" type="curve" smooth="yes"/>
      <point x="426.5" y="307.6"/>
      <point x="405.2" y="277.0"/>
      <point x="405.2" y="239.0" type="curve" smooth="yes"/>
      <point x="405.2" y="204.0"/>
      <point x="425.8" y="166.0"/>
      <point x="473.5" y="166.0" type="curve" smooth="yes"/>
      <point x="526.5" y="166.0"/>
      <point x="554.4" y="219.7"/>
      <point x="554.4" y="290.0" type="curve" smooth="yes"/>
      <point x="554.4" y="403.0"/>
      <point x="473.0" y="510.1"/>
      <point x="347.7" y="519.8" type="curve"/>
      <point x="359.6" y="500.0" type="line"/>
      <point x="359.6" y="570.0" type="line"/>
      <point x="611.6" y="570.0" type="line"/>
      <point x="581.8" y="622.0" type="line"/>
      <point x="-26.2" y="622.0" type="line"/>
      <point x="3.6" y="570.0" type="line"/>
      <point x="307.7" y="570.0" type="line"/>
      <point x="307.7" y="500.0" type="line"/>
      <point x="313.7" y="521.2" type="line"/>
      <point x="206.3" y="474.2"/>
      <point x="116.6" y="420.0"/>
      <point x="18.0" y="343.8" type="curve"/>
      <point x="68.1" y="235.0" type="line"/>
      <point x="180.6" y="207.2"/>
      <point x="260.1" y="137.0"/>
      <point x="313.9" y="19.1" type="curve"/>
    </contour>
    <contour>
      <point x="307.7" y="75.9" type="line"/>
      <point x="318.9" y="77.9" type="line"/>
      <point x="272.4" y="210.0"/>
      <point x="175.0" y="281.9"/>
      <point x="86.7" y="309.8" type="curve"/>
      <point x="94.5" y="292.1" type="line"/>
      <point x="160.4" y="352.1"/>
      <point x="244.1" y="396.2"/>
      <point x="316.9" y="429.8" type="curve"/>
      <point x="307.7" y="452.0" type="line"/>
    </contour>
  </outline>
</glyph>
<glyph name="kha-beng" format="2">
  <advance width="505.4"/>
  <unicode hex="0996"/>
  <anchor x="429.5" y="30.0" name="bottom"/>
  <anchor x="434.5" y="70.0" name="bottom.rakaar"/>
  <anchor x="434.5" y="12.0" name="bottom.rvocalic"/>
  <anchor x="418.7" y="6.0" name="bottom.virama"/>
  <anchor x="426.8" y="560.0" name="top"/>
  <anchor x="407.3" y="552.0" name="topright"/>
  <anchor x="236.4" y="0.0" name="vedic"/>
  <outline>
    <contour>
      <point x="429.5" y="-13.0" type="line"/>
      <point x="434.5" y="-12.0" type="line"/>
      <point x="434.5" y="570.0" type="line"/>
      <point x="531.6" y="570.0" type="line"/>
      <point x="501.5" y="622.0" type="line"/>
      <point x="432.4" y="622.0" type="line"/>
      <point x="427.7" y="665.0" type="line"/>
      <point x="386.6" y="698.0" type="line"/>
      <point x="382.6" y="697.0" type="line"/>
      <point x="382.6" y="78.0" type="line"/>
      <point x="391.7" y="87.0" type="line"/>
      <point x="349.6" y="196.2"/>
      <point x="275.5" y="264.6"/>
      <point x="190.9" y="297.7" type="curve"/>
      <point x="196.6" y="277.9" type="line"/>
      <point x="282.7" y="298.2"/>
      <point x="330.5" y="348.1"/>
      <point x="330.5" y="445.1" type="curve" smooth="yes"/>
      <point x="330.5" y="531.0"/>
      <point x="284.6" y="587.0"/>
      <point x="243.60000000000002" y="623.6" type="curve"/>
      <point x="205.1" y="538.1"/>
      <point x="160.3" y="498.0"/>
      <point x="124.0" y="498.0" type="curve" smooth="yes"/>
      <point x="113.8" y="498.0"/>
      <point x="101.3" y="501.0"/>
      <point x="96.0" y="505.0" type="curve"/>
      <point x="124.4" y="476.0" type="line"/>
      <point x="139.6" y="492.0"/>
      <point x="144.9" y="506.7"/>
      <point x="144.9" y="532.0" type="curve" smooth="yes"/>
      <point x="144.9" y="567.0"/>
      <point x="123.7" y="592.0"/>
      <point x="85.8" y="592.0" type="curve" smooth="yes"/>
      <point x="46.4" y="592.0"/>
      <point x="22.4" y="565.7"/>
      <point x="22.4" y="520.4" type="curve" smooth="yes"/>
      <point x="22.4" y="454.7"/>
      <point x="71.1" y="424.0"/>
      <point x="117.5" y="424.0" type="curve" smooth="yes"/>
      <point x="182.4" y="424.0"/>
      <point x="239.5" y="467.5"/>
      <point x="281.1" y="547.5" type="curve"/>
      <point x="248.5" y="543.2" type="line"/>
      <point x="266.6" y="522.2"/>
      <point x="279.3" y="498.9"/>
      <point x="279.3" y="462.2" type="curve" smooth="yes"/>
      <point x="279.3" y="373.9"/>
      <point x="190.8" y="344.2"/>
      <point x="100.1" y="340.7" type="curve"/>
      <point x="135.2" y="234.0" type="line"/>
      <point x="250.3" y="217.0"/>
      <point x="331.1" y="143.3"/>
      <point x="387.4" y="24.0" type="curve"/>
    </contour>
  </outline>
</glyph>
<glyph name="ga-beng" format="2">
  <advance width="495.6"/>
  <unicode hex="0997"/>
  <anchor x="414.4" y="56.0" name="bottom"/>
  <anchor x="424.7" y="-3.0" name="bottom.rakaar"/>
  <anchor x="424.7" y="-2.0" name="bottom.rvocalic"/>
  <anchor x="405.4" y="6.0" name="bottom.virama"/>
  <anchor x="417.0" y="560.0" name="top"/>
  <anchor x="397.5" y="552.0" name="topright"/>
  <anchor x="247.3" y="0.0" name="vedic"/>
  <outline>
    <contour>
      <point x="421.0" y="-25.0" type="line"/>
      <point x="424.7" y="-24.0" type="line"/>
      <point x="424.7" y="570.0" type="line"/>
      <point x="521.8" y="570.0" type="line"/>
      <point x="491.7" y="622.0" type="line"/>
      <point x="422.6" y="622.0" type="line"/>
      <point x="417.9" y="665.0" type="line"/>
      <point x="376.8" y="698.0" type="line"/>
      <point x="372.8" y="697.0" type="line"/>
      <point x="372.8" y="577.5" type="line" smooth="yes"/>
      <point x="372.8" y="526.6"/>
      <point x="375.4" y="480.3"/>
      <point x="379.8" y="435.0" type="curve"/>
      <point x="388.0" y="435.0" type="line"/>
      <point x="332.3" y="573.0"/>
      <point x="266.4" y="629.0"/>
      <point x="190.3" y="629.0" type="curve" smooth="yes"/>
      <point x="122.0" y="629.0"/>
      <point x="50.800000000000004" y="578.4"/>
      <point x="5.200000000000001" y="441.7" type="curve"/>
      <point x="84.8" y="385.2" type="line"/>
      <point x="108.5" y="415.3"/>
      <point x="139.0" y="432.4"/>
      <point x="170.9" y="432.4" type="curve" smooth="yes"/>
      <point x="203.5" y="432.4"/>
      <point x="220.4" y="410.8"/>
      <point x="220.4" y="380.9" type="curve" smooth="yes"/>
      <point x="220.4" y="332.5"/>
      <point x="172.4" y="296.0"/>
      <point x="100.4" y="263.0" type="curve"/>
      <point x="152.7" y="176.2" type="line"/>
      <point x="243.5" y="235.7"/>
      <point x="279.7" y="292.4"/>
      <point x="279.7" y="363.8" type="curve" smooth="yes"/>
      <point x="279.7" y="431.1"/>
      <point x="240.6" y="483.7"/>
      <point x="175.7" y="483.7" type="curve" smooth="yes"/>
      <point x="138.3" y="483.7"/>
      <point x="108.1" y="469.8"/>
      <point x="91.3" y="452.9" type="curve"/>
      <point x="106.3" y="445.8" type="line"/>
      <point x="127.7" y="529.7"/>
      <point x="170.9" y="555.9"/>
      <point x="209.2" y="555.9" type="curve" smooth="yes"/>
      <point x="266.4" y="555.9"/>
      <point x="322.3" y="510.9"/>
      <point x="381.5" y="358.9" type="curve"/>
      <point x="372.8" y="420.0" type="line"/>
      <point x="372.8" y="3.0" type="line"/>
    </contour>
  </outline>
</glyph>
<glyph name="gha-beng" format="2">
  <advance width="435.0"/>
  <unicode hex="0998"/>
  <anchor x="359.8" y="30.0" name="bottom"/>
  <anchor x="359.9" y="70.0" name="bottom.rakaar"/>
  <anchor x="364.1" y="9.2" name="bottom.rvocalic"/>
  <anchor x="351.8" y="6.0" name="bottom.virama"/>
  <anchor x="357.1" y="570.0" name="top"/>
  <anchor x="359.4" y="570.0" name="topright"/>
  <anchor x="217.5" y="0.0" name="vedic"/>
  <outline>
    <contour>
      <point x="358.4" y="-13.0" type="line"/>
      <point x="364.1" y="-12.0" type="line"/>
      <point x="364.1" y="570.0" type="line"/>
      <point x="461.2" y="570.0" type="line"/>
      <point x="431.4" y="622.0" type="line"/>
      <point x="-26.2" y="622.0" type="line"/>
      <point x="3.6" y="570.0" type="line"/>
      <point x="312.2" y="570.0" type="line"/>
      <point x="312.2" y="75.9" type="line"/>
      <point x="323.4" y="77.9" type="line"/>
      <point x="282.0" y="199.8"/>
      <point x="196.60000000000002" y="268.7"/>
      <point x="91.2" y="306.8" type="curve"/>
      <point x="95.5" y="279.0" type="line"/>
      <point x="154.6" y="326.9"/>
      <point x="217.2" y="362.4"/>
      <point x="276.1" y="395.4" type="curve"/>
      <point x="238.0" y="470.0" type="line"/>
      <point x="212.1" y="446.9"/>
      <point x="186.7" y="438.0"/>
      <point x="164.3" y="438.0" type="curve" smooth="yes"/>
      <point x="129.7" y="438.0"/>
      <point x="106.0" y="461.5"/>
      <point x="106.0" y="497.3" type="curve" smooth="yes"/>
      <point x="106.0" y="543.8"/>
      <point x="138.4" y="570.0"/>
      <point x="191.5" y="580.0" type="curve"/>
      <point x="127.8" y="617.0" type="line"/>
      <point x="82.0" y="611.0"/>
      <point x="27.0" y="578.3"/>
      <point x="27.0" y="508.9" type="curve" smooth="yes"/>
      <point x="27.0" y="443.0"/>
      <point x="80.2" y="405.2"/>
      <point x="143.3" y="396.0" type="curve"/>
      <point x="133.7" y="408.0" type="line"/>
      <point x="98.1" y="387.0"/>
      <point x="62.7" y="364.2"/>
      <point x="28.1" y="338.0" type="curve"/>
      <point x="72.6" y="232.0" type="line"/>
      <point x="183.9" y="204.5"/>
      <point x="264.9" y="137.0"/>
      <point x="318.4" y="19.1" type="curve"/>
    </contour>
  </outline>
</glyph>
<glyph name="nga-beng" format="2">
  <advance width="494.6"/>
  <unicode hex="0999"/>
  <anchor x="336.0" y="24.0" name="bottom"/>
  <anchor x="423.3" y="-20.0" name="bottom.rakaar"/>
  <anchor x="352.5" y="20.0" name="bottom.rvocalic"/>
  <anchor x="315.8" y="0.0" name="bottom.virama"/>
  <anchor x="290.5" y="570.0" name="top"/>
  <anchor x="274.7" y="570.0" name="topright"/>
  <anchor x="246.8" y="0.0" name="vedic"/>
  <outline>
    <contour>
      <point x="297.2" y="36.0" type="curve" smooth="yes"/>
      <point x="406.7" y="36.0"/>
      <point x="471.3" y="114.9"/>
      <point x="471.3" y="244.3" type="curve" smooth="yes"/>
      <point x="471.3" y="322.7"/>
      <point x="443.6" y="387.7"/>
      <point x="401.2" y="438.7" type="curve"/>
      <point x="368.9" y="367.6"/>
      <point x="313.1" y="309.6"/>
      <point x="263.4" y="309.6" type="curve" smooth="yes"/>
      <point x="247.1" y="309.6"/>
      <point x="237.4" y="318.9"/>
      <point x="237.4" y="336.9" type="curve" smooth="yes"/>
      <point x="237.4" y="462.9" type="line" smooth="yes"/>
      <point x="237.4" y="538.6"/>
      <point x="255.4" y="580.0"/>
      <point x="292.0" y="580.0" type="curve" smooth="yes"/>
      <point x="317.6" y="580.0"/>
      <point x="334.6" y="562.0"/>
      <point x="334.6" y="533.0" type="curve" smooth="yes"/>
      <point x="334.6" y="505.0"/>
      <point x="323.0" y="476.0"/>
      <point x="275.1" y="476.0" type="curve" smooth="yes"/>
      <point x="191.0" y="476.0"/>
      <point x="163.0" y="524.9"/>
      <point x="125.7" y="619.9" type="curve"/>
      <point x="88.8" y="602.0" type="line"/>
      <point x="128.8" y="494.6"/>
      <point x="173.6" y="417.0"/>
      <point x="274.2" y="417.0" type="curve" smooth="yes"/>
      <point x="358.4" y="417.0"/>
      <point x="383.5" y="475.7"/>
      <point x="383.8" y="522.0" type="curve" smooth="yes"/>
      <point x="384.1" y="584.0"/>
      <point x="350.5" y="632.0"/>
      <point x="288.7" y="632.0" type="curve" smooth="yes"/>
      <point x="221.4" y="632.0"/>
      <point x="184.9" y="577.0"/>
      <point x="184.9" y="485.0" type="curve" smooth="yes"/>
      <point x="184.9" y="336.9" type="line" smooth="yes"/>
      <point x="184.9" y="301.5"/>
      <point x="199.3" y="276.9"/>
      <point x="215.7" y="261.1" type="curve" smooth="yes"/>
      <point x="233.7" y="243.4"/>
      <point x="257.2" y="233.8"/>
      <point x="282.6" y="233.8" type="curve" smooth="yes"/>
      <point x="335.0" y="233.8"/>
      <point x="394.5" y="281.3"/>
      <point x="429.5" y="344.7" type="curve"/>
      <point x="398.8" y="345.0" type="line"/>
      <point x="414.3" y="322.0"/>
      <point x="424.2" y="293.6"/>
      <point x="424.2" y="256.8" type="curve" smooth="yes"/>
      <point x="424.2" y="170.8"/>
      <point x="373.8" y="122.5"/>
      <point x="294.4" y="122.5" type="curve" smooth="yes"/>
      <point x="169.5" y="122.5"/>
      <point x="103.1" y="228.6"/>
      <point x="48.6" y="492.0" type="curve"/>
      <point x="10.7" y="483.5" type="line"/>
      <point x="62.2" y="173.5"/>
      <point x="148.5" y="36.0"/>
    </contour>
  </outline>
</glyph>
<glyph name="ca-beng" format="2">
  <advance width="405.1"/>
  <unicode hex="099A"/>
  <anchor x="273.8" y="30.0" name="bottom"/>
  <anchor x="321.0" y="0.0" name="bottom.rakaar"/>
  <anchor x="276.1" y="26.0" name="bottom.rvocalic"/>
  <anchor x="216.5" y="36.0" name="bottom.virama"/>
  <anchor x="115.8" y="570.0" name="top"/>
  <anchor x="117.4" y="570.0" name="topright"/>
  <anchor x="202.2" y="0.0" name="vedic"/>
  <outline>
    <contour>
      <point x="180.1" y="31.0" type="curve" smooth="yes"/>
      <point x="299.0" y="31.0"/>
      <point x="371.7" y="213.7"/>
      <point x="371.7" y="322.0" type="curve" smooth="yes"/>
      <point x="371.7" y="362.0"/>
      <point x="340.8" y="391.0"/>
      <point x="321.5" y="403.0" type="curve"/>
      <point x="255.4" y="412.0"/>
      <point x="164.9" y="452.1"/>
      <point x="118.2" y="563.0" type="curve"/>
      <point x="117.8" y="492.0" type="line"/>
      <point x="148.8" y="401.8"/>
      <point x="217.3" y="341.8"/>
      <point x="317.1" y="328.9" type="curve"/>
      <point x="297.8" y="349.8" type="line"/>
      <point x="291.2" y="211.4"/>
      <point x="227.4" y="94.5"/>
      <point x="167.6" y="94.5" type="curve" smooth="yes"/>
      <point x="140.5" y="94.5"/>
      <point x="122.8" y="110.0"/>
      <point x="122.8" y="146.6" type="curve" smooth="yes"/>
      <point x="122.8" y="570.0" type="line"/>
      <point x="431.3" y="570.0" type="line"/>
      <point x="401.5" y="622.0" type="line"/>
      <point x="-26.2" y="622.0" type="line"/>
      <point x="4.9" y="570.0" type="line"/>
      <point x="70.9" y="570.0" type="line"/>
      <point x="70.9" y="146.6" type="line" smooth="yes"/>
      <point x="70.9" y="74.7"/>
      <point x="119.3" y="31.0"/>
    </contour>
  </outline>
</glyph>
<glyph name="cha-beng" format="2">
  <advance width="446.9"/>
  <unicode hex="099B"/>
  <anchor x="264.6" y="54.0" name="bottom"/>
  <anchor x="365.9" y="-98.0" name="bottom.rakaar"/>
  <anchor x="319.1" y="51.0" name="bottom.rvocalic"/>
  <anchor x="253.6" y="51.0" name="bottom.virama"/>
  <anchor x="94.1" y="570.0" name="top"/>
  <anchor x="95.7" y="570.0" name="topright"/>
  <anchor x="223.3" y="0.0" name="vedic"/>
  <outline>
    <contour>
      <point x="424.8" y="-84.0" type="curve"/>
      <point x="451.6" y="-51.0" type="line"/>
      <point x="380.8" y="29.8"/>
      <point x="290.8" y="121.0"/>
      <point x="198.3" y="147.3" type="curve"/>
      <point x="169.10000000000002" y="124.4" type="line"/>
      <point x="185.0" y="117.6"/>
      <point x="205.5" y="116.6"/>
      <point x="227.2" y="116.6" type="curve" smooth="yes"/>
      <point x="317.8" y="116.6"/>
      <point x="399.1" y="177.9"/>
      <point x="399.1" y="312.4" type="curve" smooth="yes"/>
      <point x="399.1" y="416.7"/>
      <point x="330.3" y="492.9"/>
      <point x="242.9" y="492.9" type="curve" smooth="yes"/>
      <point x="173.5" y="492.9"/>
      <point x="129.7" y="511.0"/>
      <point x="98.6" y="570.0" type="curve"/>
      <point x="95.6" y="526.0" type="line"/>
      <point x="121.0" y="468.0"/>
      <point x="174.8" y="427.2"/>
      <point x="227.9" y="425.6" type="curve"/>
      <point x="206.2" y="460.0" type="line"/>
      <point x="202.7" y="366.0"/>
      <point x="173.0" y="306.9"/>
      <point x="136.4" y="306.9" type="curve" smooth="yes"/>
      <point x="114.8" y="306.9"/>
      <point x="103.9" y="322.4"/>
      <point x="103.9" y="345.0" type="curve" smooth="yes"/>
      <point x="103.9" y="570.0" type="line"/>
      <point x="473.1" y="570.0" type="line"/>
      <point x="442.6" y="622.0" type="line"/>
      <point x="-26.2" y="622.0" type="line"/>
      <point x="3.6" y="570.0" type="line"/>
      <point x="52.0" y="570.0" type="line"/>
      <point x="52.0" y="345.7" type="line" smooth="yes"/>
      <point x="52.0" y="293.1"/>
      <point x="90.4" y="244.0"/>
      <point x="149.4" y="244.0" type="curve" smooth="yes"/>
      <point x="213.9" y="244.0"/>
      <point x="270.3" y="297.4"/>
      <point x="287.9" y="467.0" type="curve"/>
      <point x="254.1" y="440.0" type="line"/>
      <point x="293.4" y="439.3"/>
      <point x="342.8" y="412.0"/>
      <point x="342.8" y="324.7" type="curve" smooth="yes"/>
      <point x="342.8" y="239.4"/>
      <point x="293.2" y="189.4"/>
      <point x="195.6" y="189.4" type="curve" smooth="yes"/>
      <point x="148.6" y="189.4"/>
      <point x="109.0" y="197.5"/>
      <point x="75.0" y="214.1" type="curve"/>
      <point x="95.0" y="118.2" type="line"/>
      <point x="222.0" y="92.9"/>
      <point x="305.5" y="38.3"/>
    </contour>
  </outline>
</glyph>
<glyph name="ja-beng" format="2">
  <advance width="646.1"/>
  <unicode hex="099C"/>
  <anchor x="566.8" y="87.0" name="bottom"/>
  <anchor x="578.7" y="70.0" name="bottom.rakaar"/>
  <anchor x="577.1" y="14.0" name="bottom.rvocalic"/>
  <anchor x="563.0" y="0.0" name="bottom.virama"/>
  <anchor x="355.2" y="570.0" name="top"/>
  <anchor x="356.8" y="570.0" name="topright"/>
  <anchor x="322.9" y="0.0" name="vedic"/>
  <outline>
    <contour>
      <point x="281.8" y="57.0" type="curve" smooth="yes"/>
      <point x="392.5" y="57.0"/>
      <point x="440.6" y="139.9"/>
      <point x="440.6" y="249.5" type="curve" smooth="yes"/>
      <point x="440.6" y="319.1"/>
      <point x="420.0" y="378.0"/>
      <point x="372.9" y="428.8" type="curve"/>
      <point x="345.1" y="367.7"/>
      <point x="305.1" y="329.1"/>
      <point x="264.0" y="329.1" type="curve" smooth="yes"/>
      <point x="232.0" y="329.1"/>
      <point x="209.8" y="350.8"/>
      <point x="209.8" y="390.8" type="curve" smooth="yes"/>
      <point x="209.8" y="458.8"/>
      <point x="280.8" y="521.0"/>
      <point x="375.1" y="570.0" type="curve"/>
      <point x="672.3" y="570.0" type="line"/>
      <point x="642.5" y="622.0" type="line"/>
      <point x="-26.2" y="622.0" type="line"/>
      <point x="3.6" y="570.0" type="line"/>
      <point x="271.5" y="570.0" type="line"/>
      <point x="260.8" y="583.0" type="line"/>
      <point x="198.1" y="539.8"/>
      <point x="151.9" y="473.4"/>
      <point x="151.9" y="407.3" type="curve" smooth="yes"/>
      <point x="151.9" y="317.8"/>
      <point x="206.8" y="253.8"/>
      <point x="274.9" y="253.8" type="curve" smooth="yes"/>
      <point x="332.1" y="253.8"/>
      <point x="379.7" y="297.0"/>
      <point x="409.5" y="350.0" type="curve"/>
      <point x="373.9" y="346.2" type="line"/>
      <point x="386.5" y="325.2"/>
      <point x="396.1" y="298.2"/>
      <point x="396.1" y="261.2" type="curve" smooth="yes"/>
      <point x="396.1" y="192.3"/>
      <point x="358.6" y="143.0"/>
      <point x="279.4" y="143.0" type="curve" smooth="yes"/>
      <point x="166.5" y="143.0"/>
      <point x="95.3" y="246.1"/>
      <point x="55.8" y="487.8" type="curve"/>
      <point x="16.5" y="480.0" type="line"/>
      <point x="58.8" y="182.9"/>
      <point x="147.0" y="57.0"/>
    </contour>
    <contour>
      <point x="538.8" y="-9.8" type="curve"/>
      <point x="577.1" y="4.0" type="line"/>
      <point x="559.5" y="63.7"/>
      <point x="550.8" y="124.0"/>
      <point x="550.8" y="183.7" type="curve" smooth="yes"/>
      <point x="550.8" y="262.6"/>
      <point x="569.8" y="338.6"/>
      <point x="613.9" y="396.0" type="curve"/>
      <point x="572.0" y="464.0" type="line"/>
      <point x="474.1" y="468.0"/>
      <point x="414.4" y="497.0"/>
      <point x="376.7" y="601.6" type="curve"/>
      <point x="343.8" y="562.0" type="line"/>
      <point x="384.9" y="450.0"/>
      <point x="465.6" y="403.4"/>
      <point x="542.7" y="388.4" type="curve"/>
      <point x="531.4" y="415.5" type="line"/>
      <point x="508.8" y="356.8"/>
      <point x="496.9" y="286.9"/>
      <point x="496.9" y="217.5" type="curve" smooth="yes"/>
      <point x="496.9" y="138.6"/>
      <point x="512.6" y="64.1"/>
    </contour>
  </outline>
</glyph>
<glyph name="jha-beng" format="2">
  <advance width="557.4"/>
  <unicode hex="099D"/>
  <anchor x="355.3" y="30.0" name="bottom"/>
  <anchor x="355.4" y="70.0" name="bottom.rakaar"/>
  <anchor x="359.6" y="9.2" name="bottom.rvocalic"/>
  <anchor x="347.3" y="6.0" name="bottom.virama"/>
  <anchor x="346.6" y="570.0" name="top"/>
  <anchor x="399.8" y="570.0" name="topleft"/>
  <anchor x="348.9" y="570.0" name="topright"/>
  <anchor x="278.7" y="0.0" name="vedic"/>
  <outline>
    <contour>
      <point x="353.9" y="-13.0" type="line"/>
      <point x="359.6" y="-12.0" type="line"/>
      <point x="359.6" y="622.0" type="line"/>
      <point x="-26.2" y="622.0" type="line"/>
      <point x="3.6" y="570.0" type="line"/>
      <point x="307.7" y="570.0" type="line"/>
      <point x="307.7" y="501.2" type="line"/>
      <point x="313.7" y="521.2" type="line"/>
      <point x="206.3" y="474.2"/>
      <point x="116.6" y="420.0"/>
      <point x="18.0" y="343.8" type="curve"/>
      <point x="68.1" y="235.0" type="line"/>
      <point x="180.6" y="207.2"/>
      <point x="260.1" y="137.0"/>
      <point x="313.9" y="19.1" type="curve"/>
    </contour>
    <contour>
      <point x="307.7" y="75.9" type="line"/>
      <point x="318.9" y="77.9" type="line"/>
      <point x="272.4" y="210.0"/>
      <point x="175.0" y="281.9"/>
      <point x="86.7" y="309.8" type="curve"/>
      <point x="94.5" y="291.8" type="line"/>
      <point x="160.4" y="351.8"/>
      <point x="244.1" y="395.9"/>
      <point x="316.9" y="429.5" type="curve"/>
      <point x="307.7" y="450.8" type="line"/>
    </contour>
    <contour>
      <point x="481.4" y="86.1" type="line"/>
      <point x="486.5" y="87.1" type="line"/>
      <point x="486.5" y="570.0" type="line"/>
      <point x="583.6" y="570.0" type="line"/>
      <point x="553.5" y="622.0" type="line"/>
      <point x="484.4" y="622.0" type="line"/>
      <point x="479.7" y="665.0" type="line"/>
      <point x="438.6" y="698.0" type="line"/>
      <point x="434.6" y="697.0" type="line"/>
      <point x="434.6" y="175.0" type="line"/>
      <point x="445.8" y="177.0" type="line"/>
      <point x="421.1" y="249.5"/>
      <point x="380.7" y="304.1"/>
      <point x="334.5" y="342.9" type="curve"/>
      <point x="330.3" y="267.2" type="line"/>
      <point x="376.2" y="232.6"/>
      <point x="411.5" y="182.0"/>
      <point x="440.8" y="118.2" type="curve"/>
    </contour>
  </outline>
</glyph>
<glyph name="nya-beng" format="2">
  <advance width="769.8"/>
  <unicode hex="099E"/>
  <anchor x="467.9" y="30.0" name="bottom"/>
  <anchor x="522.3" y="70.0" name="bottom.rakaar"/>
  <anchor x="472.2" y="8.0" name="bottom.rvocalic"/>
  <anchor x="459.9" y="6.0" name="bottom.virama"/>
  <anchor x="398.6" y="570.0" name="top"/>
  <anchor x="400.9" y="570.0" name="topright"/>
  <anchor x="384.9" y="0.0" name="vedic"/>
  <outline>
    <contour>
      <point x="604.4" y="50.8" type="curve" smooth="yes"/>
      <point x="673.1" y="50.8"/>
      <point x="712.3" y="117.8"/>
      <point x="712.3" y="204.8" type="curve" smooth="yes"/>
      <point x="712.3" y="255.1"/>
      <point x="697.4" y="305.8"/>
      <point x="660.7" y="343.8" type="curve"/>
      <point x="670.4" y="302.8" type="line"/>
      <point x="694.8" y="334.5"/>
      <point x="710.7" y="388.5"/>
      <point x="710.7" y="442.8" type="curve" smooth="yes"/>
      <point x="710.7" y="525.1"/>
      <point x="672.1" y="592.8"/>
      <point x="610.0" y="592.8" type="curve" smooth="yes"/>
      <point x="522.8" y="592.8"/>
      <point x="458.9" y="451.8"/>
      <point x="452.3" y="375.8" type="curve"/>
      <point x="452.3" y="273.8" type="line"/>
      <point x="465.5" y="159.8"/>
      <point x="530.4" y="50.8"/>
    </contour>
    <contour>
      <point x="601.0" y="131.8" type="curve" smooth="yes"/>
      <point x="537.5" y="131.8"/>
      <point x="480.9" y="219.5"/>
      <point x="480.9" y="318.8" type="curve" smooth="yes"/>
      <point x="480.9" y="401.8"/>
      <point x="530.7" y="515.8"/>
      <point x="606.0" y="515.8" type="curve" smooth="yes"/>
      <point x="640.7" y="515.8"/>
      <point x="663.0" y="496.8"/>
      <point x="663.0" y="456.8" type="curve" smooth="yes"/>
      <point x="663.0" y="407.5"/>
      <point x="638.9" y="373.8"/>
      <point x="606.7" y="356.8" type="curve"/>
      <point x="649.3" y="345.8" type="line"/>
      <point x="633.5" y="377.8"/>
      <point x="609.5" y="385.8"/>
      <point x="588.0" y="385.8" type="curve" smooth="yes"/>
      <point x="554.3" y="385.8"/>
      <point x="531.2" y="360.1"/>
      <point x="531.2" y="320.8" type="curve" smooth="yes"/>
      <point x="531.2" y="276.8"/>
      <point x="557.0" y="252.8"/>
      <point x="591.3" y="252.8" type="curve" smooth="yes"/>
      <point x="623.3" y="252.8"/>
      <point x="645.1" y="269.8"/>
      <point x="663.3" y="297.8" type="curve"/>
      <point x="633.1" y="310.8" type="line"/>
      <point x="650.5" y="293.8"/>
      <point x="669.4" y="261.8"/>
      <point x="669.4" y="220.8" type="curve" smooth="yes"/>
      <point x="669.4" y="165.8"/>
      <point x="645.0" y="131.8"/>
    </contour>
    <component base="e-beng"/>
  </outline>
</glyph>
<glyph name="tta-beng" format="2">
  <advance width="419.9"/>
  <unicode hex="099F"/>
  <anchor x="280.8" y="30.0" name="bottom"/>
  <anchor x="328.0" y="1.5" name="bottom.rakaar"/>
  <anchor x="284.0" y="30.200000000000003" name="bottom.rvocalic"/>
  <anchor x="223.5" y="37.5" name="bottom.virama"/>
  <anchor x="225.8" y="651.6" name="top"/>
  <anchor x="168.0" y="644.5" name="topright"/>
  <anchor x="209.8" y="0.0" name="vedic"/>
  <anchor x="188.3" y="-72.0" name="nukta"/>
  <outline>
    <contour>
      <point x="311.4" y="612.0" type="curve"/>
      <point x="352.6" y="612.0" type="line"/>
      <point x="348.7" y="739.2"/>
      <point x="312.7" y="800.8"/>
      <point x="234.3" y="800.8" type="curve" smooth="yes"/>
      <point x="196.1" y="800.8"/>
      <point x="166.8" y="791.8"/>
      <point x="128.1" y="791.8" type="curve" smooth="yes"/>
      <point x="75.9" y="791.8"/>
      <point x="48.5" y="809.0"/>
      <point x="48.5" y="874.3" type="curve" smooth="yes"/>
      <point x="48.5" y="887.7"/>
      <point x="49.5" y="902.2"/>
      <point x="51.2" y="912.3" type="curve"/>
      <point x="13.7" y="916.3" type="line"/>
      <point x="11.0" y="897.8"/>
      <point x="9.7" y="876.1"/>
      <point x="9.7" y="860.5" type="curve" smooth="yes"/>
      <point x="9.7" y="764.5"/>
      <point x="47.2" y="711.4"/>
      <point x="129.3" y="711.4" type="curve" smooth="yes"/>
      <point x="178.7" y="711.4"/>
      <point x="206.1" y="721.4"/>
      <point x="243.3" y="721.4" type="curve" smooth="yes"/>
      <point x="286.2" y="721.4"/>
      <point x="309.8" y="688.6"/>
    </contour>
    <component base="ddha-beng"/>
  </outline>
</glyph>
<glyph name="ttha-beng" format="2">
  <advance width="436.4"/>
  <unicode hex="09A0"/>
  <anchor x="261.2" y="0.0" name="bottom"/>
  <anchor x="363.5" y="-37.0" name="bottom.rakaar"/>
  <anchor x="301.4" y="0.0" name="bottom.rvocalic"/>
  <anchor x="263.6" y="0.0" name="bottom.virama"/>
  <anchor x="349.0" y="551.4" name="top"/>
  <anchor x="349.0" y="614.9" name="topleft"/>
  <anchor x="255.4" y="570.0" name="topright"/>
  <anchor x="217.7" y="0.0" name="vedic"/>
  <outline>
    <contour>
      <point x="219.9" y="5.0" type="curve" smooth="yes"/>
      <point x="325.2" y="5.0"/>
      <point x="390.1" y="84.0"/>
      <point x="390.1" y="212.9" type="curve" smooth="yes"/>
      <point x="390.1" y="330.2"/>
      <point x="330.0" y="449.0"/>
      <point x="243.6" y="570.0" type="curve"/>
      <point x="462.6" y="570.0" type="line"/>
      <point x="433.8" y="622.0" type="line"/>
      <point x="197.4" y="622.0" type="line"/>
      <point x="168.4" y="660.0"/>
      <point x="145.3" y="702.0"/>
      <point x="145.3" y="742.3" type="curve" smooth="yes"/>
      <point x="145.3" y="780.0"/>
      <point x="166.6" y="807.0"/>
      <point x="205.5" y="838.0" type="curve"/>
      <point x="148.0" y="901.0" type="line"/>
      <point x="97.2" y="859.0"/>
      <point x="79.1" y="818.3"/>
      <point x="79.1" y="776.0" type="curve" smooth="yes"/>
      <point x="79.1" y="714.6"/>
      <point x="113.80000000000001" y="666.0"/>
      <point x="145.6" y="622.0" type="curve"/>
      <point x="-26.2" y="622.0" type="line"/>
      <point x="3.6" y="570.0" type="line"/>
      <point x="167.5" y="570.0" type="line"/>
      <point x="179.6" y="535.0"/>
      <point x="186.5" y="497.4"/>
      <point x="186.5" y="456.0" type="curve" smooth="yes"/>
      <point x="186.5" y="350.2"/>
      <point x="141.3" y="273.5"/>
      <point x="23.0" y="241.5" type="curve"/>
      <point x="42.5" y="76.7"/>
      <point x="117.30000000000001" y="5.0"/>
    </contour>
    <contour>
      <point x="210.1" y="66.3" type="curve" smooth="yes"/>
      <point x="151.0" y="66.3"/>
      <point x="107.2" y="117.7"/>
      <point x="105.8" y="200.0" type="curve"/>
      <point x="94.3" y="169.0" type="line"/>
      <point x="195.2" y="202.0"/>
      <point x="239.6" y="288.5"/>
      <point x="239.6" y="386.0" type="curve" smooth="yes"/>
      <point x="239.6" y="468.8"/>
      <point x="221.2" y="528.0"/>
      <point x="197.9" y="585.0" type="curve"/>
      <point x="190.7" y="585.0" type="line"/>
      <point x="278.4" y="454.0"/>
      <point x="316.7" y="341.2"/>
      <point x="316.7" y="226.4" type="curve" smooth="yes"/>
      <point x="316.7" y="124.5"/>
      <point x="274.7" y="66.3"/>
    </contour>
  </outline>
</glyph>
<glyph name="dda-beng" format="2">
  <advance width="492.7"/>
  <unicode hex="09A1"/>
  <anchor x="344.5" y="34.0" name="bottom"/>
  <anchor x="417.8" y="-6.0" name="bottom.rakaar"/>
  <anchor x="347.8" y="47.0" name="bottom.rvocalic"/>
  <anchor x="310.3" y="14.0" name="bottom.virama"/>
  <anchor x="264.0" y="-62.0" name="nukta"/>
  <anchor x="232.0" y="570.0" name="top"/>
  <anchor x="234.3" y="570.0" name="topright"/>
  <anchor x="246.0" y="0.0" name="vedic"/>
  <outline>
    <contour>
      <point x="290.0" y="50.0" type="curve" smooth="yes"/>
      <point x="406.5" y="50.0"/>
      <point x="465.5" y="141.7"/>
      <point x="465.5" y="262.0" type="curve" smooth="yes"/>
      <point x="465.5" y="358.3"/>
      <point x="431.5" y="424.6"/>
      <point x="382.6" y="471.4" type="curve"/>
      <point x="354.1" y="406.6"/>
      <point x="305.5" y="353.3"/>
      <point x="264.0" y="353.3" type="curve" smooth="yes"/>
      <point x="248.6" y="353.3"/>
      <point x="239.0" y="363.3"/>
      <point x="239.0" y="381.3" type="curve" smooth="yes"/>
      <point x="239.0" y="570.0" type="line"/>
      <point x="518.9" y="570.0" type="line"/>
      <point x="488.4" y="622.0" type="line"/>
      <point x="-26.2" y="622.0" type="line"/>
      <point x="3.6" y="570.0" type="line"/>
      <point x="187.1" y="570.0" type="line"/>
      <point x="187.1" y="380.8" type="line" smooth="yes"/>
      <point x="187.1" y="348.9"/>
      <point x="195.0" y="324.3"/>
      <point x="214.9" y="305.0" type="curve" smooth="yes"/>
      <point x="232.2" y="288.0"/>
      <point x="254.3" y="278.5"/>
      <point x="279.7" y="278.5" type="curve" smooth="yes"/>
      <point x="332.0" y="278.5"/>
      <point x="387.8" y="324.8"/>
      <point x="423.4" y="391.8" type="curve"/>
      <point x="384.3" y="372.5" type="line"/>
      <point x="405.0" y="354.5"/>
      <point x="418.0" y="327.8"/>
      <point x="418.0" y="281.2" type="curve" smooth="yes"/>
      <point x="418.0" y="195.2"/>
      <point x="369.1" y="136.8"/>
      <point x="290.3" y="136.8" type="curve" smooth="yes"/>
      <point x="161.3" y="136.8"/>
      <point x="98.2" y="245.6"/>
      <point x="53.6" y="487.5" type="curve"/>
      <point x="14.4" y="480.0" type="line"/>
      <point x="58.0" y="179.3"/>
      <point x="148.3" y="50.0"/>
    </contour>
  </outline>
</glyph>
<glyph name="ddha-beng" format="2">
  <advance width="419.9"/>
  <unicode hex="09A2"/>
  <anchor x="280.8" y="30.0" name="bottom"/>
  <anchor x="328.0" y="1.5" name="bottom.rakaar"/>
  <anchor x="283.4" y="29.6" name="bottom.rvocalic"/>
  <anchor x="223.5" y="37.5" name="bottom.virama"/>
  <anchor x="188.3" y="-72.0" name="nukta"/>
  <anchor x="122.8" y="570.0" name="top"/>
  <anchor x="124.4" y="570.0" name="topright"/>
  <anchor x="209.8" y="0.0" name="vedic"/>
  <outline>
    <contour>
      <point x="181.5" y="32.5" type="curve" smooth="yes"/>
      <point x="294.0" y="32.5"/>
      <point x="383.6" y="209.0"/>
      <point x="383.6" y="332.0" type="curve" smooth="yes"/>
      <point x="383.6" y="421.6"/>
      <point x="341.6" y="457.0"/>
      <point x="293.7" y="457.0" type="curve" smooth="yes"/>
      <point x="241.0" y="457.0"/>
      <point x="212.8" y="416.7"/>
      <point x="212.8" y="372.7" type="curve" smooth="yes"/>
      <point x="212.8" y="326.9"/>
      <point x="241.4" y="292.5"/>
      <point x="288.5" y="292.5" type="curve" smooth="yes"/>
      <point x="311.0" y="292.5"/>
      <point x="325.2" y="304.8"/>
      <point x="335.8" y="320.5" type="curve"/>
      <point x="310.4" y="346.0" type="line"/>
      <point x="306.1" y="227.1"/>
      <point x="235.0" y="95.7"/>
      <point x="168.3" y="95.7" type="curve" smooth="yes"/>
      <point x="138.4" y="95.7"/>
      <point x="122.8" y="113.5"/>
      <point x="122.8" y="150.8" type="curve" smooth="yes"/>
      <point x="122.8" y="570.0" type="line"/>
      <point x="446.1" y="570.0" type="line"/>
      <point x="416.3" y="622.0" type="line"/>
      <point x="-26.2" y="622.0" type="line"/>
      <point x="4.9" y="570.0" type="line"/>
      <point x="70.9" y="570.0" type="line"/>
      <point x="70.9" y="148.8" type="line" smooth="yes"/>
      <point x="70.9" y="74.8"/>
      <point x="120.0" y="32.5"/>
    </contour>
  </outline>
</glyph>
<glyph name="nna-beng" format="2">
  <advance width="473.4"/>
  <unicode hex="09A3"/>
  <anchor x="392.2" y="56.0" name="bottom"/>
  <anchor x="402.5" y="-3.0" name="bottom.rakaar"/>
  <anchor x="402.5" y="-2.0" name="bottom.rvocalic"/>
  <anchor x="383.2" y="6.0" name="bottom.virama"/>
  <anchor x="394.8" y="560.0" name="top"/>
  <anchor x="375.3" y="552.0" name="topright"/>
  <anchor x="236.2" y="0.0" name="vedic"/>
  <outline>
    <contour>
      <point x="398.8" y="-25.0" type="line"/>
      <point x="402.5" y="-24.0" type="line"/>
      <point x="402.5" y="570.0" type="line"/>
      <point x="499.6" y="570.0" type="line"/>
      <point x="469.5" y="622.0" type="line"/>
      <point x="400.4" y="622.0" type="line"/>
      <point x="395.7" y="665.0" type="line"/>
      <point x="354.6" y="698.0" type="line"/>
      <point x="350.6" y="697.0" type="line"/>
      <point x="350.6" y="550.5" type="line" smooth="yes"/>
      <point x="350.6" y="496.9"/>
      <point x="352.9" y="452.1"/>
      <point x="357.0" y="404.4" type="curve"/>
      <point x="362.8" y="411.2" type="line"/>
      <point x="297.7" y="580.2"/>
      <point x="234.6" y="627.0"/>
      <point x="165.5" y="627.0" type="curve" smooth="yes"/>
      <point x="85.4" y="627.0"/>
      <point x="30.200000000000003" y="559.2"/>
      <point x="30.200000000000003" y="456.8" type="curve" smooth="yes"/>
      <point x="30.200000000000003" y="339.1"/>
      <point x="102.2" y="276.0"/>
      <point x="172.2" y="276.0" type="curve" smooth="yes"/>
      <point x="226.0" y="276.0"/>
      <point x="256.5" y="310.0"/>
      <point x="256.5" y="359.0" type="curve" smooth="yes"/>
      <point x="256.5" y="405.0"/>
      <point x="228.6" y="438.0"/>
      <point x="185.9" y="438.0" type="curve" smooth="yes"/>
      <point x="147.7" y="438.0"/>
      <point x="120.9" y="408.7"/>
      <point x="120.9" y="366.7" type="curve" smooth="yes"/>
      <point x="120.9" y="353.0"/>
      <point x="124.9" y="336.0"/>
      <point x="130.2" y="326.7" type="curve"/>
      <point x="166.6" y="354.0" type="line"/>
      <point x="157.3" y="352.0"/>
      <point x="148.4" y="351.0"/>
      <point x="139.8" y="351.0" type="curve" smooth="yes"/>
      <point x="107.8" y="351.0"/>
      <point x="82.8" y="385.1"/>
      <point x="82.8" y="436.9" type="curve" smooth="yes"/>
      <point x="82.8" y="500.8"/>
      <point x="120.8" y="539.2"/>
      <point x="177.8" y="539.2" type="curve" smooth="yes"/>
      <point x="245.0" y="539.2"/>
      <point x="297.7" y="496.3"/>
      <point x="357.5" y="334.8" type="curve"/>
      <point x="350.6" y="389.7" type="line"/>
      <point x="350.6" y="3.0" type="line"/>
    </contour>
  </outline>
</glyph>
<glyph name="ta-beng" format="2">
  <advance width="503.6"/>
  <unicode hex="09A4"/>
  <anchor x="356.5" y="41.0" name="bottom"/>
  <anchor x="424.9" y="1.0" name="bottom.rakaar"/>
  <anchor x="365.7" y="55.0" name="bottom.rvocalic"/>
  <anchor x="317.4" y="21.0" name="bottom.virama"/>
  <anchor x="297.2" y="570.0" name="top"/>
  <anchor x="299.5" y="570.0" name="topright"/>
  <anchor x="251.8" y="0.0" name="vedic"/>
  <outline>
    <contour>
      <point x="300.6" y="57.0" type="curve" smooth="yes"/>
      <point x="401.4" y="57.0"/>
      <point x="474.0" y="127.8"/>
      <point x="474.0" y="270.9" type="curve" smooth="yes"/>
      <point x="474.0" y="408.1"/>
      <point x="406.7" y="508.0"/>
      <point x="288.5" y="508.0" type="curve" smooth="yes"/>
      <point x="218.3" y="508.0"/>
      <point x="174.8" y="463.1"/>
      <point x="174.8" y="394.0" type="curve" smooth="yes"/>
      <point x="174.8" y="338.8"/>
      <point x="207.4" y="294.0"/>
      <point x="265.6" y="294.0" type="curve" smooth="yes"/>
      <point x="316.6" y="294.0"/>
      <point x="347.1" y="334.0"/>
      <point x="347.1" y="383.0" type="curve" smooth="yes"/>
      <point x="347.1" y="418.3"/>
      <point x="333.1" y="448.0"/>
      <point x="320.2" y="463.0" type="curve"/>
      <point x="292.5" y="420.0" type="line"/>
      <point x="302.4" y="424.0"/>
      <point x="316.3" y="426.0"/>
      <point x="331.6" y="426.0" type="curve" smooth="yes"/>
      <point x="379.8" y="426.0"/>
      <point x="423.8" y="386.4"/>
      <point x="423.8" y="290.5" type="curve" smooth="yes"/>
      <point x="423.8" y="186.8"/>
      <point x="369.3" y="144.1"/>
      <point x="298.4" y="144.1" type="curve" smooth="yes"/>
      <point x="184.2" y="144.1"/>
      <point x="110.0" y="234.6"/>
      <point x="50.3" y="501.5" type="curve"/>
      <point x="11.4" y="492.0" type="line"/>
      <point x="70.1" y="179.0"/>
      <point x="159.6" y="57.0"/>
    </contour>
    <contour>
      <point x="2.6" y="570.0" type="line"/>
      <point x="529.8" y="570.0" type="line"/>
      <point x="500.0" y="622.0" type="line"/>
      <point x="-26.2" y="622.0" type="line"/>
    </contour>
  </outline>
</glyph>
<glyph name="tha-beng" format="2">
  <advance width="462.3"/>
  <unicode hex="09A5"/>
  <anchor x="386.4" y="30.0" name="bottom"/>
  <anchor x="391.4" y="70.0" name="bottom.rakaar"/>
  <anchor x="391.4" y="12.0" name="bottom.rvocalic"/>
  <anchor x="375.6" y="6.0" name="bottom.virama"/>
  <anchor x="383.7" y="560.0" name="top"/>
  <anchor x="364.2" y="552.0" name="topright"/>
  <anchor x="230.8" y="0.0" name="vedic"/>
  <outline>
    <contour>
      <point x="386.4" y="-13.0" type="line"/>
      <point x="391.4" y="-12.0" type="line"/>
      <point x="391.4" y="570.0" type="line"/>
      <point x="488.5" y="570.0" type="line"/>
      <point x="458.4" y="622.0" type="line"/>
      <point x="389.3" y="622.0" type="line"/>
      <point x="384.6" y="665.0" type="line"/>
      <point x="343.5" y="698.0" type="line"/>
      <point x="339.5" y="697.0" type="line"/>
      <point x="339.5" y="78.0" type="line"/>
      <point x="348.6" y="87.0" type="line"/>
      <point x="308.6" y="193.2"/>
      <point x="231.5" y="264.3"/>
      <point x="144.8" y="297.7" type="curve"/>
      <point x="150.5" y="277.9" type="line"/>
      <point x="234.5" y="297.6"/>
      <point x="284.4" y="347.3"/>
      <point x="284.4" y="449.0" type="curve" smooth="yes"/>
      <point x="284.4" y="564.1"/>
      <point x="221.0" y="625.0"/>
      <point x="137.7" y="625.0" type="curve" smooth="yes"/>
      <point x="71.1" y="625.0"/>
      <point x="20.8" y="574.2"/>
      <point x="20.8" y="511.1" type="curve" smooth="yes"/>
      <point x="20.8" y="457.4"/>
      <point x="52.5" y="427.4"/>
      <point x="92.3" y="427.4" type="curve" smooth="yes"/>
      <point x="131.3" y="427.4"/>
      <point x="153.5" y="453.0"/>
      <point x="153.5" y="490.6" type="curve" smooth="yes"/>
      <point x="153.5" y="518.6"/>
      <point x="141.5" y="539.2"/>
      <point x="119.3" y="548.3" type="curve"/>
      <point x="119.5" y="528.0" type="line"/>
      <point x="127.9" y="548.0"/>
      <point x="144.6" y="560.8"/>
      <point x="166.0" y="560.8" type="curve" smooth="yes"/>
      <point x="204.9" y="560.8"/>
      <point x="232.9" y="525.0"/>
      <point x="232.9" y="465.8" type="curve" smooth="yes"/>
      <point x="232.9" y="371.4"/>
      <point x="141.4" y="344.2"/>
      <point x="54.0" y="342.5" type="curve"/>
      <point x="89.1" y="234.0" type="line"/>
      <point x="203.9" y="217.0"/>
      <point x="287.7" y="143.3"/>
      <point x="344.3" y="24.0" type="curve"/>
    </contour>
  </outline>
</glyph>
<glyph name="da-beng" format="2">
  <advance width="431.9"/>
  <unicode hex="09A6"/>
  <anchor x="356.1" y="87.0" name="bottom"/>
  <anchor x="367.7" y="70.0" name="bottom.rakaar"/>
  <anchor x="366.1" y="14.0" name="bottom.rvocalic"/>
  <anchor x="352.0" y="0.0" name="bottom.virama"/>
  <anchor x="107.3" y="570.0" name="top"/>
  <anchor x="109.6" y="570.0" name="topright"/>
  <anchor x="215.8" y="0.0" name="vedic"/>
  <outline>
    <contour>
      <point x="327.8" y="-9.8" type="curve"/>
      <point x="366.1" y="4.0" type="line"/>
      <point x="347.6" y="64.0"/>
      <point x="337.4" y="123.1"/>
      <point x="337.4" y="183.1" type="curve" smooth="yes"/>
      <point x="337.4" y="264.4"/>
      <point x="355.5" y="344.0"/>
      <point x="394.5" y="418.0" type="curve"/>
      <point x="315.6" y="491.7" type="line"/>
      <point x="230.5" y="430.7"/>
      <point x="148.4" y="347.9"/>
      <point x="94.7" y="276.2" type="curve"/>
      <point x="114.3" y="261.0" type="line"/>
      <point x="114.3" y="570.0" type="line"/>
      <point x="458.1" y="570.0" type="line"/>
      <point x="428.3" y="622.0" type="line"/>
      <point x="-26.2" y="622.0" type="line"/>
      <point x="3.6" y="570.0" type="line"/>
      <point x="62.4" y="570.0" type="line"/>
      <point x="62.4" y="208.2" type="line"/>
      <point x="111.4" y="177.3" type="line"/>
      <point x="185.8" y="270.8"/>
      <point x="255.6" y="348.0"/>
      <point x="333.8" y="408.3" type="curve"/>
      <point x="318.6" y="417.0" type="line"/>
      <point x="294.8" y="355.0"/>
      <point x="282.9" y="288.1"/>
      <point x="282.9" y="219.0" type="curve" smooth="yes"/>
      <point x="282.9" y="141.0"/>
      <point x="299.8" y="64.7"/>
    </contour>
  </outline>
</glyph>
<glyph name="dha-beng" format="2">
  <advance width="432.0"/>
  <unicode hex="09A7"/>
  <anchor x="356.8" y="30.0" name="bottom"/>
  <anchor x="356.9" y="70.0" name="bottom.rakaar"/>
  <anchor x="361.1" y="9.2" name="bottom.rvocalic"/>
  <anchor x="348.8" y="6.0" name="bottom.virama"/>
  <anchor x="354.1" y="570.0" name="top"/>
  <anchor x="356.4" y="570.0" name="topright"/>
  <anchor x="216.0" y="0.0" name="vedic"/>
  <outline>
    <contour>
      <point x="355.4" y="-13.0" type="line"/>
      <point x="361.1" y="-12.0" type="line"/>
      <point x="361.1" y="570.0" type="line"/>
      <point x="458.2" y="570.0" type="line"/>
      <point x="428.4" y="622.0" type="line"/>
      <point x="309.2" y="622.0" type="line"/>
      <point x="309.2" y="496.7" type="line"/>
      <point x="315.2" y="516.7" type="line"/>
      <point x="207.8" y="469.7"/>
      <point x="118.1" y="415.5"/>
      <point x="19.5" y="339.3" type="curve"/>
      <point x="69.6" y="230.5" type="line"/>
      <point x="178.5" y="201.5"/>
      <point x="261.6" y="134.9"/>
      <point x="315.4" y="19.1" type="curve"/>
    </contour>
    <contour>
      <point x="309.2" y="75.9" type="line"/>
      <point x="320.4" y="77.9" type="line"/>
      <point x="275.1" y="204.9"/>
      <point x="176.8" y="275.0"/>
      <point x="88.2" y="305.3" type="curve"/>
      <point x="96.0" y="287.3" type="line"/>
      <point x="161.9" y="347.3"/>
      <point x="245.6" y="391.4"/>
      <point x="318.4" y="425.0" type="curve"/>
      <point x="309.2" y="446.3" type="line"/>
    </contour>
    <contour>
      <point x="166.5" y="406.4" type="curve"/>
      <point x="186.8" y="438.4" type="line"/>
      <point x="138.3" y="443.0"/>
      <point x="110.2" y="473.7"/>
      <point x="110.2" y="507.0" type="curve" smooth="yes"/>
      <point x="110.2" y="541.0"/>
      <point x="129.7" y="559.4"/>
      <point x="154.1" y="559.4" type="curve" smooth="yes"/>
      <point x="160.7" y="559.4"/>
      <point x="167.6" y="558.4"/>
      <point x="175.2" y="555.4" type="curve"/>
      <point x="145.0" y="590.0" type="line"/>
      <point x="138.4" y="579.0"/>
      <point x="136.1" y="564.3"/>
      <point x="136.1" y="553.0" type="curve" smooth="yes"/>
      <point x="136.1" y="517.0"/>
      <point x="158.9" y="498.7"/>
      <point x="185.8" y="498.7" type="curve" smooth="yes"/>
      <point x="214.9" y="498.7"/>
      <point x="238.1" y="521.0"/>
      <point x="238.1" y="557.0" type="curve" smooth="yes"/>
      <point x="238.1" y="598.0"/>
      <point x="211.6" y="631.0"/>
      <point x="158.0" y="631.0" type="curve" smooth="yes"/>
      <point x="95.9" y="631.0"/>
      <point x="51.8" y="587.0"/>
      <point x="51.8" y="523.0" type="curve" smooth="yes"/>
      <point x="51.8" y="447.4"/>
      <point x="118.9" y="406.4"/>
    </contour>
  </outline>
</glyph>
<glyph name="na-beng" format="2">
  <advance width="434.4"/>
  <unicode hex="09A8"/>
  <anchor x="353.5" y="71.0" name="bottom"/>
  <anchor x="363.5" y="70.0" name="bottom.rakaar"/>
  <anchor x="363.5" y="11.0" name="bottom.rvocalic"/>
  <anchor x="347.7" y="6.0" name="bottom.virama"/>
  <anchor x="356.5" y="570.0" name="top"/>
  <anchor x="358.8" y="570.0" name="topright"/>
  <anchor x="217.2" y="0.0" name="vedic"/>
  <outline>
    <contour>
      <point x="358.5" y="-13.0" type="line"/>
      <point x="363.5" y="-12.0" type="line"/>
      <point x="363.5" y="570.0" type="line"/>
      <point x="460.6" y="570.0" type="line"/>
      <point x="430.8" y="622.0" type="line"/>
      <point x="-26.2" y="622.0" type="line"/>
      <point x="3.6" y="570.0" type="line"/>
      <point x="311.6" y="570.0" type="line"/>
      <point x="311.6" y="325.0" type="line" smooth="yes"/>
      <point x="311.6" y="264.9"/>
      <point x="318.3" y="205.1"/>
      <point x="321.0" y="170.1" type="curve"/>
      <point x="326.9" y="159.1" type="line"/>
      <point x="314.8" y="297.1"/>
      <point x="244.4" y="421.0"/>
      <point x="129.9" y="421.0" type="curve" smooth="yes"/>
      <point x="68.1" y="421.0"/>
      <point x="23.3" y="379.0"/>
      <point x="23.3" y="312.0" type="curve" smooth="yes"/>
      <point x="23.3" y="254.8"/>
      <point x="54.2" y="207.8"/>
      <point x="113.3" y="207.8" type="curve" smooth="yes"/>
      <point x="164.6" y="207.8"/>
      <point x="191.7" y="244.5"/>
      <point x="191.7" y="293.0" type="curve" smooth="yes"/>
      <point x="191.7" y="314.0"/>
      <point x="185.7" y="341.0"/>
      <point x="170.1" y="353.0" type="curve"/>
      <point x="148.9" y="322.0" type="line"/>
      <point x="156.5" y="327.0"/>
      <point x="168.8" y="329.0"/>
      <point x="180.4" y="329.0" type="curve" smooth="yes"/>
      <point x="261.1" y="329.0"/>
      <point x="314.0" y="154.3"/>
      <point x="320.4" y="20.3" type="curve"/>
    </contour>
  </outline>
</glyph>
<glyph name="pa-beng" format="2">
  <advance width="530.9"/>
  <unicode hex="09AA"/>
  <anchor x="449.7" y="56.0" name="bottom"/>
  <anchor x="460.0" y="-3.0" name="bottom.rakaar"/>
  <anchor x="460.0" y="-2.0" name="bottom.rvocalic"/>
  <anchor x="440.7" y="6.0" name="bottom.virama"/>
  <anchor x="452.3" y="560.0" name="top"/>
  <anchor x="432.8" y="552.0" name="topright"/>
  <anchor x="265.3" y="0.0" name="vedic"/>
  <outline>
    <contour>
      <point x="456.3" y="-25.0" type="line"/>
      <point x="460.0" y="-24.0" type="line"/>
      <point x="460.0" y="570.0" type="line"/>
      <point x="557.1" y="570.0" type="line"/>
      <point x="527.0" y="622.0" type="line"/>
      <point x="457.9" y="622.0" type="line"/>
      <point x="453.2" y="665.0" type="line"/>
      <point x="412.1" y="698.0" type="line"/>
      <point x="408.1" y="697.0" type="line"/>
      <point x="408.1" y="534.0" type="line" smooth="yes"/>
      <point x="408.1" y="479.5"/>
      <point x="410.1" y="441.9"/>
      <point x="414.5" y="387.0" type="curve"/>
      <point x="419.6" y="396.2" type="line"/>
      <point x="372.0" y="523.2"/>
      <point x="304.8" y="626.3"/>
      <point x="204.7" y="626.3" type="curve" smooth="yes"/>
      <point x="115.7" y="626.3"/>
      <point x="48.0" y="536.4"/>
      <point x="8.7" y="434.9" type="curve"/>
      <point x="73.1" y="375.5" type="line"/>
      <point x="87.9" y="390.6"/>
      <point x="106.3" y="400.2"/>
      <point x="128.2" y="400.2" type="curve" smooth="yes"/>
      <point x="156.3" y="400.2"/>
      <point x="174.6" y="380.7"/>
      <point x="174.6" y="349.3" type="curve" smooth="yes"/>
      <point x="174.6" y="318.9"/>
      <point x="159.0" y="289.2"/>
      <point x="134.1" y="266.1" type="curve"/>
      <point x="192.0" y="214.3" type="line"/>
      <point x="374.1" y="437.3" type="line"/>
      <point x="333.6" y="508.2" type="line"/>
      <point x="187.1" y="320.9" type="line"/>
      <point x="198.3" y="300.1" type="line"/>
      <point x="207.5" y="320.9"/>
      <point x="212.5" y="342.9"/>
      <point x="212.5" y="362.9" type="curve" smooth="yes"/>
      <point x="212.5" y="412.3"/>
      <point x="186.9" y="454.0"/>
      <point x="135.7" y="454.0" type="curve" smooth="yes"/>
      <point x="112.6" y="454.0"/>
      <point x="90.3" y="446.4"/>
      <point x="75.1" y="435.7" type="curve"/>
      <point x="97.7" y="422.7" type="line"/>
      <point x="116.5" y="494.4"/>
      <point x="168.5" y="557.0"/>
      <point x="221.9" y="557.0" type="curve" smooth="yes"/>
      <point x="308.1" y="557.0"/>
      <point x="371.5" y="437.9"/>
      <point x="414.1" y="306.7" type="curve"/>
      <point x="408.1" y="372.0" type="line"/>
      <point x="408.1" y="3.0" type="line"/>
    </contour>
  </outline>
</glyph>
<glyph name="pha-beng" format="2">
  <advance width="567.8"/>
  <unicode hex="09AB"/>
  <anchor x="365.4" y="30.0" name="bottom"/>
  <anchor x="365.5" y="70.0" name="bottom.rakaar"/>
  <anchor x="369.7" y="9.2" name="bottom.rvocalic"/>
  <anchor x="357.4" y="6.0" name="bottom.virama"/>
  <anchor x="362.7" y="570.0" name="top"/>
  <anchor x="365.0" y="570.0" name="topright"/>
  <anchor x="283.4" y="0.0" name="vedic"/>
  <outline>
    <contour>
      <point x="364.0" y="-13.0" type="line"/>
      <point x="369.7" y="-12.0" type="line"/>
      <point x="369.7" y="471.5" type="line"/>
      <point x="348.3" y="435.9" type="line"/>
      <point x="363.1" y="437.9"/>
      <point x="378.3" y="438.9"/>
      <point x="391.5" y="438.9" type="curve" smooth="yes"/>
      <point x="475.2" y="438.9"/>
      <point x="517.4" y="392.9"/>
      <point x="517.4" y="329.7" type="curve" smooth="yes"/>
      <point x="517.4" y="313.3"/>
      <point x="514.1" y="301.5"/>
      <point x="507.2" y="290.2" type="curve"/>
      <point x="526.5" y="287.0" type="line"/>
      <point x="519.0" y="327.0"/>
      <point x="498.8" y="344.6"/>
      <point x="468.2" y="344.6" type="curve" smooth="yes"/>
      <point x="430.1" y="344.6"/>
      <point x="408.8" y="314.0"/>
      <point x="408.8" y="276.0" type="curve" smooth="yes"/>
      <point x="408.8" y="241.0"/>
      <point x="429.4" y="203.0"/>
      <point x="477.1" y="203.0" type="curve" smooth="yes"/>
      <point x="530.1" y="203.0"/>
      <point x="558.0" y="255.3"/>
      <point x="558.0" y="325.6" type="curve" smooth="yes"/>
      <point x="558.0" y="453.6"/>
      <point x="470.3" y="521.0"/>
      <point x="361.3" y="521.0" type="curve" smooth="yes"/>
      <point x="343.7" y="521.0"/>
      <point x="332.4" y="520.0"/>
      <point x="317.8" y="517.0" type="curve"/>
      <point x="317.8" y="75.9" type="line"/>
      <point x="329.0" y="77.9" type="line"/>
      <point x="284.0" y="207.3"/>
      <point x="185.6" y="266.2"/>
      <point x="96.1" y="289.8" type="curve"/>
      <point x="103.2" y="270.4" type="line"/>
      <point x="143.6" y="305.4"/>
      <point x="208.3" y="348.4"/>
      <point x="260.0" y="380.2" type="curve"/>
      <point x="219.6" y="467.8"/>
      <point x="162.3" y="537.0"/>
      <point x="66.2" y="582.0" type="curve"/>
      <point x="67.4" y="570.0" type="line"/>
      <point x="594.0" y="570.0" type="line"/>
      <point x="564.9" y="622.0" type="line"/>
      <point x="-26.2" y="622.0" type="line"/>
      <point x="39.5" y="503.3" type="line"/>
      <point x="102.6" y="488.5"/>
      <point x="149.7" y="462.8"/>
      <point x="204.0" y="405.5" type="curve"/>
      <point x="197.6" y="439.8" type="line"/>
      <point x="148.1" y="410.8"/>
      <point x="74.1" y="361.1"/>
      <point x="28.1" y="323.1" type="curve"/>
      <point x="80.3" y="214.3" type="line"/>
      <point x="195.5" y="192.9"/>
      <point x="269.9" y="136.1"/>
      <point x="324.0" y="19.1" type="curve"/>
    </contour>
  </outline>
</glyph>
<glyph name="ba-beng" format="2">
  <advance width="430.5"/>
  <unicode hex="09AC"/>
  <anchor x="355.3" y="30.0" name="bottom"/>
  <anchor x="355.4" y="70.0" name="bottom.rakaar"/>
  <anchor x="359.6" y="8.0" name="bottom.rvocalic"/>
  <anchor x="347.3" y="6.0" name="bottom.virama"/>
  <anchor x="162.0" y="75.0" name="nukta"/>
  <anchor x="352.6" y="570.0" name="top"/>
  <anchor x="354.9" y="570.0" name="topright"/>
  <anchor x="215.1" y="0.0" name="vedic"/>
  <outline>
    <contour>
      <point x="353.9" y="-13.0" type="line"/>
      <point x="359.6" y="-12.0" type="line"/>
      <point x="359.6" y="570.0" type="line"/>
      <point x="456.7" y="570.0" type="line"/>
      <point x="426.9" y="622.0" type="line"/>
      <point x="-26.2" y="622.0" type="line"/>
      <point x="3.6" y="570.0" type="line"/>
      <point x="307.7" y="570.0" type="line"/>
      <point x="307.7" y="501.2" type="line"/>
      <point x="313.7" y="521.2" type="line"/>
      <point x="206.3" y="474.2"/>
      <point x="116.6" y="420.0"/>
      <point x="18.0" y="343.8" type="curve"/>
      <point x="68.1" y="235.0" type="line"/>
      <point x="180.6" y="207.2"/>
      <point x="260.1" y="137.0"/>
      <point x="313.9" y="19.1" type="curve"/>
    </contour>
    <contour>
      <point x="307.7" y="75.9" type="line"/>
      <point x="318.9" y="77.9" type="line"/>
      <point x="272.4" y="210.0"/>
      <point x="175.0" y="281.9"/>
      <point x="86.7" y="309.8" type="curve"/>
      <point x="94.5" y="292.1" type="line"/>
      <point x="160.4" y="352.1"/>
      <point x="244.1" y="396.2"/>
      <point x="316.9" y="429.8" type="curve"/>
      <point x="307.7" y="452.0" type="line"/>
    </contour>
  </outline>
</glyph>
<glyph name="bha-beng" format="2">
  <advance width="506.8"/>
  <unicode hex="09AD"/>
  <anchor x="359.3" y="54.0" name="bottom"/>
  <anchor x="426.8" y="14.0" name="bottom.rakaar"/>
  <anchor x="365.5" y="61.0" name="bottom.rvocalic"/>
  <anchor x="319.3" y="34.0" name="bottom.virama"/>
  <anchor x="277.4" y="570.0" name="top"/>
  <anchor x="279.7" y="570.0" name="topright"/>
  <anchor x="253.4" y="0.0" name="vedic"/>
  <outline>
    <contour>
      <point x="300.2" y="71.0" type="curve" smooth="yes"/>
      <point x="414.8" y="71.0"/>
      <point x="480.8" y="160.0"/>
      <point x="480.8" y="290.6" type="curve" smooth="yes"/>
      <point x="480.8" y="398.0"/>
      <point x="435.2" y="471.0"/>
      <point x="397.4" y="508.6" type="curve"/>
      <point x="343.0" y="406.1"/>
      <point x="300.4" y="374.4"/>
      <point x="256.2" y="368.4" type="curve"/>
      <point x="273.3" y="354.1" type="line"/>
      <point x="287.2" y="370.1"/>
      <point x="294.8" y="387.5"/>
      <point x="294.8" y="412.1" type="curve" smooth="yes"/>
      <point x="294.8" y="456.0"/>
      <point x="267.3" y="486.0"/>
      <point x="228.8" y="486.0" type="curve" smooth="yes"/>
      <point x="182.7" y="486.0"/>
      <point x="156.2" y="449.0"/>
      <point x="156.2" y="407.1" type="curve" smooth="yes"/>
      <point x="156.2" y="339.1"/>
      <point x="202.0" y="297.5"/>
      <point x="268.9" y="297.5" type="curve" smooth="yes"/>
      <point x="326.3" y="297.5"/>
      <point x="383.8" y="336.7"/>
      <point x="430.4" y="422.0" type="curve"/>
      <point x="401.6" y="415.1" type="line"/>
      <point x="421.7" y="384.1"/>
      <point x="433.3" y="354.3"/>
      <point x="433.3" y="306.0" type="curve" smooth="yes"/>
      <point x="433.3" y="223.0"/>
      <point x="383.0" y="158.5"/>
      <point x="297.5" y="158.5" type="curve" smooth="yes"/>
      <point x="193.3" y="158.5"/>
      <point x="107.5" y="242.0"/>
      <point x="53.7" y="504.2" type="curve"/>
      <point x="14.4" y="494.0" type="line"/>
      <point x="67.6" y="178.0"/>
      <point x="168.7" y="71.0"/>
    </contour>
    <contour>
      <point x="3.6" y="570.0" type="line"/>
      <point x="533.0" y="570.0" type="line"/>
      <point x="502.5" y="622.0" type="line"/>
      <point x="-26.2" y="622.0" type="line"/>
    </contour>
  </outline>
</glyph>
<glyph name="ma-beng" format="2">
  <advance width="461.4"/>
  <unicode hex="09AE"/>
  <anchor x="382.0" y="58.7" name="bottom"/>
  <anchor x="390.5" y="70.0" name="bottom.rakaar"/>
  <anchor x="390.5" y="11.3" name="bottom.rvocalic"/>
  <anchor x="374.7" y="6.0" name="bottom.virama"/>
  <anchor x="383.5" y="570.0" name="top"/>
  <anchor x="385.8" y="570.0" name="topright"/>
  <anchor x="230.7" y="0.0" name="vedic"/>
  <outline>
    <contour>
      <point x="385.5" y="-13.0" type="line"/>
      <point x="390.5" y="-12.0" type="line"/>
      <point x="390.5" y="570.0" type="line"/>
      <point x="487.6" y="570.0" type="line"/>
      <point x="457.8" y="622.0" type="line"/>
      <point x="-26.2" y="622.0" type="line"/>
      <point x="3.6" y="570.0" type="line"/>
      <point x="48.5" y="570.0" type="line"/>
      <point x="32.1" y="596.0" type="line"/>
      <point x="27.8" y="590.0"/>
      <point x="25.2" y="572.6"/>
      <point x="25.2" y="559.0" type="curve" smooth="yes"/>
      <point x="25.2" y="515.7"/>
      <point x="48.1" y="487.3"/>
      <point x="113.4" y="452.8" type="curve" smooth="yes"/>
      <point x="168.9" y="424.6"/>
      <point x="187.9" y="394.4"/>
      <point x="187.9" y="350.6" type="curve" smooth="yes"/>
      <point x="187.9" y="328.3"/>
      <point x="174.5" y="304.6"/>
      <point x="163.9" y="293.6" type="curve"/>
      <point x="228.5" y="319.6" type="line"/>
      <point x="210.7" y="331.6"/>
      <point x="193.0" y="339.6"/>
      <point x="166.9" y="339.6" type="curve" smooth="yes"/>
      <point x="108.1" y="339.6"/>
      <point x="74.9" y="304.1"/>
      <point x="74.9" y="247.8" type="curve" smooth="yes"/>
      <point x="74.9" y="190.1"/>
      <point x="110.6" y="155.8"/>
      <point x="157.3" y="155.8" type="curve" smooth="yes"/>
      <point x="210.5" y="155.8"/>
      <point x="234.6" y="193.4"/>
      <point x="248.8" y="240.4" type="curve"/>
      <point x="217.5" y="239.2" type="line"/>
      <point x="282.9" y="230.3"/>
      <point x="321.4" y="152.2"/>
      <point x="346.2" y="21.2" type="curve"/>
    </contour>
    <contour>
      <point x="347.8" y="112.3" type="curve"/>
      <point x="354.8" y="114.3" type="line"/>
      <point x="333.1" y="238.2"/>
      <point x="282.2" y="287.4"/>
      <point x="240.1" y="313.5" type="curve"/>
      <point x="252.5" y="271.2" type="line"/>
      <point x="257.8" y="292.5"/>
      <point x="258.8" y="309.8"/>
      <point x="258.8" y="328.2" type="curve" smooth="yes"/>
      <point x="258.8" y="400.0"/>
      <point x="223.2" y="431.5"/>
      <point x="177.8" y="461.8" type="curve" smooth="yes"/>
      <point x="140.8" y="486.6"/>
      <point x="116.7" y="514.1"/>
      <point x="116.7" y="567.0" type="curve" smooth="yes"/>
      <point x="116.7" y="573.0"/>
      <point x="118.4" y="580.0"/>
      <point x="121.8" y="587.0" type="curve"/>
      <point x="89.4" y="570.0" type="line"/>
      <point x="338.6" y="570.0" type="line"/>
      <point x="338.6" y="310.6" type="line" smooth="yes"/>
      <point x="338.6" y="255.9"/>
      <point x="341.3" y="182.6"/>
    </contour>
  </outline>
</glyph>
<glyph name="ya-beng" format="2">
  <advance width="440.6"/>
  <unicode hex="09AF"/>
  <anchor x="365.4" y="30.0" name="bottom"/>
  <anchor x="365.5" y="70.0" name="bottom.rakaar"/>
  <anchor x="369.7" y="9.2" name="bottom.rvocalic"/>
  <anchor x="357.4" y="6.0" name="bottom.virama"/>
  <anchor x="171.8" y="70.8" name="nukta"/>
  <anchor x="362.7" y="570.0" name="top"/>
  <anchor x="365.0" y="570.0" name="topright"/>
  <anchor x="219.8" y="0.0" name="vedic"/>
  <outline>
    <contour>
      <point x="364.0" y="-13.0" type="line"/>
      <point x="369.7" y="-12.0" type="line"/>
      <point x="369.7" y="570.0" type="line"/>
      <point x="466.8" y="570.0" type="line"/>
      <point x="437.0" y="622.0" type="line"/>
      <point x="-26.2" y="622.0" type="line"/>
      <point x="39.2" y="504.2" type="line"/>
      <point x="102.6" y="489.7"/>
      <point x="149.7" y="462.8"/>
      <point x="204.0" y="405.5" type="curve"/>
      <point x="197.6" y="439.8" type="line"/>
      <point x="148.1" y="410.8"/>
      <point x="74.1" y="361.1"/>
      <point x="28.1" y="323.1" type="curve"/>
      <point x="80.3" y="214.3" type="line"/>
      <point x="195.5" y="192.9"/>
      <point x="269.9" y="136.1"/>
      <point x="324.0" y="19.1" type="curve"/>
    </contour>
    <contour>
      <point x="317.8" y="75.9" type="line"/>
      <point x="329.0" y="77.9" type="line"/>
      <point x="284.0" y="207.3"/>
      <point x="185.6" y="266.2"/>
      <point x="96.1" y="289.8" type="curve"/>
      <point x="103.2" y="270.4" type="line"/>
      <point x="143.6" y="305.4"/>
      <point x="208.3" y="348.4"/>
      <point x="260.0" y="380.2" type="curve"/>
      <point x="219.6" y="467.8"/>
      <point x="162.3" y="537.0"/>
      <point x="66.2" y="582.0" type="curve"/>
      <point x="67.4" y="570.0" type="line"/>
      <point x="317.8" y="570.0" type="line"/>
    </contour>
  </outline>
</glyph>
<glyph name="la-beng" format="2">
  <advance width="519.0"/>
  <unicode hex="09B2"/>
  <anchor x="437.8" y="56.0" name="bottom"/>
  <anchor x="448.1" y="-3.0" name="bottom.rakaar"/>
  <anchor x="448.1" y="-2.0" name="bottom.rvocalic"/>
  <anchor x="428.8" y="6.0" name="bottom.virama"/>
  <anchor x="441.1" y="570.0" name="top"/>
  <anchor x="443.4" y="570.0" name="topright"/>
  <anchor x="259.0" y="0.0" name="vedic"/>
  <outline>
    <contour>
      <point x="444.4" y="-25.0" type="line"/>
      <point x="448.1" y="-24.0" type="line"/>
      <point x="448.1" y="570.0" type="line"/>
      <point x="545.2" y="570.0" type="line"/>
      <point x="515.1" y="622.0" type="line"/>
      <point x="-26.2" y="622.0" type="line"/>
      <point x="3.6" y="570.0" type="line"/>
      <point x="396.2" y="570.0" type="line"/>
      <point x="396.2" y="455.0" type="line" smooth="yes"/>
      <point x="396.2" y="412.0"/>
      <point x="398.9" y="370.0"/>
      <point x="402.6" y="323.0" type="curve"/>
      <point x="405.0" y="332.0" type="line"/>
      <point x="378.9" y="435.0"/>
      <point x="340.2" y="472.0"/>
      <point x="301.7" y="472.0" type="curve" smooth="yes"/>
      <point x="264.1" y="472.0"/>
      <point x="234.4" y="436.0"/>
      <point x="236.5" y="356.0" type="curve"/>
      <point x="248.4" y="363.0" type="line"/>
      <point x="231.1" y="422.0"/>
      <point x="192.9" y="474.0"/>
      <point x="128.8" y="474.0" type="curve" smooth="yes"/>
      <point x="60.6" y="474.0"/>
      <point x="11.200000000000001" y="413.8"/>
      <point x="11.200000000000001" y="313.5" type="curve" smooth="yes"/>
      <point x="11.200000000000001" y="191.5"/>
      <point x="81.9" y="124.0"/>
      <point x="155.7" y="124.0" type="curve" smooth="yes"/>
      <point x="204.7" y="124.0"/>
      <point x="236.2" y="154.0"/>
      <point x="236.2" y="205.0" type="curve" smooth="yes"/>
      <point x="236.2" y="251.6"/>
      <point x="209.1" y="282.3"/>
      <point x="168.0" y="282.3" type="curve" smooth="yes"/>
      <point x="132.5" y="282.3"/>
      <point x="105.0" y="256.3"/>
      <point x="105.0" y="215.0" type="curve" smooth="yes"/>
      <point x="105.0" y="194.4"/>
      <point x="108.9" y="175.0"/>
      <point x="122.0" y="161.1" type="curve"/>
      <point x="142.0" y="200.3" type="line"/>
      <point x="133.4" y="197.3"/>
      <point x="124.8" y="196.3"/>
      <point x="116.9" y="196.3" type="curve" smooth="yes"/>
      <point x="89.3" y="196.3"/>
      <point x="65.1" y="236.6"/>
      <point x="65.1" y="289.1" type="curve" smooth="yes"/>
      <point x="65.1" y="348.1"/>
      <point x="94.0" y="382.4"/>
      <point x="146.4" y="382.4" type="curve" smooth="yes"/>
      <point x="195.4" y="382.4"/>
      <point x="233.3" y="353.0"/>
      <point x="252.1" y="292.0" type="curve"/>
      <point x="273.4" y="284.0" type="line"/>
      <point x="273.4" y="351.3"/>
      <point x="295.0" y="378.0"/>
      <point x="320.4" y="378.0" type="curve" smooth="yes"/>
      <point x="351.9" y="378.0"/>
      <point x="383.0" y="343.1"/>
      <point x="402.1" y="237.0" type="curve"/>
      <point x="396.2" y="290.0" type="line"/>
      <point x="396.2" y="3.0" type="line"/>
    </contour>
  </outline>
</glyph>
<glyph name="sha-beng" format="2">
  <advance width="511.4"/>
  <unicode hex="09B6"/>
  <anchor x="430.2" y="56.0" name="bottom"/>
  <anchor x="440.5" y="-3.0" name="bottom.rakaar"/>
  <anchor x="440.5" y="-2.0" name="bottom.rvocalic"/>
  <anchor x="421.2" y="6.0" name="bottom.virama"/>
  <anchor x="432.8" y="560.0" name="top"/>
  <anchor x="413.3" y="552.0" name="topright"/>
  <anchor x="255.2" y="0.0" name="vedic"/>
  <outline>
    <contour>
      <point x="436.8" y="-25.0" type="line"/>
      <point x="440.5" y="-24.0" type="line"/>
      <point x="440.5" y="570.0" type="line"/>
      <point x="537.6" y="570.0" type="line"/>
      <point x="507.5" y="622.0" type="line"/>
      <point x="438.4" y="622.0" type="line"/>
      <point x="433.7" y="665.0" type="line"/>
      <point x="392.6" y="698.0" type="line"/>
      <point x="388.6" y="697.0" type="line"/>
      <point x="388.6" y="574.9" type="line" smooth="yes"/>
      <point x="388.6" y="528.2"/>
      <point x="390.3" y="488.0"/>
      <point x="394.0" y="451.7" type="curve"/>
      <point x="399.0" y="454.5" type="line"/>
      <point x="365.7" y="559.0"/>
      <point x="311.0" y="629.0"/>
      <point x="252.9" y="629.0" type="curve" smooth="yes"/>
      <point x="217.2" y="629.0"/>
      <point x="186.1" y="605.0"/>
      <point x="154.5" y="543.0" type="curve"/>
      <point x="118.1" y="599.0"/>
      <point x="92.5" y="622.0"/>
      <point x="44.1" y="622.0" type="curve" smooth="yes"/>
      <point x="-26.2" y="622.0" type="line"/>
      <point x="3.6" y="570.0" type="line"/>
      <point x="44.0" y="570.0" type="line" smooth="yes"/>
      <point x="82.7" y="570.0"/>
      <point x="108.9" y="550.0"/>
      <point x="134.7" y="500.7" type="curve"/>
      <point x="143.1" y="515.4" type="line"/>
      <point x="49.8" y="477.0"/>
      <point x="23.1" y="414.0"/>
      <point x="23.1" y="363.0" type="curve" smooth="yes"/>
      <point x="23.1" y="307.0"/>
      <point x="58.5" y="287.0"/>
      <point x="87.0" y="287.0" type="curve" smooth="yes"/>
      <point x="127.3" y="287.0"/>
      <point x="155.4" y="319.0"/>
      <point x="166.0" y="371.0" type="curve"/>
      <point x="176.9" y="313.0"/>
      <point x="207.3" y="287.0"/>
      <point x="243.3" y="287.0" type="curve" smooth="yes"/>
      <point x="280.3" y="287.0"/>
      <point x="307.1" y="310.0"/>
      <point x="307.1" y="363.0" type="curve" smooth="yes"/>
      <point x="307.1" y="419.0"/>
      <point x="270.3" y="467.0"/>
      <point x="206.6" y="503.4" type="curve"/>
      <point x="213.4" y="485.4" type="line"/>
      <point x="228.5" y="531.0"/>
      <point x="247.1" y="554.0"/>
      <point x="272.8" y="554.0" type="curve" smooth="yes"/>
      <point x="306.5" y="554.0"/>
      <point x="357.4" y="500.5"/>
      <point x="393.8" y="379.1" type="curve"/>
      <point x="388.6" y="425.5" type="line"/>
      <point x="388.6" y="3.0" type="line"/>
    </contour>
  </outline>
</glyph>
<glyph name="ssa-beng" format="2">
  <advance width="440.6"/>
  <unicode hex="09B7"/>
  <anchor x="365.4" y="30.0" name="bottom"/>
  <anchor x="365.5" y="70.0" name="bottom.rakaar"/>
  <anchor x="369.7" y="9.2" name="bottom.rvocalic"/>
  <anchor x="357.4" y="6.0" name="bottom.virama"/>
  <anchor x="362.7" y="570.0" name="top"/>
  <anchor x="365.0" y="570.0" name="topright"/>
  <anchor x="219.8" y="0.0" name="vedic"/>
  <outline>
    <contour>
      <point x="364.0" y="-13.0" type="line"/>
      <point x="369.7" y="-12.0" type="line"/>
      <point x="369.7" y="570.0" type="line"/>
      <point x="466.8" y="570.0" type="line"/>
      <point x="437.0" y="622.0" type="line"/>
      <point x="-26.2" y="622.0" type="line"/>
      <point x="39.2" y="504.2" type="line"/>
      <point x="152.3" y="487.0"/>
      <point x="248.7" y="388.7"/>
      <point x="340.1" y="265.3" type="curve"/>
      <point x="347.1" y="324.3" type="line"/>
      <point x="305.9" y="384.4"/>
      <point x="182.2" y="535.7"/>
      <point x="66.0" y="582.0" type="curve"/>
      <point x="67.4" y="570.0" type="line"/>
      <point x="317.8" y="570.0" type="line"/>
      <point x="317.8" y="75.9" type="line"/>
      <point x="329.0" y="77.3" type="line"/>
      <point x="286.4" y="205.8"/>
      <point x="181.7" y="268.6"/>
      <point x="96.1" y="289.8" type="curve"/>
      <point x="110.2" y="269.0" type="line"/>
      <point x="151.4" y="304.4"/>
      <point x="216.3" y="350.0"/>
      <point x="264.1" y="379.9" type="curve"/>
      <point x="204.7" y="444.0" type="line"/>
      <point x="158.6" y="418.0"/>
      <point x="82.7" y="367.7"/>
      <point x="28.1" y="323.1" type="curve"/>
      <point x="83.3" y="214.3" type="line"/>
      <point x="195.8" y="192.9"/>
      <point x="269.9" y="135.8"/>
      <point x="324.0" y="19.1" type="curve"/>
    </contour>
  </outline>
</glyph>
<glyph name="sa-beng" format="2">
  <advance width="512.5"/>
  <unicode hex="09B8"/>
  <anchor x="431.3" y="56.0" name="bottom"/>
  <anchor x="441.6" y="-3.0" name="bottom.rakaar"/>
  <anchor x="441.6" y="-1.4" name="bottom.rvocalic"/>
  <anchor x="422.3" y="6.0" name="bottom.virama"/>
  <anchor x="434.6" y="570.0" name="top"/>
  <anchor x="436.9" y="570.0" name="topright"/>
  <anchor x="256.1" y="0.0" name="vedic"/>
  <outline>
    <contour>
      <point x="437.9" y="-25.0" type="line"/>
      <point x="441.6" y="-24.0" type="line"/>
      <point x="441.6" y="570.0" type="line"/>
      <point x="538.7" y="570.0" type="line"/>
      <point x="508.6" y="622.0" type="line"/>
      <point x="-26.2" y="622.0" type="line"/>
      <point x="44.8" y="500.0" type="line"/>
      <point x="55.7" y="502.0"/>
      <point x="69.9" y="504.0"/>
      <point x="86.8" y="504.0" type="curve" smooth="yes"/>
      <point x="162.6" y="504.0"/>
      <point x="216.1" y="442.0"/>
      <point x="218.8" y="302.0" type="curve"/>
      <point x="243.6" y="356.0" type="line"/>
      <point x="243.8" y="492.0"/>
      <point x="189.9" y="557.0"/>
      <point x="86.4" y="580.0" type="curve"/>
      <point x="92.3" y="570.0" type="line"/>
      <point x="389.7" y="570.0" type="line"/>
      <point x="389.7" y="462.8" type="line" smooth="yes"/>
      <point x="389.7" y="423.1"/>
      <point x="392.4" y="372.4"/>
      <point x="396.7" y="329.3" type="curve"/>
      <point x="401.3" y="344.0" type="line"/>
      <point x="372.6" y="412.0"/>
      <point x="344.6" y="453.0"/>
      <point x="305.4" y="453.0" type="curve" smooth="yes"/>
      <point x="282.7" y="453.0"/>
      <point x="252.3" y="437.1"/>
      <point x="227.3" y="356.1" type="curve" smooth="yes"/>
      <point x="196.0" y="254.5"/>
      <point x="175.8" y="206.1"/>
      <point x="141.1" y="206.1" type="curve" smooth="yes"/>
      <point x="117.9" y="206.1"/>
      <point x="99.1" y="217.9"/>
      <point x="72.7" y="278.9" type="curve"/>
      <point x="36.7" y="264.0" type="line"/>
      <point x="73.7" y="157.2"/>
      <point x="113.4" y="125.0"/>
      <point x="157.5" y="125.0" type="curve" smooth="yes"/>
      <point x="204.6" y="125.0"/>
      <point x="234.1" y="163.0"/>
      <point x="266.7" y="258.6" type="curve" smooth="yes"/>
      <point x="298.7" y="352.0"/>
      <point x="312.1" y="367.0"/>
      <point x="331.6" y="367.0" type="curve" smooth="yes"/>
      <point x="349.5" y="367.0"/>
      <point x="370.1" y="350.0"/>
      <point x="394.7" y="269.0" type="curve"/>
      <point x="389.7" y="329.4" type="line"/>
      <point x="389.7" y="3.0" type="line"/>
    </contour>
  </outline>
</glyph>
<glyph name="ha-beng" format="2">
  <advance width="389.7"/>
  <unicode hex="09B9"/>
  <anchor x="220.9" y="90.0" name="bottom"/>
  <anchor x="319.2" y="-59.0" name="bottom.rakaar"/>
  <anchor x="272.4" y="90.0" name="bottom.rvocalic"/>
  <anchor x="206.9" y="90.0" name="bottom.virama"/>
  <anchor x="194.9" y="570.0" name="top"/>
  <anchor x="177.8" y="570.0" name="topright"/>
  <anchor x="194.5" y="0.0" name="vedic"/>
  <outline>
    <contour>
      <point x="378.1" y="-45.0" type="curve"/>
      <point x="404.9" y="-12.0" type="line"/>
      <point x="332.9" y="70.0"/>
      <point x="241.7" y="161.8"/>
      <point x="148.0" y="187.5" type="curve"/>
      <point x="105.0" y="166.4" type="line"/>
      <point x="124.2" y="156.9"/>
      <point x="151.0" y="155.0"/>
      <point x="176.3" y="155.0" type="curve" smooth="yes"/>
      <point x="270.8" y="155.0"/>
      <point x="349.7" y="218.8"/>
      <point x="349.7" y="333.6" type="curve" smooth="yes"/>
      <point x="349.7" y="433.1"/>
      <point x="294.2" y="508.0"/>
      <point x="161.1" y="508.0" type="curve" smooth="yes"/>
      <point x="86.2" y="508.0"/>
      <point x="42.3" y="474.9"/>
      <point x="42.3" y="414.6" type="curve" smooth="yes"/>
      <point x="42.3" y="363.6"/>
      <point x="72.1" y="331.0"/>
      <point x="119.4" y="331.0" type="curve" smooth="yes"/>
      <point x="174.4" y="331.0"/>
      <point x="198.3" y="376.6"/>
      <point x="198.3" y="432.6" type="curve" smooth="yes"/>
      <point x="198.3" y="483.3"/>
      <point x="166.6" y="544.0"/>
      <point x="137.0" y="578.0" type="curve"/>
      <point x="47.5" y="578.0" type="line"/>
      <point x="91.3" y="558.0"/>
      <point x="128.6" y="520.3"/>
      <point x="145.8" y="468.0" type="curve"/>
      <point x="140.0" y="408.0" type="line"/>
      <point x="155.5" y="428.4"/>
      <point x="184.6" y="444.0"/>
      <point x="209.8" y="444.0" type="curve" smooth="yes"/>
      <point x="267.8" y="444.0"/>
      <point x="296.4" y="402.8"/>
      <point x="296.4" y="349.1" type="curve" smooth="yes"/>
      <point x="296.4" y="270.5"/>
      <point x="240.5" y="228.4"/>
      <point x="150.1" y="228.4" type="curve" smooth="yes"/>
      <point x="101.30000000000001" y="228.4"/>
      <point x="61.1" y="236.8"/>
      <point x="28.3" y="253.1" type="curve"/>
      <point x="48.3" y="157.2" type="line"/>
      <point x="174.7" y="132.2"/>
      <point x="258.8" y="77.3"/>
    </contour>
    <contour>
      <point x="3.6" y="570.0" type="line"/>
      <point x="415.9" y="570.0" type="line"/>
      <point x="386.1" y="622.0" type="line"/>
      <point x="-26.2" y="622.0" type="line"/>
    </contour>
  </outline>
</glyph>
<glyph name="nukta-beng" format="2">
  <unicode hex="09BC"/>
  <anchor x="0.0" y="-125.0" name="_nukta"/>
  <outline>
    <contour>
      <point x="0.0" y="-184.6" type="curve" smooth="yes"/>
      <point x="31.6" y="-184.6"/>
      <point x="54.3" y="-161.3"/>
      <point x="54.3" y="-125.0" type="curve" smooth="yes"/>
      <point x="54.3" y="-88.0"/>
      <point x="31.9" y="-64.4"/>
      <point x="0.0" y="-64.4" type="curve" smooth="yes"/>
      <point x="-33.9" y="-64.4"/>
      <point x="-56.3" y="-88.0"/>
      <point x="-56.3" y="-125.0" type="curve" smooth="yes"/>
      <point x="-56.3" y="-161.0"/>
      <point x="-33.6" y="-184.6"/>
    </contour>
  </outline>
</glyph>
<glyph name="avagraha-beng" format="2">
  <advance width="374.0"/>
  <unicode hex="09BD"/>
  <anchor x="178.5" y="570.0" name="top"/>
  <anchor x="175.6" y="570.0" name="topright"/>
  <outline>
    <contour>
      <point x="378.1" y="-45.0" type="curve"/>
      <point x="404.9" y="-12.0" type="line"/>
      <point x="332.9" y="70.0"/>
      <point x="241.7" y="161.8"/>
      <point x="148.0" y="187.5" type="curve"/>
      <point x="105.0" y="166.4" type="line"/>
      <point x="124.2" y="156.9"/>
      <point x="151.0" y="155.0"/>
      <point x="176.3" y="155.0" type="curve" smooth="yes"/>
      <point x="270.8" y="155.0"/>
      <point x="349.7" y="218.8"/>
      <point x="349.7" y="333.6" type="curve" smooth="yes"/>
      <point x="349.7" y="433.1"/>
      <point x="294.2" y="508.0"/>
      <point x="161.1" y="508.0" type="curve" smooth="yes"/>
      <point x="86.2" y="508.0"/>
      <point x="42.3" y="474.9"/>
      <point x="42.3" y="414.6" type="curve" smooth="yes"/>
      <point x="42.3" y="363.6"/>
      <point x="72.1" y="331.0"/>
      <point x="119.4" y="331.0" type="curve" smooth="yes"/>
      <point x="174.4" y="331.0"/>
      <point x="198.3" y="376.6"/>
      <point x="198.3" y="432.6" type="curve" smooth="yes"/>
      <point x="198.3" y="498.2"/>
      <point x="146.7" y="583.1"/>
      <point x="105.0" y="622.0" type="curve"/>
      <point x="-24.8" y="622.0" type="line"/>
      <point x="5.0" y="570.0" type="line"/>
      <point x="94.1" y="570.0" type="line"/>
      <point x="60.1" y="578.0" type="line"/>
      <point x="94.8" y="556.6"/>
      <point x="132.1" y="518.9"/>
      <point x="145.8" y="468.0" type="curve"/>
      <point x="140.0" y="408.0" type="line"/>
      <point x="155.5" y="428.4"/>
      <point x="184.6" y="444.0"/>
      <point x="209.8" y="444.0" type="curve" smooth="yes"/>
      <point x="267.8" y="444.0"/>
      <point x="296.4" y="402.8"/>
      <point x="296.4" y="349.1" type="curve" smooth="yes"/>
      <point x="296.4" y="270.5"/>
      <point x="240.5" y="228.4"/>
      <point x="150.1" y="228.4" type="curve" smooth="yes"/>
      <point x="101.30000000000001" y="228.4"/>
      <point x="61.1" y="236.8"/>
      <point x="28.3" y="253.1" type="curve"/>
      <point x="48.3" y="157.2" type="line"/>
      <point x="174.7" y="132.2"/>
      <point x="258.8" y="77.3"/>
    </contour>
  </outline>
</glyph>
<glyph name="iMatra-beng" format="2">
  <advance width="193.7"/>
  <unicode hex="09BF"/>
  <anchor x="571.0" y="570.0" name="top"/>
  <anchor x="418.5" y="592.0" name="topright"/>
  <outline>
    <contour>
      <point x="119.1" y="-25.0" type="line"/>
      <point x="122.8" y="-24.0" type="line"/>
      <point x="122.8" y="570.0" type="line"/>
      <point x="219.9" y="570.0" type="line"/>
      <point x="189.8" y="622.0" type="line"/>
      <point x="115.7" y="622.0" type="line"/>
      <point x="100.8" y="645.5"/>
      <point x="84.6" y="674.1"/>
      <point x="72.5" y="697.4" type="curve"/>
      <point x="90.8" y="770.9"/>
      <point x="165.7" y="848.7"/>
      <point x="247.8" y="848.7" type="curve" smooth="yes"/>
      <point x="329.4" y="848.7"/>
      <point x="411.1" y="801.6"/>
      <point x="510.3" y="676.1" type="curve"/>
      <point x="537.8" y="698.8" type="line"/>
      <point x="457.6" y="816.6"/>
      <point x="348.2" y="919.3"/>
      <point x="227.2" y="919.3" type="curve" smooth="yes"/>
      <point x="131.2" y="919.3"/>
      <point x="37.1" y="844.8"/>
      <point x="-4.7" y="715.4" type="curve"/>
      <point x="17.8" y="683.3"/>
      <point x="45.1" y="651.8"/>
      <point x="68.8" y="622.0" type="curve"/>
      <point x="-26.2" y="622.0" type="line"/>
      <point x="3.3" y="570.0" type="line"/>
      <point x="70.9" y="570.0" type="line"/>
      <point x="70.9" y="3.0" type="line"/>
    </contour>
  </outline>
</glyph>
<glyph name="iiMatra-beng" format="2">
  <advance width="193.7"/>
  <unicode hex="09C0"/>
  <anchor x="116.7" y="665.0" name="top"/>
  <anchor x="-2.5999999999999996" y="598.0" name="topright"/>
  <anchor x="-175.1" y="0.0" name="vedic"/>
  <outline>
    <contour>
      <point x="119.1" y="-25.0" type="line"/>
      <point x="122.8" y="-24.0" type="line"/>
      <point x="122.8" y="570.0" type="line"/>
      <point x="219.9" y="570.0" type="line"/>
      <point x="189.8" y="622.0" type="line"/>
      <point x="120.4" y="622.0" type="line"/>
      <point x="102.9" y="827.0"/>
      <point x="-8.9" y="918.0"/>
      <point x="-190.5" y="918.0" type="curve" smooth="yes"/>
      <point x="-322.8" y="918.0"/>
      <point x="-397.8" y="865.9"/>
      <point x="-397.8" y="787.9" type="curve" smooth="yes"/>
      <point x="-397.8" y="714.4"/>
      <point x="-342.2" y="692.0"/>
      <point x="-293.5" y="692.0" type="curve" smooth="yes"/>
      <point x="-245.3" y="692.0"/>
      <point x="-212.4" y="707.0"/>
      <point x="-174.8" y="707.0" type="curve" smooth="yes"/>
      <point x="-143.0" y="707.0"/>
      <point x="-122.8" y="693.0"/>
      <point x="-122.8" y="618.0" type="curve"/>
      <point x="-70.3" y="618.0" type="line"/>
      <point x="-72.3" y="650.0" type="line" smooth="yes"/>
      <point x="-77.3" y="734.0"/>
      <point x="-125.1" y="770.0"/>
      <point x="-185.1" y="770.0" type="curve" smooth="yes"/>
      <point x="-226.1" y="770.0"/>
      <point x="-256.7" y="763.0"/>
      <point x="-298.1" y="763.0" type="curve" smooth="yes"/>
      <point x="-336.9" y="763.0"/>
      <point x="-349.8" y="773.4"/>
      <point x="-349.8" y="791.6" type="curve" smooth="yes"/>
      <point x="-349.8" y="827.2"/>
      <point x="-292.7" y="847.0"/>
      <point x="-191.0" y="847.0" type="curve" smooth="yes"/>
      <point x="-48.0" y="847.0"/>
      <point x="63.9" y="796.0"/>
      <point x="69.5" y="622.0" type="curve"/>
      <point x="-26.2" y="622.0" type="line"/>
      <point x="3.3" y="570.0" type="line"/>
      <point x="70.9" y="570.0" type="line"/>
      <point x="70.9" y="3.0" type="line"/>
    </contour>
  </outline>
</glyph>
<glyph name="rVocalicMatra-beng" format="2">
  <unicode hex="09C3"/>
  <anchor x="0.0" y="0.0" name="_bottom.rvocalic"/>
  <outline>
    <contour>
      <point x="22.700000000000003" y="-261.3" type="curve"/>
      <point x="45.8" y="-230.3" type="line"/>
      <point x="14.7" y="-189.2"/>
      <point x="-56.0" y="-118.2"/>
      <point x="-130.3" y="-78.2" type="curve"/>
      <point x="-122.4" y="-103.1" type="line"/>
      <point x="-83.0" y="-72.1"/>
      <point x="-46.4" y="-47.3"/>
      <point x="0.0" y="-22.6" type="curve"/>
      <point x="0.0" y="-10.0" type="line"/>
      <point x="-37.2" y="36.8" type="line"/>
      <point x="-85.1" y="12.4"/>
      <point x="-150.0" y="-27.4"/>
      <point x="-208.7" y="-77.1" type="curve"/>
      <point x="-165.5" y="-131.8" type="line"/>
      <point x="-94.8" y="-157.4"/>
      <point x="-31.9" y="-202.6"/>
    </contour>
  </outline>
</glyph>
<glyph name="rrVocalicMatra-beng" format="2">
  <unicode hex="09C4"/>
  <anchor x="0.0" y="0.0" name="_bottom.rvocalic"/>
  <outline>
    <contour>
      <point x="23.6" y="-254.4" type="curve"/>
      <point x="46.7" y="-223.4" type="line"/>
      <point x="15.600000000000001" y="-185.3"/>
      <point x="-56.0" y="-118.2"/>
      <point x="-130.3" y="-78.2" type="curve"/>
      <point x="-122.4" y="-103.1" type="line"/>
      <point x="-83.0" y="-72.1"/>
      <point x="-46.4" y="-47.3"/>
      <point x="0.0" y="-22.6" type="curve"/>
      <point x="0.0" y="-10.0" type="line"/>
      <point x="-37.2" y="36.8" type="line"/>
      <point x="-85.1" y="12.4"/>
      <point x="-150.0" y="-27.4"/>
      <point x="-208.7" y="-77.1" type="curve"/>
      <point x="-165.5" y="-131.8" type="line"/>
      <point x="-94.8" y="-157.4"/>
      <point x="-31.0" y="-198.7"/>
    </contour>
    <contour>
      <point x="25.5" y="-398.9" type="curve"/>
      <point x="48.6" y="-367.9" type="line"/>
      <point x="18.1" y="-328.9"/>
      <point x="-48.1" y="-263.6"/>
      <point x="-122.1" y="-223.6" type="curve"/>
      <point x="-115.7" y="-247.9" type="line"/>
      <point x="-87.2" y="-224.4"/>
      <point x="-61.1" y="-205.1"/>
      <point x="-27.5" y="-185.0" type="curve"/>
      <point x="-88.3" y="-141.4" type="line"/>
      <point x="-126.1" y="-164.9"/>
      <point x="-165.8" y="-193.1"/>
      <point x="-200.5" y="-222.5" type="curve"/>
      <point x="-157.3" y="-277.2" type="line"/>
      <point x="-86.9" y="-302.8"/>
      <point x="-28.200000000000003" y="-342.6"/>
    </contour>
  </outline>
</glyph>
<glyph name="eMatra-beng" format="2">
  <advance width="314.8"/>
  <unicode hex="09C7"/>
  <outline>
    <contour>
      <point x="224.5" y="-14.0" type="curve" smooth="yes"/>
      <point x="273.8" y="-14.0"/>
      <point x="305.1" y="16.2"/>
      <point x="305.1" y="68.2" type="curve" smooth="yes"/>
      <point x="305.1" y="111.2"/>
      <point x="280.2" y="147.5"/>
      <point x="234.1" y="147.5" type="curve" smooth="yes"/>
      <point x="196.2" y="147.5"/>
      <point x="168.7" y="121.5"/>
      <point x="168.7" y="81.5" type="curve" smooth="yes"/>
      <point x="168.7" y="57.2"/>
      <point x="178.1" y="36.9"/>
      <point x="191.0" y="22.3" type="curve"/>
      <point x="205.3" y="29.6" type="line"/>
      <point x="136.9" y="59.2"/>
      <point x="103.5" y="142.7"/>
      <point x="103.5" y="260.2" type="curve" smooth="yes"/>
      <point x="103.5" y="426.8"/>
      <point x="201.8" y="570.0"/>
      <point x="298.7" y="570.0" type="curve" smooth="yes"/>
      <point x="341.0" y="570.0" type="line"/>
      <point x="311.9" y="622.0" type="line"/>
      <point x="-26.2" y="622.0" type="line"/>
      <point x="2.9000000000000004" y="570.0" type="line"/>
      <point x="181.2" y="570.0" type="line"/>
      <point x="172.4" y="591.0" type="line"/>
      <point x="104.4" y="542.0"/>
      <point x="43.0" y="434.2"/>
      <point x="43.0" y="287.7" type="curve" smooth="yes"/>
      <point x="43.0" y="110.4"/>
      <point x="125.5" y="-14.0"/>
    </contour>
  </outline>
</glyph>
<glyph name="aiMatra-beng" format="2">
  <advance width="314.8"/>
  <unicode hex="09C8"/>
  <outline>
    <contour>
      <point x="267.9" y="612.0" type="curve"/>
      <point x="309.5" y="612.0" type="line"/>
      <point x="303.8" y="746.0"/>
      <point x="265.5" y="798.7"/>
      <point x="187.2" y="798.7" type="curve" smooth="yes"/>
      <point x="154.7" y="798.7"/>
      <point x="129.8" y="792.5"/>
      <point x="90.1" y="792.5" type="curve" smooth="yes"/>
      <point x="34.6" y="792.5"/>
      <point x="10.7" y="814.9"/>
      <point x="10.7" y="871.2" type="curve" smooth="yes"/>
      <point x="10.7" y="888.0"/>
      <point x="12.799999999999999" y="904.0"/>
      <point x="14.5" y="913.0" type="curve"/>
      <point x="-25.1" y="917.0" type="line"/>
      <point x="-29.5" y="894.1"/>
      <point x="-31.9" y="873.9"/>
      <point x="-31.9" y="850.2" type="curve" smooth="yes"/>
      <point x="-31.9" y="758.9"/>
      <point x="12.6" y="711.4"/>
      <point x="89.4" y="711.4" type="curve" smooth="yes"/>
      <point x="135.3" y="711.4"/>
      <point x="163.1" y="718.6"/>
      <point x="195.9" y="718.6" type="curve" smooth="yes"/>
      <point x="242.0" y="718.6"/>
      <point x="262.8" y="687.0"/>
    </contour>
    <component base="eMatra-beng"/>
  </outline>
</glyph>
<glyph name="halant-beng" format="2">
  <unicode hex="09CD"/>
  <anchor x="-75.0" y="0.0" name="_bottom.virama"/>
  <outline>
    <contour>
      <point x="85.0" y="-243.0" type="curve"/>
      <point x="114.0" y="-212.0" type="line"/>
      <point x="56.0" y="-133.0"/>
      <point x="-20.0" y="-83.0"/>
      <point x="-113.0" y="-53.0" type="curve"/>
      <point x="-133.0" y="-119.0" type="line"/>
      <point x="-48.0" y="-138.0"/>
      <point x="28.0" y="-183.0"/>
    </contour>
  </outline>
</glyph>
<glyph name="taKhanda-beng" format="2">
  <advance width="441.1"/>
  <unicode hex="09CE"/>
  <anchor x="233.1" y="570.0" name="top"/>
  <anchor x="230.2" y="570.0" name="topright"/>
  <outline>
    <contour>
      <point x="398.5" y="-40.0" type="line"/>
      <point x="419.0" y="-2.0"/>
      <point x="428.0" y="29.4"/>
      <point x="428.0" y="63.0" type="curve" smooth="yes"/>
      <point x="428.0" y="143.7"/>
      <point x="377.9" y="191.5"/>
      <point x="252.5" y="238.0" type="curve" smooth="yes"/>
      <point x="130.7" y="283.2"/>
      <point x="98.3" y="322.9"/>
      <point x="98.3" y="399.5" type="curve" smooth="yes"/>
      <point x="98.3" y="485.0"/>
      <point x="148.9" y="536.0"/>
      <point x="217.2" y="536.0" type="curve" smooth="yes"/>
      <point x="257.3" y="536.0"/>
      <point x="293.6" y="518.1"/>
      <point x="293.6" y="474.1" type="curve" smooth="yes"/>
      <point x="293.6" y="445.1"/>
      <point x="279.2" y="426.0"/>
      <point x="251.2" y="426.0" type="curve" smooth="yes"/>
      <point x="216.3" y="426.0"/>
      <point x="172.3" y="455.0"/>
      <point x="165.7" y="552.0" type="curve"/>
      <point x="134.4" y="531.0" type="line"/>
      <point x="137.5" y="433.0"/>
      <point x="170.2" y="337.0"/>
      <point x="246.6" y="337.0" type="curve" smooth="yes"/>
      <point x="312.6" y="337.0"/>
      <point x="341.7" y="413.3"/>
      <point x="341.7" y="484.0" type="curve" smooth="yes"/>
      <point x="341.7" y="551.0"/>
      <point x="307.2" y="618.0"/>
      <point x="221.1" y="618.0" type="curve" smooth="yes"/>
      <point x="106.7" y="618.0"/>
      <point x="45.400000000000006" y="507.3"/>
      <point x="45.400000000000006" y="397.0" type="curve" smooth="yes"/>
      <point x="45.400000000000006" y="272.1"/>
      <point x="94.9" y="195.6"/>
      <point x="235.7" y="151.0" type="curve" smooth="yes"/>
      <point x="346.5" y="115.7"/>
      <point x="373.6" y="87.7"/>
      <point x="373.6" y="38.7" type="curve" smooth="yes"/>
      <point x="373.6" y="19.7"/>
      <point x="368.6" y="-2.0"/>
      <point x="359.0" y="-24.0" type="curve"/>
    </contour>
  </outline>
</glyph>
<glyph name="auLength-beng" format="2">
  <advance width="193.7"/>
  <unicode hex="09D7"/>
  <anchor x="242.3" y="596.0" name="top"/>
  <anchor x="-31.8" y="620.0" name="topright"/>
  <anchor x="-175.1" y="0.0" name="vedic"/>
  <outline>
    <contour>
      <point x="119.1" y="-24.4" type="line"/>
      <point x="122.8" y="-23.4" type="line"/>
      <point x="122.8" y="570.0" type="line"/>
      <point x="219.9" y="570.0" type="line"/>
      <point x="189.8" y="622.0" type="line"/>
      <point x="-26.2" y="622.0" type="line"/>
      <point x="3.3" y="570.0" type="line"/>
      <point x="70.9" y="570.0" type="line"/>
      <point x="70.9" y="3.6" type="line"/>
    </contour>
    <contour>
      <point x="68.5" y="612.0" type="curve"/>
      <point x="123.4" y="612.0" type="line"/>
      <point x="118.2" y="739.0"/>
      <point x="58.0" y="805.6"/>
      <point x="-32.5" y="805.6" type="curve" smooth="yes"/>
      <point x="-83.6" y="805.6"/>
      <point x="-132.4" y="792.9"/>
      <point x="-202.0" y="792.9" type="curve" smooth="yes"/>
      <point x="-274.0" y="792.9"/>
      <point x="-307.1" y="815.3"/>
      <point x="-307.1" y="877.8" type="curve" smooth="yes"/>
      <point x="-307.1" y="886.8"/>
      <point x="-306.8" y="899.2"/>
      <point x="-305.1" y="913.0" type="curve"/>
      <point x="-345.4" y="917.0" type="line"/>
      <point x="-348.4" y="896.2"/>
      <point x="-349.4" y="878.2"/>
      <point x="-349.4" y="860.5" type="curve" smooth="yes"/>
      <point x="-349.4" y="771.5"/>
      <point x="-300.9" y="711.1"/>
      <point x="-195.7" y="711.1" type="curve" smooth="yes"/>
      <point x="-124.5" y="711.1"/>
      <point x="-76.2" y="728.1"/>
      <point x="-18.8" y="728.1" type="curve" smooth="yes"/>
      <point x="41.6" y="728.1"/>
      <point x="70.5" y="695.3"/>
      <point x="70.5" y="632.0" type="curve" smooth="yes"/>
      <point x="70.5" y="623.3"/>
      <point x="69.5" y="616.3"/>
    </contour>
  </outline>
</glyph>
<glyph name="llVocalic-beng" format="2">
  <advance width="584.9"/>
  <unicode hex="09E1"/>
  <anchor x="311.2" y="570.0" name="top"/>
  <anchor x="292.3" y="0.0" name="vedic"/>
  <outline>
    <contour>
      <point x="239.9" y="22.0" type="curve"/>
      <point x="338.3" y="46.0"/>
      <point x="407.1" y="156.5"/>
      <point x="407.1" y="284.0" type="curve" smooth="yes"/>
      <point x="407.1" y="423.0"/>
      <point x="348.6" y="472.0"/>
      <point x="226.6" y="507.0" type="curve" smooth="yes"/>
      <point x="155.4" y="527.3"/>
      <point x="105.0" y="543.9"/>
      <point x="105.0" y="617.2" type="curve" smooth="yes"/>
      <point x="105.0" y="645.3"/>
      <point x="113.1" y="672.0"/>
      <point x="123.1" y="698.0" type="curve"/>
      <point x="84.8" y="712.0" type="line"/>
      <point x="68.2" y="674.7"/>
      <point x="57.400000000000006" y="632.4"/>
      <point x="57.400000000000006" y="591.3" type="curve" smooth="yes"/>
      <point x="57.400000000000006" y="482.6"/>
      <point x="115.1" y="446.6"/>
      <point x="219.4" y="420.0" type="curve" smooth="yes"/>
      <point x="309.3" y="396.3"/>
      <point x="360.6" y="373.5"/>
      <point x="360.6" y="264.7" type="curve" smooth="yes"/>
      <point x="360.6" y="194.7"/>
      <point x="328.0" y="119.1"/>
      <point x="282.8" y="104.4" type="curve"/>
      <point x="309.9" y="86.0" type="line"/>
      <point x="310.9" y="199.0"/>
      <point x="269.6" y="315.0"/>
      <point x="166.7" y="315.0" type="curve" smooth="yes"/>
      <point x="86.8" y="315.0"/>
      <point x="42.5" y="251.0"/>
      <point x="42.5" y="172.0" type="curve" smooth="yes"/>
      <point x="42.5" y="83.4"/>
      <point x="84.5" y="36.0"/>
      <point x="136.7" y="36.0" type="curve" smooth="yes"/>
      <point x="179.1" y="36.0"/>
      <point x="198.3" y="70.0"/>
      <point x="198.3" y="105.0" type="curve" smooth="yes"/>
      <point x="198.3" y="143.0"/>
      <point x="173.5" y="168.0"/>
      <point x="140.6" y="168.0" type="curve" smooth="yes"/>
      <point x="112.5" y="168.0"/>
      <point x="87.0" y="145.0"/>
      <point x="86.7" y="117.0" type="curve"/>
      <point x="123.2" y="118.3" type="line"/>
      <point x="105.8" y="127.0"/>
      <point x="91.3" y="147.0"/>
      <point x="91.3" y="182.0" type="curve" smooth="yes"/>
      <point x="91.3" y="219.3"/>
      <point x="114.7" y="251.0"/>
      <point x="154.2" y="251.0" type="curve" smooth="yes"/>
      <point x="219.5" y="251.0"/>
      <point x="242.2" y="160.3"/>
      <point x="242.2" y="73.0" type="curve" smooth="yes"/>
      <point x="242.2" y="55.0"/>
      <point x="241.9" y="38.0"/>
    </contour>
    <contour>
      <point x="403.7" y="-194.0" type="line"/>
      <point x="484.1" y="-172.0"/>
      <point x="565.3" y="-65.4"/>
      <point x="565.3" y="72.0" type="curve" smooth="yes"/>
      <point x="565.3" y="209.5"/>
      <point x="508.3" y="259.8"/>
      <point x="388.1" y="294.4" type="curve"/>
      <point x="378.5" y="208.0" type="line"/>
      <point x="470.5" y="184.7"/>
      <point x="518.8" y="157.3"/>
      <point x="518.8" y="52.7" type="curve" smooth="yes"/>
      <point x="518.8" y="-17.3"/>
      <point x="486.2" y="-92.9"/>
      <point x="441.0" y="-107.6" type="curve"/>
      <point x="468.1" y="-126.0" type="line"/>
      <point x="469.1" y="-13.0"/>
      <point x="427.8" y="103.0"/>
      <point x="324.9" y="103.0" type="curve" smooth="yes"/>
      <point x="245.0" y="103.0"/>
      <point x="200.7" y="39.0"/>
      <point x="200.7" y="-40.0" type="curve" smooth="yes"/>
      <point x="200.7" y="-128.6"/>
      <point x="242.7" y="-176.0"/>
      <point x="294.9" y="-176.0" type="curve" smooth="yes"/>
      <point x="337.3" y="-176.0"/>
      <point x="356.5" y="-142.0"/>
      <point x="356.5" y="-107.0" type="curve" smooth="yes"/>
      <point x="356.5" y="-69.0"/>
      <point x="331.7" y="-44.0"/>
      <point x="298.8" y="-44.0" type="curve" smooth="yes"/>
      <point x="270.7" y="-44.0"/>
      <point x="245.2" y="-67.0"/>
      <point x="244.9" y="-95.0" type="curve"/>
      <point x="281.4" y="-93.7" type="line"/>
      <point x="264.0" y="-85.0"/>
      <point x="249.5" y="-65.0"/>
      <point x="249.5" y="-30.0" type="curve" smooth="yes"/>
      <point x="249.5" y="7.3"/>
      <point x="272.9" y="39.0"/>
      <point x="312.4" y="39.0" type="curve" smooth="yes"/>
      <point x="377.7" y="39.0"/>
      <point x="400.4" y="-51.7"/>
      <point x="400.4" y="-139.0" type="curve" smooth="yes"/>
      <point x="400.4" y="-157.0"/>
      <point x="400.1" y="-174.0"/>
      <point x="398.1" y="-190.0" type="curve"/>
    </contour>
  </outline>
</glyph>
<glyph name="lVocalicMatra-beng" format="2">
  <unicode hex="09E2"/>
  <anchor x="0.0" y="42.0" name="_bottom"/>
  <outline>
    <contour>
      <point x="-64.7" y="-277.0" type="line"/>
      <point x="-4.5" y="-269.0"/>
      <point x="47.5" y="-226.0"/>
      <point x="47.5" y="-138.0" type="curve" smooth="yes"/>
      <point x="47.5" y="-73.4"/>
      <point x="12.0" y="-43.0"/>
      <point x="-39.4" y="-24.0" type="curve" smooth="yes"/>
      <point x="-81.9" y="-8.3"/>
      <point x="-100.1" y="-1.0"/>
      <point x="-100.1" y="34.0" type="curve" smooth="yes"/>
      <point x="-100.1" y="41.6"/>
      <point x="-98.8" y="53.0"/>
      <point x="-93.8" y="65.0" type="curve"/>
      <point x="-120.8" y="75.0" type="line"/>
      <point x="-135.7" y="51.0"/>
      <point x="-142.4" y="28.3"/>
      <point x="-142.4" y="6.0" type="curve" smooth="yes"/>
      <point x="-142.4" y="-42.9"/>
      <point x="-114.7" y="-61.5"/>
      <point x="-62.4" y="-79.9" type="curve" smooth="yes"/>
      <point x="-9.899999999999999" y="-98.5"/>
      <point x="15.200000000000001" y="-115.3"/>
      <point x="15.200000000000001" y="-151.0" type="curve" smooth="yes"/>
      <point x="15.200000000000001" y="-183.3"/>
      <point x="-3.5" y="-206.0"/>
      <point x="-20.6" y="-206.0" type="curve" smooth="yes"/>
      <point x="-29.3" y="-206.0"/>
      <point x="-34.9" y="-202.3"/>
      <point x="-39.5" y="-197.0" type="curve"/>
      <point x="-18.5" y="-241.0" type="line"/>
      <point x="-17.5" y="-235.0"/>
      <point x="-17.5" y="-229.0"/>
      <point x="-17.5" y="-222.0" type="curve" smooth="yes"/>
      <point x="-17.5" y="-152.0"/>
      <point x="-53.1" y="-104.0"/>
      <point x="-103.6" y="-104.0" type="curve" smooth="yes"/>
      <point x="-152.5" y="-104.0"/>
      <point x="-179.1" y="-148.0"/>
      <point x="-179.1" y="-190.0" type="curve" smooth="yes"/>
      <point x="-179.1" y="-236.0"/>
      <point x="-153.9" y="-253.0"/>
      <point x="-130.0" y="-253.0" type="curve" smooth="yes"/>
      <point x="-104.1" y="-253.0"/>
      <point x="-92.5" y="-232.0"/>
      <point x="-92.5" y="-210.0" type="curve" smooth="yes"/>
      <point x="-92.5" y="-186.0"/>
      <point x="-106.4" y="-169.0"/>
      <point x="-126.7" y="-169.0" type="curve" smooth="yes"/>
      <point x="-142.6" y="-169.0"/>
      <point x="-156.6" y="-182.0"/>
      <point x="-156.9" y="-197.0" type="curve"/>
      <point x="-145.0" y="-202.0" type="line"/>
      <point x="-147.0" y="-198.0"/>
      <point x="-147.3" y="-194.0"/>
      <point x="-147.3" y="-189.0" type="curve" smooth="yes"/>
      <point x="-147.3" y="-167.0"/>
      <point x="-132.4" y="-149.0"/>
      <point x="-113.6" y="-149.0" type="curve" smooth="yes"/>
      <point x="-79.9" y="-149.0"/>
      <point x="-65.3" y="-188.9"/>
      <point x="-65.3" y="-239.2" type="curve" smooth="yes"/>
      <point x="-65.3" y="-251.1"/>
      <point x="-66.3" y="-262.6"/>
      <point x="-68.0" y="-273.0" type="curve"/>
    </contour>
  </outline>
</glyph>
<glyph name="llVocalicMatra-beng" format="2">
  <unicode hex="09E3"/>
  <anchor x="0.0" y="42.0" name="_bottom"/>
  <outline>
    <contour>
      <point x="-66.2" y="-269.4" type="curve"/>
      <point x="6.800000000000001" y="-263.8"/>
      <point x="48.7" y="-211.3"/>
      <point x="48.7" y="-134.7" type="curve" smooth="yes"/>
      <point x="48.7" y="-70.4"/>
      <point x="13.2" y="-40.6"/>
      <point x="-38.8" y="-24.0" type="curve" smooth="yes"/>
      <point x="-83.1" y="-9.8"/>
      <point x="-100.1" y="-0.7"/>
      <point x="-100.1" y="34.0" type="curve" smooth="yes"/>
      <point x="-100.1" y="41.6"/>
      <point x="-98.8" y="53.0"/>
      <point x="-93.8" y="65.0" type="curve"/>
      <point x="-120.8" y="75.0" type="line"/>
      <point x="-135.7" y="51.0"/>
      <point x="-142.4" y="28.3"/>
      <point x="-142.4" y="6.0" type="curve" smooth="yes"/>
      <point x="-142.4" y="-42.9"/>
      <point x="-116.2" y="-63.0"/>
      <point x="-60.6" y="-79.9" type="curve" smooth="yes"/>
      <point x="-8.399999999999999" y="-96.1"/>
      <point x="16.4" y="-112.3"/>
      <point x="16.4" y="-147.7" type="curve" smooth="yes"/>
      <point x="16.4" y="-181.2"/>
      <point x="-3.8" y="-203.9"/>
      <point x="-22.1" y="-203.9" type="curve" smooth="yes"/>
      <point x="-29.9" y="-203.9"/>
      <point x="-34.9" y="-200.8"/>
      <point x="-38.9" y="-197.0" type="curve"/>
      <point x="-17.9" y="-234.7" type="line"/>
      <point x="-17.2" y="-229.6"/>
      <point x="-17.2" y="-224.2"/>
      <point x="-17.2" y="-218.4" type="curve" smooth="yes"/>
      <point x="-17.2" y="-149.9"/>
      <point x="-52.5018" y="-104.3"/>
      <point x="-102.1" y="-104.3" type="curve" smooth="yes"/>
      <point x="-152.5" y="-104.3"/>
      <point x="-178.8" y="-148.3"/>
      <point x="-178.8" y="-190.0" type="curve" smooth="yes"/>
      <point x="-178.8" y="-236.0"/>
      <point x="-153.6" y="-253.3"/>
      <point x="-129.7" y="-253.3" type="curve" smooth="yes"/>
      <point x="-103.8" y="-253.3"/>
      <point x="-91.9" y="-232.3"/>
      <point x="-91.9" y="-210.3" type="curve" smooth="yes"/>
      <point x="-91.9" y="-186.3"/>
      <point x="-106.1" y="-169.3"/>
      <point x="-126.1" y="-169.3" type="curve" smooth="yes"/>
      <point x="-142.3" y="-169.3"/>
      <point x="-156.3" y="-182.3"/>
      <point x="-156.6" y="-197.3" type="curve"/>
      <point x="-144.7" y="-202.3" type="line"/>
      <point x="-146.7" y="-198.3"/>
      <point x="-147.0" y="-194.3"/>
      <point x="-147.0" y="-189.0" type="curve" smooth="yes"/>
      <point x="-147.0" y="-167.0"/>
      <point x="-132.1" y="-149.3"/>
      <point x="-113.3" y="-149.3" type="curve" smooth="yes"/>
      <point x="-79.6" y="-149.3"/>
      <point x="-63.2" y="-184.1"/>
      <point x="-63.2" y="-234.7" type="curve" smooth="yes"/>
      <point x="-63.2" y="-246.3"/>
      <point x="-64.2" y="-258.4"/>
    </contour>
    <contour>
      <point x="34.6" y="-391.3" type="line"/>
      <point x="90.9" y="-383.3"/>
      <point x="143.8" y="-340.3"/>
      <point x="143.8" y="-252.0" type="curve" smooth="yes"/>
      <point x="143.8" y="-185.6"/>
      <point x="110.6" y="-157.3"/>
      <point x="44.7" y="-131.5" type="curve"/>
      <point x="26.0" y="-187.2" type="line"/>
      <point x="81.4" y="-195.8"/>
      <point x="111.5" y="-220.5"/>
      <point x="111.5" y="-264.1" type="curve" smooth="yes"/>
      <point x="111.5" y="-298.8"/>
      <point x="94.3" y="-320.9"/>
      <point x="76.6" y="-320.9" type="curve" smooth="yes"/>
      <point x="69.1" y="-320.9"/>
      <point x="64.1" y="-317.8"/>
      <point x="59.8" y="-314.0" type="curve"/>
      <point x="81.1" y="-351.7" type="line"/>
      <point x="81.8" y="-346.3"/>
      <point x="81.8" y="-340.9"/>
      <point x="81.8" y="-334.8" type="curve" smooth="yes"/>
      <point x="81.8" y="-267.5"/>
      <point x="46.5" y="-218.3"/>
      <point x="-4.0" y="-218.3" type="curve" smooth="yes"/>
      <point x="-52.9" y="-218.3"/>
      <point x="-80.1" y="-262.3"/>
      <point x="-80.1" y="-304.0" type="curve" smooth="yes"/>
      <point x="-80.1" y="-350.0"/>
      <point x="-54.6" y="-367.3"/>
      <point x="-31.0" y="-367.3" type="curve" smooth="yes"/>
      <point x="-4.8" y="-367.3"/>
      <point x="6.800000000000001" y="-346.3"/>
      <point x="6.800000000000001" y="-324.0" type="curve" smooth="yes"/>
      <point x="6.800000000000001" y="-300.0"/>
      <point x="-7.1" y="-283.3"/>
      <point x="-27.4" y="-283.3" type="curve" smooth="yes"/>
      <point x="-43.3" y="-283.3"/>
      <point x="-57.3" y="-296.3"/>
      <point x="-57.6" y="-311.3" type="curve"/>
      <point x="-45.7" y="-316.3" type="line"/>
      <point x="-47.7" y="-312.3"/>
      <point x="-48.0" y="-308.3"/>
      <point x="-48.0" y="-303.0" type="curve" smooth="yes"/>
      <point x="-48.0" y="-281.0"/>
      <point x="-32.8" y="-263.3"/>
      <point x="-13.399999999999999" y="-263.3" type="curve" smooth="yes"/>
      <point x="20.0" y="-263.3"/>
      <point x="34.3" y="-300.8"/>
      <point x="34.3" y="-352.0" type="curve" smooth="yes"/>
      <point x="34.3" y="-364.8"/>
      <point x="33.3" y="-376.6"/>
      <point x="31.3" y="-387.3" type="curve"/>
    </contour>
  </outline>
</glyph>
<glyph name="zero-beng" format="2">
  <advance width="488.6"/>
  <unicode hex="09E6"/>
  <outline>
    <contour>
      <point x="244.6" y="52.0" type="curve" smooth="yes"/>
      <point x="359.3" y="52.0"/>
      <point x="431.7" y="175.4"/>
      <point x="431.7" y="317.8" type="curve" smooth="yes"/>
      <point x="431.7" y="463.9"/>
      <point x="361.2" y="581.0"/>
      <point x="245.4" y="581.0" type="curve" smooth="yes"/>
      <point x="135.9" y="581.0"/>
      <point x="56.900000000000006" y="457.9"/>
      <point x="56.900000000000006" y="315.5" type="curve" smooth="yes"/>
      <point x="56.900000000000006" y="159.6"/>
      <point x="135.6" y="52.0"/>
    </contour>
    <contour>
      <point x="226.3" y="118.5" type="curve" smooth="yes"/>
      <point x="166.5" y="118.5"/>
      <point x="125.4" y="184.2"/>
      <point x="125.4" y="279.5" type="curve" smooth="yes"/>
      <point x="125.4" y="397.4"/>
      <point x="181.6" y="512.2"/>
      <point x="265.3" y="512.2" type="curve" smooth="yes"/>
      <point x="327.6" y="512.2"/>
      <point x="365.5" y="449.0"/>
      <point x="365.5" y="355.9" type="curve" smooth="yes"/>
      <point x="365.5" y="243.3"/>
      <point x="310.8" y="118.5"/>
    </contour>
  </outline>
</glyph>
<glyph name="one-beng" format="2">
  <advance width="426.3"/>
  <unicode hex="09E7"/>
  <outline>
    <contour>
      <point x="233.9" y="12.7" type="curve" smooth="yes"/>
      <point x="326.8" y="12.7"/>
      <point x="383.7" y="87.9"/>
      <point x="383.7" y="194.1" type="curve" smooth="yes"/>
      <point x="383.7" y="303.0"/>
      <point x="330.4" y="353.7"/>
      <point x="242.2" y="407.0" type="curve" smooth="yes"/>
      <point x="166.2" y="452.3"/>
      <point x="145.7" y="484.0"/>
      <point x="145.0" y="515.0" type="curve"/>
      <point x="119.5" y="513.6" type="line"/>
      <point x="126.5" y="504.9"/>
      <point x="136.9" y="500.0"/>
      <point x="152.6" y="500.0" type="curve" smooth="yes"/>
      <point x="187.7" y="500.0"/>
      <point x="208.1" y="526.9"/>
      <point x="208.1" y="561.3" type="curve" smooth="yes"/>
      <point x="208.1" y="596.0"/>
      <point x="185.5" y="624.0"/>
      <point x="142.4" y="624.0" type="curve" smooth="yes"/>
      <point x="94.1" y="624.0"/>
      <point x="59.0" y="583.0"/>
      <point x="59.0" y="523.5" type="curve" smooth="yes"/>
      <point x="59.0" y="444.7"/>
      <point x="111.9" y="394.6"/>
      <point x="199.9" y="350.4" type="curve" smooth="yes"/>
      <point x="297.5" y="301.4"/>
      <point x="337.4" y="263.7"/>
      <point x="337.4" y="194.0" type="curve" smooth="yes"/>
      <point x="337.4" y="126.0"/>
      <point x="299.0" y="81.8"/>
      <point x="241.7" y="81.8" type="curve" smooth="yes"/>
      <point x="214.8" y="81.8"/>
      <point x="196.6" y="91.5"/>
      <point x="184.0" y="109.5" type="curve"/>
      <point x="167.0" y="94.4" type="line"/>
      <point x="177.6" y="89.4"/>
      <point x="189.2" y="87.4"/>
      <point x="195.8" y="87.4" type="curve" smooth="yes"/>
      <point x="226.2" y="87.4"/>
      <point x="243.8" y="117.0"/>
      <point x="243.8" y="152.0" type="curve" smooth="yes"/>
      <point x="243.8" y="192.0"/>
      <point x="218.9" y="222.0"/>
      <point x="178.8" y="222.0" type="curve" smooth="yes"/>
      <point x="132.4" y="222.0"/>
      <point x="104.6" y="184.8"/>
      <point x="104.6" y="132.8" type="curve" smooth="yes"/>
      <point x="104.6" y="51.2"/>
      <point x="166.4" y="12.7"/>
    </contour>
  </outline>
</glyph>
<glyph name="two-beng" format="2">
  <advance width="406.8"/>
  <unicode hex="09E8"/>
  <outline>
    <contour>
      <point x="406.5" y="-35.0" type="curve"/>
      <point x="433.3" y="-2.0" type="line"/>
      <point x="367.6" y="77.9"/>
      <point x="268.7" y="172.0"/>
      <point x="175.0" y="201.0" type="curve"/>
      <point x="172.9" y="170.1" type="line"/>
      <point x="186.7" y="164.2"/>
      <point x="204.6" y="163.1"/>
      <point x="227.3" y="163.1" type="curve" smooth="yes"/>
      <point x="315.4" y="163.1"/>
      <point x="356.8" y="231.0"/>
      <point x="356.8" y="296.0" type="curve" smooth="yes"/>
      <point x="356.8" y="361.3"/>
      <point x="327.4" y="409.0"/>
      <point x="241.9" y="440.0" type="curve" smooth="yes"/>
      <point x="162.5" y="468.6"/>
      <point x="147.2" y="484.7"/>
      <point x="146.5" y="515.7" type="curve"/>
      <point x="121.0" y="513.6" type="line"/>
      <point x="128.0" y="504.9"/>
      <point x="138.4" y="500.0"/>
      <point x="154.1" y="500.0" type="curve" smooth="yes"/>
      <point x="189.2" y="500.0"/>
      <point x="209.6" y="526.9"/>
      <point x="209.6" y="561.3" type="curve" smooth="yes"/>
      <point x="209.6" y="596.0"/>
      <point x="187.0" y="624.0"/>
      <point x="143.9" y="624.0" type="curve" smooth="yes"/>
      <point x="96.8" y="624.0"/>
      <point x="60.2" y="583.3"/>
      <point x="60.2" y="523.2" type="curve" smooth="yes"/>
      <point x="60.2" y="445.3"/>
      <point x="114.9" y="410.1"/>
      <point x="204.0" y="383.4" type="curve" smooth="yes"/>
      <point x="285.7" y="359.0"/>
      <point x="306.6" y="342.9"/>
      <point x="306.6" y="305.4" type="curve" smooth="yes"/>
      <point x="306.6" y="261.0"/>
      <point x="264.9" y="235.6"/>
      <point x="193.4" y="235.6" type="curve" smooth="yes"/>
      <point x="142.9" y="235.6"/>
      <point x="95.8" y="248.6"/>
      <point x="56.7" y="271.6" type="curve"/>
      <point x="75.3" y="175.0" type="line"/>
      <point x="201.7" y="137.0"/>
      <point x="293.5" y="86.6"/>
    </contour>
  </outline>
</glyph>
<glyph name="three-beng" format="2">
  <advance width="533.4"/>
  <unicode hex="09E9"/>
  <outline>
    <contour>
      <point x="308.5" y="54.0" type="curve" smooth="yes"/>
      <point x="414.6" y="54.0"/>
      <point x="485.8" y="132.7"/>
      <point x="485.8" y="284.3" type="curve" smooth="yes"/>
      <point x="485.8" y="434.0"/>
      <point x="415.7" y="536.6"/>
      <point x="299.1" y="536.6" type="curve" smooth="yes"/>
      <point x="228.9" y="536.6"/>
      <point x="185.4" y="491.7"/>
      <point x="185.4" y="422.6" type="curve" smooth="yes"/>
      <point x="185.4" y="367.4"/>
      <point x="218.0" y="322.6"/>
      <point x="276.2" y="322.6" type="curve" smooth="yes"/>
      <point x="327.2" y="322.6"/>
      <point x="357.7" y="362.6"/>
      <point x="357.7" y="411.6" type="curve" smooth="yes"/>
      <point x="357.7" y="446.9"/>
      <point x="343.7" y="476.6"/>
      <point x="330.8" y="491.6" type="curve"/>
      <point x="303.1" y="448.6" type="line"/>
      <point x="313.0" y="452.6"/>
      <point x="326.9" y="454.6"/>
      <point x="342.2" y="454.6" type="curve" smooth="yes"/>
      <point x="389.5" y="454.6"/>
      <point x="435.6" y="413.1"/>
      <point x="435.6" y="302.6" type="curve" smooth="yes"/>
      <point x="435.6" y="189.5"/>
      <point x="381.4" y="141.1"/>
      <point x="306.6" y="141.1" type="curve" smooth="yes"/>
      <point x="191.2" y="141.1"/>
      <point x="118.80000000000001" y="234.6"/>
      <point x="62.1" y="501.5" type="curve"/>
      <point x="23.200000000000003" y="492.0" type="line"/>
      <point x="78.9" y="179.0"/>
      <point x="166.3" y="54.0"/>
    </contour>
  </outline>
</glyph>
<glyph name="four-beng" format="2">
  <advance width="450.3"/>
  <unicode hex="09EA"/>
  <outline>
    <contour>
      <point x="229.8" y="6.7" type="curve" smooth="yes"/>
      <point x="334.3" y="6.7"/>
      <point x="392.7" y="79.7"/>
      <point x="392.7" y="164.7" type="curve" smooth="yes"/>
      <point x="392.7" y="248.6"/>
      <point x="342.3" y="288.3"/>
      <point x="271.0" y="337.0" type="curve"/>
      <point x="235.0" y="313.7" type="line"/>
      <point x="285.6" y="277.7"/>
      <point x="322.6" y="236.7"/>
      <point x="322.6" y="182.0" type="curve" smooth="yes"/>
      <point x="322.6" y="114.3"/>
      <point x="270.0" y="70.3"/>
      <point x="210.4" y="70.3" type="curve" smooth="yes"/>
      <point x="163.3" y="70.3"/>
      <point x="123.1" y="97.0"/>
      <point x="123.1" y="155.0" type="curve" smooth="yes"/>
      <point x="123.1" y="216.6"/>
      <point x="179.8" y="249.0"/>
      <point x="250.3" y="291.2" type="curve" smooth="yes"/>
      <point x="328.7" y="338.4"/>
      <point x="378.9" y="379.9"/>
      <point x="378.9" y="467.7" type="curve" smooth="yes"/>
      <point x="378.9" y="562.0"/>
      <point x="307.1" y="615.3"/>
      <point x="223.0" y="615.3" type="curve" smooth="yes"/>
      <point x="129.0" y="615.3"/>
      <point x="75.3" y="551.0"/>
      <point x="75.3" y="476.0" type="curve" smooth="yes"/>
      <point x="75.3" y="384.7"/>
      <point x="144.0" y="346.0"/>
      <point x="182.9" y="315.0" type="curve"/>
      <point x="217.4" y="333.0" type="line"/>
      <point x="175.2" y="371.0"/>
      <point x="150.9" y="416.4"/>
      <point x="150.9" y="465.0" type="curve" smooth="yes"/>
      <point x="150.9" y="522.7"/>
      <point x="188.0" y="554.7"/>
      <point x="240.5" y="554.7" type="curve" smooth="yes"/>
      <point x="286.3" y="554.7"/>
      <point x="317.7" y="532.0"/>
      <point x="317.7" y="484.0" type="curve" smooth="yes"/>
      <point x="317.7" y="434.0"/>
      <point x="277.8" y="398.2"/>
      <point x="215.2" y="365.2" type="curve" smooth="yes"/>
      <point x="132.1" y="321.2"/>
      <point x="57.6" y="277.5"/>
      <point x="57.6" y="176.0" type="curve" smooth="yes"/>
      <point x="57.6" y="68.0"/>
      <point x="141.8" y="6.7"/>
    </contour>
  </outline>
</glyph>
<glyph name="five-beng" format="2">
  <advance width="466.0"/>
  <unicode hex="09EB"/>
  <outline>
    <contour>
      <point x="292.0" y="-1.3" type="curve" smooth="yes"/>
      <point x="344.2" y="-1.3"/>
      <point x="388.6" y="19.7"/>
      <point x="427.5" y="61.7" type="curve"/>
      <point x="407.6" y="102.0" type="line"/>
      <point x="349.7" y="103.0"/>
      <point x="322.8" y="136.0"/>
      <point x="322.8" y="194.4" type="curve" smooth="yes"/>
      <point x="322.8" y="277.1"/>
      <point x="379.7" y="343.4"/>
      <point x="430.0" y="366.4" type="curve"/>
      <point x="397.7" y="431.0" type="line"/>
      <point x="364.0" y="424.0"/>
      <point x="302.4" y="426.7"/>
      <point x="302.4" y="494.7" type="curve" smooth="yes"/>
      <point x="302.4" y="524.0"/>
      <point x="310.9" y="550.7"/>
      <point x="321.5" y="567.7" type="curve"/>
      <point x="320.8" y="600.0"/>
      <point x="308.2" y="622.3"/>
      <point x="270.8" y="622.3" type="curve" smooth="yes"/>
      <point x="178.3" y="622.3"/>
      <point x="55.5" y="463.0"/>
      <point x="55.5" y="295.0" type="curve" smooth="yes"/>
      <point x="55.5" y="112.7"/>
      <point x="161.8" y="-1.3"/>
    </contour>
    <contour>
      <point x="278.4" y="63.3" type="curve" smooth="yes"/>
      <point x="178.2" y="63.3"/>
      <point x="121.5" y="142.7"/>
      <point x="121.5" y="264.7" type="curve" smooth="yes"/>
      <point x="121.5" y="399.1"/>
      <point x="183.0" y="497.1"/>
      <point x="270.4" y="534.4" type="curve"/>
      <point x="251.3" y="542.4" type="line"/>
      <point x="246.5" y="530.4"/>
      <point x="243.4" y="519.4"/>
      <point x="243.4" y="508.0" type="curve" smooth="yes"/>
      <point x="243.4" y="414.4"/>
      <point x="311.8" y="390.7"/>
      <point x="364.3" y="390.7" type="curve"/>
      <point x="356.2" y="414.0" type="line"/>
      <point x="293.1" y="386.0"/>
      <point x="254.0" y="301.3"/>
      <point x="254.0" y="220.7" type="curve" smooth="yes"/>
      <point x="254.0" y="139.7"/>
      <point x="295.8" y="80.0"/>
      <point x="353.1" y="71.7" type="curve"/>
      <point x="343.9" y="87.0" type="line"/>
      <point x="332.4" y="74.0"/>
      <point x="309.3" y="63.3"/>
    </contour>
  </outline>
</glyph>
<glyph name="six-beng" format="2">
  <advance width="544.0"/>
  <unicode hex="09EC"/>
  <outline>
    <contour>
      <point x="323.0" y="11.4" type="curve" smooth="yes"/>
      <point x="439.5" y="11.4"/>
      <point x="498.5" y="103.1"/>
      <point x="498.5" y="223.4" type="curve" smooth="yes"/>
      <point x="498.5" y="319.7"/>
      <point x="464.5" y="386.0"/>
      <point x="415.6" y="432.8" type="curve"/>
      <point x="387.1" y="368.0"/>
      <point x="341.5" y="314.7"/>
      <point x="300.0" y="314.7" type="curve" smooth="yes"/>
      <point x="284.6" y="314.7"/>
      <point x="275.0" y="324.7"/>
      <point x="275.7" y="342.7" type="curve" smooth="yes"/>
      <point x="275.7" y="532.0" type="line" smooth="yes"/>
      <point x="275.7" y="592.0"/>
      <point x="246.7" y="624.0"/>
      <point x="202.9" y="624.0" type="curve" smooth="yes"/>
      <point x="163.0" y="624.0"/>
      <point x="141.8" y="594.7"/>
      <point x="141.8" y="559.4" type="curve" smooth="yes"/>
      <point x="141.8" y="524.0"/>
      <point x="163.7" y="497.0"/>
      <point x="201.0" y="497.0" type="curve" smooth="yes"/>
      <point x="232.5" y="497.0"/>
      <point x="243.4" y="517.0"/>
      <point x="246.0" y="545.0" type="curve"/>
      <point x="223.1" y="535.9" type="line"/>
      <point x="223.1" y="342.2" type="line" smooth="yes"/>
      <point x="223.1" y="310.3"/>
      <point x="231.0" y="285.7"/>
      <point x="250.9" y="266.4" type="curve" smooth="yes"/>
      <point x="268.2" y="249.4"/>
      <point x="290.3" y="239.9"/>
      <point x="315.7" y="239.9" type="curve" smooth="yes"/>
      <point x="368.0" y="239.9"/>
      <point x="420.8" y="286.2"/>
      <point x="456.4" y="353.2" type="curve"/>
      <point x="417.3" y="333.9" type="line"/>
      <point x="438.0" y="315.9"/>
      <point x="451.0" y="289.2"/>
      <point x="451.0" y="242.6" type="curve" smooth="yes"/>
      <point x="451.0" y="156.6"/>
      <point x="402.1" y="98.2"/>
      <point x="323.3" y="98.2" type="curve" smooth="yes"/>
      <point x="194.3" y="98.2"/>
      <point x="131.2" y="207.0"/>
      <point x="86.6" y="454.9" type="curve"/>
      <point x="47.4" y="447.4" type="line"/>
      <point x="91.0" y="140.7"/>
      <point x="181.3" y="11.4"/>
    </contour>
  </outline>
</glyph>
<glyph name="seven-beng" format="2">
  <advance width="447.4"/>
  <unicode hex="09ED"/>
  <outline>
    <contour>
      <point x="368.5" y="0.0" type="curve" smooth="yes"/>
      <point x="407.0" y="0.0"/>
      <point x="426.3" y="26.7"/>
      <point x="426.3" y="62.7" type="curve" smooth="yes"/>
      <point x="426.3" y="98.6"/>
      <point x="402.7" y="124.9"/>
      <point x="369.6" y="124.9" type="curve" smooth="yes"/>
      <point x="338.8" y="124.9"/>
      <point x="326.5" y="104.9"/>
      <point x="323.9" y="76.9" type="curve"/>
      <point x="345.6" y="76.9" type="line"/>
      <point x="345.6" y="484.2" type="line" smooth="yes"/>
      <point x="345.6" y="558.5"/>
      <point x="304.8" y="622.0"/>
      <point x="221.5" y="622.0" type="curve" smooth="yes"/>
      <point x="123.9" y="622.0"/>
      <point x="48.2" y="537.0"/>
      <point x="48.2" y="426.5" type="curve" smooth="yes"/>
      <point x="48.2" y="282.0"/>
      <point x="146.5" y="235.0"/>
      <point x="219.8" y="235.0" type="curve" smooth="yes"/>
      <point x="258.9" y="235.0"/>
      <point x="284.2" y="251.0"/>
      <point x="308.0" y="265.0" type="curve"/>
      <point x="313.8" y="355.5" type="line"/>
      <point x="283.5" y="326.1"/>
      <point x="239.0" y="307.5"/>
      <point x="195.2" y="307.5" type="curve" smooth="yes"/>
      <point x="138.0" y="307.5"/>
      <point x="108.6" y="344.0"/>
      <point x="108.6" y="397.0" type="curve" smooth="yes"/>
      <point x="108.6" y="482.3"/>
      <point x="185.3" y="560.4"/>
      <point x="242.6" y="560.4" type="curve" smooth="yes"/>
      <point x="278.8" y="560.4"/>
      <point x="293.7" y="537.3"/>
      <point x="293.7" y="496.8" type="curve" smooth="yes"/>
      <point x="293.7" y="98.5" type="line" smooth="yes"/>
      <point x="293.7" y="40.6"/>
      <point x="322.6" y="0.0"/>
    </contour>
  </outline>
</glyph>
